G04 #@! TF.GenerationSoftware,KiCad,Pcbnew,(6.0.4-0)*
G04 #@! TF.CreationDate,2022-08-24T21:25:05+02:00*
G04 #@! TF.ProjectId,Mezmerize_B1_Controller,4d657a6d-6572-4697-9a65-5f42315f436f,rev?*
G04 #@! TF.SameCoordinates,Original*
G04 #@! TF.FileFunction,Soldermask,Top*
G04 #@! TF.FilePolarity,Negative*
%FSLAX46Y46*%
G04 Gerber Fmt 4.6, Leading zero omitted, Abs format (unit mm)*
G04 Created by KiCad (PCBNEW (6.0.4-0)) date 2022-08-24 21:25:05*
%MOMM*%
%LPD*%
G01*
G04 APERTURE LIST*
G04 Aperture macros list*
%AMRoundRect*
0 Rectangle with rounded corners*
0 $1 Rounding radius*
0 $2 $3 $4 $5 $6 $7 $8 $9 X,Y pos of 4 corners*
0 Add a 4 corners polygon primitive as box body*
4,1,4,$2,$3,$4,$5,$6,$7,$8,$9,$2,$3,0*
0 Add four circle primitives for the rounded corners*
1,1,$1+$1,$2,$3*
1,1,$1+$1,$4,$5*
1,1,$1+$1,$6,$7*
1,1,$1+$1,$8,$9*
0 Add four rect primitives between the rounded corners*
20,1,$1+$1,$2,$3,$4,$5,0*
20,1,$1+$1,$4,$5,$6,$7,0*
20,1,$1+$1,$6,$7,$8,$9,0*
20,1,$1+$1,$8,$9,$2,$3,0*%
G04 Aperture macros list end*
%ADD10RoundRect,0.450000X0.325000X0.450000X-0.325000X0.450000X-0.325000X-0.450000X0.325000X-0.450000X0*%
%ADD11RoundRect,0.450000X-0.325000X-0.450000X0.325000X-0.450000X0.325000X0.450000X-0.325000X0.450000X0*%
%ADD12RoundRect,0.450000X-0.450000X0.325000X-0.450000X-0.325000X0.450000X-0.325000X0.450000X0.325000X0*%
%ADD13RoundRect,0.450000X0.450000X-0.325000X0.450000X0.325000X-0.450000X0.325000X-0.450000X-0.325000X0*%
%ADD14RoundRect,0.200000X0.279400X-0.990600X0.279400X0.990600X-0.279400X0.990600X-0.279400X-0.990600X0*%
%ADD15RoundRect,0.350000X0.825000X0.150000X-0.825000X0.150000X-0.825000X-0.150000X0.825000X-0.150000X0*%
%ADD16C,1.797000*%
%ADD17C,2.000000*%
%ADD18O,2.000000X2.000000*%
%ADD19RoundRect,0.443750X-0.456250X0.243750X-0.456250X-0.243750X0.456250X-0.243750X0.456250X0.243750X0*%
%ADD20RoundRect,0.443750X0.456250X-0.243750X0.456250X0.243750X-0.456250X0.243750X-0.456250X-0.243750X0*%
%ADD21RoundRect,0.450000X-0.725000X0.600000X-0.725000X-0.600000X0.725000X-0.600000X0.725000X0.600000X0*%
%ADD22O,2.350000X2.100000*%
%ADD23RoundRect,0.450000X0.750000X-0.600000X0.750000X0.600000X-0.750000X0.600000X-0.750000X-0.600000X0*%
%ADD24O,2.400000X2.100000*%
%ADD25RoundRect,0.450000X-0.750000X0.600000X-0.750000X-0.600000X0.750000X-0.600000X0.750000X0.600000X0*%
%ADD26RoundRect,0.450000X0.600000X0.750000X-0.600000X0.750000X-0.600000X-0.750000X0.600000X-0.750000X0*%
%ADD27O,2.100000X2.400000*%
%ADD28RoundRect,0.450000X0.725000X-0.600000X0.725000X0.600000X-0.725000X0.600000X-0.725000X-0.600000X0*%
%ADD29RoundRect,0.450000X0.600000X0.725000X-0.600000X0.725000X-0.600000X-0.725000X0.600000X-0.725000X0*%
%ADD30O,2.100000X2.350000*%
%ADD31C,3.600000*%
%ADD32C,3.400000*%
%ADD33RoundRect,0.200000X-1.000000X-1.000000X1.000000X-1.000000X1.000000X1.000000X-1.000000X1.000000X0*%
%ADD34C,2.400000*%
%ADD35RoundRect,0.200000X-1.500000X-1.500000X1.500000X-1.500000X1.500000X1.500000X-1.500000X1.500000X0*%
G04 APERTURE END LIST*
D10*
X151625000Y-112165000D03*
X149575000Y-112165000D03*
D11*
X149575000Y-114800000D03*
X151625000Y-114800000D03*
D12*
X144800000Y-124975000D03*
X144800000Y-127025000D03*
D13*
X153800000Y-127025000D03*
X153800000Y-124975000D03*
D12*
X158000000Y-124975000D03*
X158000000Y-127025000D03*
D14*
X144850000Y-95826300D03*
X146120000Y-95826300D03*
X147390000Y-95826300D03*
X148660000Y-95826300D03*
X149930000Y-95826300D03*
X151200000Y-95826300D03*
X152470000Y-95826300D03*
X153740000Y-95826300D03*
X155010000Y-95826300D03*
X155010000Y-86453700D03*
X153740000Y-86453700D03*
X152470000Y-86453700D03*
X151200000Y-86453700D03*
X149930000Y-86453700D03*
X148660000Y-86453700D03*
X147390000Y-86453700D03*
X146120000Y-86453700D03*
X144850000Y-86453700D03*
D15*
X153075000Y-121305000D03*
X153075000Y-120035000D03*
X153075000Y-118765000D03*
X153075000Y-117495000D03*
X148125000Y-117495000D03*
X148125000Y-118765000D03*
X148125000Y-120035000D03*
X148125000Y-121305000D03*
D16*
X141949700Y-71460000D03*
X138749300Y-71460000D03*
X136539500Y-71460000D03*
X134329700Y-71460000D03*
X134329700Y-76540000D03*
X136539500Y-76540000D03*
X138749300Y-76540000D03*
X141949700Y-76540000D03*
X158050300Y-76540000D03*
X161250700Y-76540000D03*
X163460500Y-76540000D03*
X165670300Y-76540000D03*
X165670300Y-71460000D03*
X163460500Y-71460000D03*
X161250700Y-71460000D03*
X158050300Y-71460000D03*
D17*
X148000000Y-62920000D03*
D18*
X148000000Y-73080000D03*
D17*
X152000000Y-63000000D03*
D18*
X152000000Y-73160000D03*
D14*
X144950000Y-109301200D03*
X146220000Y-109301200D03*
X147490000Y-109301200D03*
X148760000Y-109301200D03*
X150030000Y-109301200D03*
X151300000Y-109301200D03*
X152570000Y-109301200D03*
X153840000Y-109301200D03*
X155110000Y-109301200D03*
X155110000Y-100258800D03*
X153840000Y-100258800D03*
X152570000Y-100258800D03*
X151300000Y-100258800D03*
X150030000Y-100258800D03*
X148760000Y-100258800D03*
X147490000Y-100258800D03*
X146220000Y-100258800D03*
X144950000Y-100258800D03*
D19*
X145000000Y-73000000D03*
X145000000Y-74875000D03*
D20*
X154770000Y-74937500D03*
X154770000Y-73062500D03*
D21*
X175000000Y-82700000D03*
D22*
X175000000Y-85200000D03*
X175000000Y-87700000D03*
X175000000Y-90200000D03*
X175000000Y-92700000D03*
X175000000Y-95200000D03*
X175000000Y-97700000D03*
D23*
X125000000Y-75500000D03*
D24*
X125000000Y-73000000D03*
D23*
X125000000Y-65500000D03*
D24*
X125000000Y-63000000D03*
D25*
X175000000Y-63000000D03*
D24*
X175000000Y-65000000D03*
D25*
X175000000Y-73000000D03*
D24*
X175000000Y-75500000D03*
D26*
X140150000Y-141200000D03*
D27*
X137650000Y-141200000D03*
D26*
X150150000Y-141200000D03*
D27*
X147650000Y-141200000D03*
D28*
X125000000Y-110050000D03*
D22*
X125000000Y-107550000D03*
X125000000Y-105050000D03*
X125000000Y-102550000D03*
X125000000Y-100050000D03*
X125000000Y-97550000D03*
D28*
X125000000Y-127200000D03*
D22*
X125000000Y-124700000D03*
X125000000Y-122200000D03*
X125000000Y-119700000D03*
X125000000Y-117200000D03*
D28*
X125000000Y-90350000D03*
D22*
X125000000Y-87850000D03*
X125000000Y-85350000D03*
X125000000Y-82850000D03*
D21*
X175000000Y-122000000D03*
D22*
X175000000Y-124500000D03*
X175000000Y-127000000D03*
X175000000Y-129500000D03*
X175000000Y-132000000D03*
D21*
X175000000Y-104780000D03*
D22*
X175000000Y-107280000D03*
X175000000Y-109780000D03*
X175000000Y-112280000D03*
X175000000Y-114780000D03*
D29*
X162600000Y-141200000D03*
D30*
X160100000Y-141200000D03*
X157600000Y-141200000D03*
D31*
X125000000Y-55000000D03*
D32*
X162330000Y-85897500D03*
X137820000Y-85897500D03*
X137820000Y-132847500D03*
X162330000Y-132847500D03*
D33*
X137400000Y-93857500D03*
D34*
X137400000Y-96397500D03*
X137400000Y-98937500D03*
X137400000Y-101477500D03*
X137400000Y-104017500D03*
X137400000Y-106557500D03*
X137400000Y-109097500D03*
X137400000Y-111637500D03*
X137400000Y-114177500D03*
X137400000Y-116717500D03*
X137400000Y-119257500D03*
X137400000Y-121797500D03*
X137400000Y-124337500D03*
X137400000Y-126877500D03*
X137400000Y-129417500D03*
X162800000Y-129417500D03*
X162800000Y-126877500D03*
X162800000Y-124337500D03*
X162800000Y-121797500D03*
X162800000Y-119257500D03*
X162800000Y-116717500D03*
X162800000Y-114177500D03*
X162800000Y-111637500D03*
X162800000Y-109097500D03*
X162800000Y-106557500D03*
X162800000Y-104017500D03*
X162800000Y-101477500D03*
X162800000Y-98937500D03*
X162800000Y-96397500D03*
X162800000Y-93857500D03*
D31*
X175000000Y-140780000D03*
D35*
X159193332Y-56120000D03*
D32*
X164273332Y-56120000D03*
D35*
X135726666Y-56120000D03*
D32*
X140806666Y-56120000D03*
D31*
X175000000Y-55000000D03*
X125000000Y-140780000D03*
M02*
