M48
; DRILL file {KiCad (6.0.4-0)} date Wednesday, 24 August 2022 at 21:25:34
; FORMAT={-:-/ absolute / metric / decimal}
; #@! TF.CreationDate,2022-08-24T21:25:34+02:00
; #@! TF.GenerationSoftware,Kicad,Pcbnew,(6.0.4-0)
; #@! TF.FileFunction,Plated,1,2,PTH
FMAT,2
METRIC
; #@! TA.AperFunction,Plated,PTH,ViaDrill
T1C0.400
; #@! TA.AperFunction,Plated,PTH,ComponentDrill
T2C0.800
; #@! TA.AperFunction,Plated,PTH,ComponentDrill
T3C0.889
; #@! TA.AperFunction,Plated,PTH,ComponentDrill
T4C0.950
; #@! TA.AperFunction,Plated,PTH,ComponentDrill
T5C1.000
; #@! TA.AperFunction,Plated,PTH,ComponentDrill
T6C1.020
; #@! TA.AperFunction,Plated,PTH,ComponentDrill
T7C1.520
%
G90
G05
T1
X142.0Y-92.0
X142.8Y-107.2
X144.8Y-82.8
X144.8Y-113.6
X144.8Y-117.6
X144.8Y-121.6
X146.2Y-105.6
T2
X148.0Y-62.92
X148.0Y-73.08
X152.0Y-63.0
X152.0Y-73.16
T3
X134.33Y-71.46
X134.33Y-76.54
X136.54Y-71.46
X136.54Y-76.54
X138.749Y-71.46
X138.749Y-76.54
X141.95Y-71.46
X141.95Y-76.54
X158.05Y-71.46
X158.05Y-76.54
X161.251Y-71.46
X161.251Y-76.54
X163.46Y-71.46
X163.46Y-76.54
X165.67Y-71.46
X165.67Y-76.54
T4
X125.0Y-82.85
X125.0Y-85.35
X125.0Y-87.85
X125.0Y-90.35
X125.0Y-97.55
X125.0Y-100.05
X125.0Y-102.55
X125.0Y-105.05
X125.0Y-107.55
X125.0Y-110.05
X125.0Y-117.2
X125.0Y-119.7
X125.0Y-122.2
X125.0Y-124.7
X125.0Y-127.2
X157.6Y-141.2
X160.1Y-141.2
X162.6Y-141.2
X175.0Y-82.7
X175.0Y-85.2
X175.0Y-87.7
X175.0Y-90.2
X175.0Y-92.7
X175.0Y-95.2
X175.0Y-97.7
X175.0Y-104.78
X175.0Y-107.28
X175.0Y-109.78
X175.0Y-112.28
X175.0Y-114.78
X175.0Y-122.0
X175.0Y-124.5
X175.0Y-127.0
X175.0Y-129.5
X175.0Y-132.0
T5
X125.0Y-63.0
X125.0Y-65.5
X125.0Y-73.0
X125.0Y-75.5
X137.65Y-141.2
X140.15Y-141.2
X147.65Y-141.2
X150.15Y-141.2
X175.0Y-63.0
X175.0Y-65.0
X175.0Y-73.0
X175.0Y-75.5
T6
X137.4Y-93.858
X137.4Y-96.397
X137.4Y-98.938
X137.4Y-101.477
X137.4Y-104.017
X137.4Y-106.557
X137.4Y-109.097
X137.4Y-111.637
X137.4Y-114.177
X137.4Y-116.718
X137.4Y-119.257
X137.4Y-121.797
X137.4Y-124.337
X137.4Y-126.877
X137.4Y-129.417
X162.8Y-93.858
X162.8Y-96.397
X162.8Y-98.938
X162.8Y-101.477
X162.8Y-104.017
X162.8Y-106.557
X162.8Y-109.097
X162.8Y-111.637
X162.8Y-114.177
X162.8Y-116.718
X162.8Y-119.257
X162.8Y-121.797
X162.8Y-124.337
X162.8Y-126.877
X162.8Y-129.417
T7
X135.727Y-56.12
X140.807Y-56.12
X159.193Y-56.12
X164.273Y-56.12
T0
M30
