%FSLAX45Y45*%
G04 Gerber Fmt 4.5, Leading zero omitted, Abs format (unit mm)*
G04 Created by KiCad (PCBNEW (6.0.4-0)) date 2022-08-24 21:14:19*
%MOMM*%
%LPD*%
G01*
G04 APERTURE LIST*
%TA.AperFunction,Profile*%
%ADD10C,0.150000*%
%TD*%
%ADD11C,0.200000*%
%ADD12C,0.040000*%
%ADD13C,0.080000*%
%ADD14C,0.088900*%
%ADD15C,0.095000*%
%ADD16C,0.100000*%
%ADD17C,0.102000*%
%ADD18C,0.152000*%
G04 APERTURE END LIST*
D10*
X12000000Y-5000000D02*
X18000000Y-5000000D01*
X12000000Y-14578000D02*
X12000000Y-5000000D01*
X18000000Y-14578000D02*
X12000000Y-14578000D01*
X18000000Y-5000000D02*
X18000000Y-14578000D01*
D11*
D12*
X14180000Y-9180000D02*
X14220000Y-9220000D01*
X14220000Y-9180000D02*
X14180000Y-9220000D01*
X14260000Y-10700000D02*
X14300000Y-10740000D01*
X14300000Y-10700000D02*
X14260000Y-10740000D01*
X14460000Y-8260000D02*
X14500000Y-8300000D01*
X14500000Y-8260000D02*
X14460000Y-8300000D01*
X14460000Y-11340000D02*
X14500000Y-11380000D01*
X14500000Y-11340000D02*
X14460000Y-11380000D01*
X14460000Y-11740000D02*
X14500000Y-11780000D01*
X14500000Y-11740000D02*
X14460000Y-11780000D01*
X14460000Y-12140000D02*
X14500000Y-12180000D01*
X14500000Y-12140000D02*
X14460000Y-12180000D01*
X14600000Y-10540000D02*
X14640000Y-10580000D01*
X14640000Y-10540000D02*
X14600000Y-10580000D01*
D13*
X14840000Y-6292000D02*
G75*
G03*
X14840000Y-6292000I-40000J0D01*
G01*
X14840000Y-7308000D02*
G75*
G03*
X14840000Y-7308000I-40000J0D01*
G01*
X15240000Y-6300000D02*
G75*
G03*
X15240000Y-6300000I-40000J0D01*
G01*
X15240000Y-7316000D02*
G75*
G03*
X15240000Y-7316000I-40000J0D01*
G01*
D14*
X13432970Y-7101550D02*
X13432970Y-7190450D01*
X13388520Y-7146000D02*
X13477420Y-7146000D01*
X13432970Y-7609550D02*
X13432970Y-7698450D01*
X13388520Y-7654000D02*
X13477420Y-7654000D01*
X13653950Y-7101550D02*
X13653950Y-7190450D01*
X13609500Y-7146000D02*
X13698400Y-7146000D01*
X13653950Y-7609550D02*
X13653950Y-7698450D01*
X13609500Y-7654000D02*
X13698400Y-7654000D01*
X13874930Y-7101550D02*
X13874930Y-7190450D01*
X13830480Y-7146000D02*
X13919380Y-7146000D01*
X13874930Y-7609550D02*
X13874930Y-7698450D01*
X13830480Y-7654000D02*
X13919380Y-7654000D01*
X14194970Y-7101550D02*
X14194970Y-7190450D01*
X14150520Y-7146000D02*
X14239420Y-7146000D01*
X14194970Y-7609550D02*
X14194970Y-7698450D01*
X14150520Y-7654000D02*
X14239420Y-7654000D01*
X15805030Y-7101550D02*
X15805030Y-7190450D01*
X15760580Y-7146000D02*
X15849480Y-7146000D01*
X15805030Y-7609550D02*
X15805030Y-7698450D01*
X15760580Y-7654000D02*
X15849480Y-7654000D01*
X16125070Y-7101550D02*
X16125070Y-7190450D01*
X16080620Y-7146000D02*
X16169520Y-7146000D01*
X16125070Y-7609550D02*
X16125070Y-7698450D01*
X16080620Y-7654000D02*
X16169520Y-7654000D01*
X16346050Y-7101550D02*
X16346050Y-7190450D01*
X16301600Y-7146000D02*
X16390500Y-7146000D01*
X16346050Y-7609550D02*
X16346050Y-7698450D01*
X16301600Y-7654000D02*
X16390500Y-7654000D01*
X16567030Y-7101550D02*
X16567030Y-7190450D01*
X16522580Y-7146000D02*
X16611480Y-7146000D01*
X16567030Y-7609550D02*
X16567030Y-7698450D01*
X16522580Y-7654000D02*
X16611480Y-7654000D01*
D15*
X12533588Y-8318588D02*
X12533588Y-8251412D01*
X12466412Y-8251412D01*
X12466412Y-8318588D01*
X12533588Y-8318588D01*
X12533588Y-8568588D02*
X12533588Y-8501412D01*
X12466412Y-8501412D01*
X12466412Y-8568588D01*
X12533588Y-8568588D01*
X12533588Y-8818588D02*
X12533588Y-8751412D01*
X12466412Y-8751412D01*
X12466412Y-8818588D01*
X12533588Y-8818588D01*
X12533588Y-9068588D02*
X12533588Y-9001412D01*
X12466412Y-9001412D01*
X12466412Y-9068588D01*
X12533588Y-9068588D01*
X12533588Y-9788588D02*
X12533588Y-9721412D01*
X12466412Y-9721412D01*
X12466412Y-9788588D01*
X12533588Y-9788588D01*
X12533588Y-10038588D02*
X12533588Y-9971412D01*
X12466412Y-9971412D01*
X12466412Y-10038588D01*
X12533588Y-10038588D01*
X12533588Y-10288588D02*
X12533588Y-10221412D01*
X12466412Y-10221412D01*
X12466412Y-10288588D01*
X12533588Y-10288588D01*
X12533588Y-10538588D02*
X12533588Y-10471412D01*
X12466412Y-10471412D01*
X12466412Y-10538588D01*
X12533588Y-10538588D01*
X12533588Y-10788588D02*
X12533588Y-10721412D01*
X12466412Y-10721412D01*
X12466412Y-10788588D01*
X12533588Y-10788588D01*
X12533588Y-11038588D02*
X12533588Y-10971412D01*
X12466412Y-10971412D01*
X12466412Y-11038588D01*
X12533588Y-11038588D01*
X12533588Y-11753588D02*
X12533588Y-11686412D01*
X12466412Y-11686412D01*
X12466412Y-11753588D01*
X12533588Y-11753588D01*
X12533588Y-12003588D02*
X12533588Y-11936412D01*
X12466412Y-11936412D01*
X12466412Y-12003588D01*
X12533588Y-12003588D01*
X12533588Y-12253588D02*
X12533588Y-12186412D01*
X12466412Y-12186412D01*
X12466412Y-12253588D01*
X12533588Y-12253588D01*
X12533588Y-12503588D02*
X12533588Y-12436412D01*
X12466412Y-12436412D01*
X12466412Y-12503588D01*
X12533588Y-12503588D01*
X12533588Y-12753588D02*
X12533588Y-12686412D01*
X12466412Y-12686412D01*
X12466412Y-12753588D01*
X12533588Y-12753588D01*
X15793588Y-14153588D02*
X15793588Y-14086412D01*
X15726412Y-14086412D01*
X15726412Y-14153588D01*
X15793588Y-14153588D01*
X16043588Y-14153588D02*
X16043588Y-14086412D01*
X15976412Y-14086412D01*
X15976412Y-14153588D01*
X16043588Y-14153588D01*
X16293588Y-14153588D02*
X16293588Y-14086412D01*
X16226412Y-14086412D01*
X16226412Y-14153588D01*
X16293588Y-14153588D01*
X17533588Y-8303588D02*
X17533588Y-8236412D01*
X17466412Y-8236412D01*
X17466412Y-8303588D01*
X17533588Y-8303588D01*
X17533588Y-8553588D02*
X17533588Y-8486412D01*
X17466412Y-8486412D01*
X17466412Y-8553588D01*
X17533588Y-8553588D01*
X17533588Y-8803588D02*
X17533588Y-8736412D01*
X17466412Y-8736412D01*
X17466412Y-8803588D01*
X17533588Y-8803588D01*
X17533588Y-9053588D02*
X17533588Y-8986412D01*
X17466412Y-8986412D01*
X17466412Y-9053588D01*
X17533588Y-9053588D01*
X17533588Y-9303588D02*
X17533588Y-9236412D01*
X17466412Y-9236412D01*
X17466412Y-9303588D01*
X17533588Y-9303588D01*
X17533588Y-9553588D02*
X17533588Y-9486412D01*
X17466412Y-9486412D01*
X17466412Y-9553588D01*
X17533588Y-9553588D01*
X17533588Y-9803588D02*
X17533588Y-9736412D01*
X17466412Y-9736412D01*
X17466412Y-9803588D01*
X17533588Y-9803588D01*
X17533588Y-10511588D02*
X17533588Y-10444412D01*
X17466412Y-10444412D01*
X17466412Y-10511588D01*
X17533588Y-10511588D01*
X17533588Y-10761588D02*
X17533588Y-10694412D01*
X17466412Y-10694412D01*
X17466412Y-10761588D01*
X17533588Y-10761588D01*
X17533588Y-11011588D02*
X17533588Y-10944412D01*
X17466412Y-10944412D01*
X17466412Y-11011588D01*
X17533588Y-11011588D01*
X17533588Y-11261588D02*
X17533588Y-11194412D01*
X17466412Y-11194412D01*
X17466412Y-11261588D01*
X17533588Y-11261588D01*
X17533588Y-11511588D02*
X17533588Y-11444412D01*
X17466412Y-11444412D01*
X17466412Y-11511588D01*
X17533588Y-11511588D01*
X17533588Y-12233588D02*
X17533588Y-12166412D01*
X17466412Y-12166412D01*
X17466412Y-12233588D01*
X17533588Y-12233588D01*
X17533588Y-12483588D02*
X17533588Y-12416412D01*
X17466412Y-12416412D01*
X17466412Y-12483588D01*
X17533588Y-12483588D01*
X17533588Y-12733588D02*
X17533588Y-12666412D01*
X17466412Y-12666412D01*
X17466412Y-12733588D01*
X17533588Y-12733588D01*
X17533588Y-12983588D02*
X17533588Y-12916412D01*
X17466412Y-12916412D01*
X17466412Y-12983588D01*
X17533588Y-12983588D01*
X17533588Y-13233588D02*
X17533588Y-13166412D01*
X17466412Y-13166412D01*
X17466412Y-13233588D01*
X17533588Y-13233588D01*
D16*
X12500000Y-6350000D02*
X12550000Y-6300000D01*
X12500000Y-6250000D01*
X12450000Y-6300000D01*
X12500000Y-6350000D01*
X12500000Y-6600000D02*
X12550000Y-6550000D01*
X12500000Y-6500000D01*
X12450000Y-6550000D01*
X12500000Y-6600000D01*
X12500000Y-7350000D02*
X12550000Y-7300000D01*
X12500000Y-7250000D01*
X12450000Y-7300000D01*
X12500000Y-7350000D01*
X12500000Y-7600000D02*
X12550000Y-7550000D01*
X12500000Y-7500000D01*
X12450000Y-7550000D01*
X12500000Y-7600000D01*
X13765000Y-14170000D02*
X13815000Y-14120000D01*
X13765000Y-14070000D01*
X13715000Y-14120000D01*
X13765000Y-14170000D01*
X14015000Y-14170000D02*
X14065000Y-14120000D01*
X14015000Y-14070000D01*
X13965000Y-14120000D01*
X14015000Y-14170000D01*
X14765000Y-14170000D02*
X14815000Y-14120000D01*
X14765000Y-14070000D01*
X14715000Y-14120000D01*
X14765000Y-14170000D01*
X15015000Y-14170000D02*
X15065000Y-14120000D01*
X15015000Y-14070000D01*
X14965000Y-14120000D01*
X15015000Y-14170000D01*
X17500000Y-6350000D02*
X17550000Y-6300000D01*
X17500000Y-6250000D01*
X17450000Y-6300000D01*
X17500000Y-6350000D01*
X17500000Y-6550000D02*
X17550000Y-6500000D01*
X17500000Y-6450000D01*
X17450000Y-6500000D01*
X17500000Y-6550000D01*
X17500000Y-7350000D02*
X17550000Y-7300000D01*
X17500000Y-7250000D01*
X17450000Y-7300000D01*
X17500000Y-7350000D01*
X17500000Y-7600000D02*
X17550000Y-7550000D01*
X17500000Y-7500000D01*
X17450000Y-7550000D01*
X17500000Y-7600000D01*
D17*
X13689000Y-9334750D02*
X13791000Y-9436750D01*
X13791000Y-9334750D02*
X13689000Y-9436750D01*
X13791000Y-9385750D02*
G75*
G03*
X13791000Y-9385750I-51000J0D01*
G01*
X13689000Y-9588750D02*
X13791000Y-9690750D01*
X13791000Y-9588750D02*
X13689000Y-9690750D01*
X13791000Y-9639750D02*
G75*
G03*
X13791000Y-9639750I-51000J0D01*
G01*
X13689000Y-9842750D02*
X13791000Y-9944750D01*
X13791000Y-9842750D02*
X13689000Y-9944750D01*
X13791000Y-9893750D02*
G75*
G03*
X13791000Y-9893750I-51000J0D01*
G01*
X13689000Y-10096750D02*
X13791000Y-10198750D01*
X13791000Y-10096750D02*
X13689000Y-10198750D01*
X13791000Y-10147750D02*
G75*
G03*
X13791000Y-10147750I-51000J0D01*
G01*
X13689000Y-10350750D02*
X13791000Y-10452750D01*
X13791000Y-10350750D02*
X13689000Y-10452750D01*
X13791000Y-10401750D02*
G75*
G03*
X13791000Y-10401750I-51000J0D01*
G01*
X13689000Y-10604750D02*
X13791000Y-10706750D01*
X13791000Y-10604750D02*
X13689000Y-10706750D01*
X13791000Y-10655750D02*
G75*
G03*
X13791000Y-10655750I-51000J0D01*
G01*
X13689000Y-10858750D02*
X13791000Y-10960750D01*
X13791000Y-10858750D02*
X13689000Y-10960750D01*
X13791000Y-10909750D02*
G75*
G03*
X13791000Y-10909750I-51000J0D01*
G01*
X13689000Y-11112750D02*
X13791000Y-11214750D01*
X13791000Y-11112750D02*
X13689000Y-11214750D01*
X13791000Y-11163750D02*
G75*
G03*
X13791000Y-11163750I-51000J0D01*
G01*
X13689000Y-11366750D02*
X13791000Y-11468750D01*
X13791000Y-11366750D02*
X13689000Y-11468750D01*
X13791000Y-11417750D02*
G75*
G03*
X13791000Y-11417750I-51000J0D01*
G01*
X13689000Y-11620750D02*
X13791000Y-11722750D01*
X13791000Y-11620750D02*
X13689000Y-11722750D01*
X13791000Y-11671750D02*
G75*
G03*
X13791000Y-11671750I-51000J0D01*
G01*
X13689000Y-11874750D02*
X13791000Y-11976750D01*
X13791000Y-11874750D02*
X13689000Y-11976750D01*
X13791000Y-11925750D02*
G75*
G03*
X13791000Y-11925750I-51000J0D01*
G01*
X13689000Y-12128750D02*
X13791000Y-12230750D01*
X13791000Y-12128750D02*
X13689000Y-12230750D01*
X13791000Y-12179750D02*
G75*
G03*
X13791000Y-12179750I-51000J0D01*
G01*
X13689000Y-12382750D02*
X13791000Y-12484750D01*
X13791000Y-12382750D02*
X13689000Y-12484750D01*
X13791000Y-12433750D02*
G75*
G03*
X13791000Y-12433750I-51000J0D01*
G01*
X13689000Y-12636750D02*
X13791000Y-12738750D01*
X13791000Y-12636750D02*
X13689000Y-12738750D01*
X13791000Y-12687750D02*
G75*
G03*
X13791000Y-12687750I-51000J0D01*
G01*
X13689000Y-12890750D02*
X13791000Y-12992750D01*
X13791000Y-12890750D02*
X13689000Y-12992750D01*
X13791000Y-12941750D02*
G75*
G03*
X13791000Y-12941750I-51000J0D01*
G01*
X16229000Y-9334750D02*
X16331000Y-9436750D01*
X16331000Y-9334750D02*
X16229000Y-9436750D01*
X16331000Y-9385750D02*
G75*
G03*
X16331000Y-9385750I-51000J0D01*
G01*
X16229000Y-9588750D02*
X16331000Y-9690750D01*
X16331000Y-9588750D02*
X16229000Y-9690750D01*
X16331000Y-9639750D02*
G75*
G03*
X16331000Y-9639750I-51000J0D01*
G01*
X16229000Y-9842750D02*
X16331000Y-9944750D01*
X16331000Y-9842750D02*
X16229000Y-9944750D01*
X16331000Y-9893750D02*
G75*
G03*
X16331000Y-9893750I-51000J0D01*
G01*
X16229000Y-10096750D02*
X16331000Y-10198750D01*
X16331000Y-10096750D02*
X16229000Y-10198750D01*
X16331000Y-10147750D02*
G75*
G03*
X16331000Y-10147750I-51000J0D01*
G01*
X16229000Y-10350750D02*
X16331000Y-10452750D01*
X16331000Y-10350750D02*
X16229000Y-10452750D01*
X16331000Y-10401750D02*
G75*
G03*
X16331000Y-10401750I-51000J0D01*
G01*
X16229000Y-10604750D02*
X16331000Y-10706750D01*
X16331000Y-10604750D02*
X16229000Y-10706750D01*
X16331000Y-10655750D02*
G75*
G03*
X16331000Y-10655750I-51000J0D01*
G01*
X16229000Y-10858750D02*
X16331000Y-10960750D01*
X16331000Y-10858750D02*
X16229000Y-10960750D01*
X16331000Y-10909750D02*
G75*
G03*
X16331000Y-10909750I-51000J0D01*
G01*
X16229000Y-11112750D02*
X16331000Y-11214750D01*
X16331000Y-11112750D02*
X16229000Y-11214750D01*
X16331000Y-11163750D02*
G75*
G03*
X16331000Y-11163750I-51000J0D01*
G01*
X16229000Y-11366750D02*
X16331000Y-11468750D01*
X16331000Y-11366750D02*
X16229000Y-11468750D01*
X16331000Y-11417750D02*
G75*
G03*
X16331000Y-11417750I-51000J0D01*
G01*
X16229000Y-11620750D02*
X16331000Y-11722750D01*
X16331000Y-11620750D02*
X16229000Y-11722750D01*
X16331000Y-11671750D02*
G75*
G03*
X16331000Y-11671750I-51000J0D01*
G01*
X16229000Y-11874750D02*
X16331000Y-11976750D01*
X16331000Y-11874750D02*
X16229000Y-11976750D01*
X16331000Y-11925750D02*
G75*
G03*
X16331000Y-11925750I-51000J0D01*
G01*
X16229000Y-12128750D02*
X16331000Y-12230750D01*
X16331000Y-12128750D02*
X16229000Y-12230750D01*
X16331000Y-12179750D02*
G75*
G03*
X16331000Y-12179750I-51000J0D01*
G01*
X16229000Y-12382750D02*
X16331000Y-12484750D01*
X16331000Y-12382750D02*
X16229000Y-12484750D01*
X16331000Y-12433750D02*
G75*
G03*
X16331000Y-12433750I-51000J0D01*
G01*
X16229000Y-12636750D02*
X16331000Y-12738750D01*
X16331000Y-12636750D02*
X16229000Y-12738750D01*
X16331000Y-12687750D02*
G75*
G03*
X16331000Y-12687750I-51000J0D01*
G01*
X16229000Y-12890750D02*
X16331000Y-12992750D01*
X16331000Y-12890750D02*
X16229000Y-12992750D01*
X16331000Y-12941750D02*
G75*
G03*
X16331000Y-12941750I-51000J0D01*
G01*
D18*
X13496667Y-5536000D02*
X13648667Y-5688000D01*
X13648667Y-5536000D02*
X13496667Y-5688000D01*
X13572667Y-5536000D02*
X13572667Y-5688000D01*
X13496667Y-5612000D02*
X13648667Y-5612000D01*
X14004667Y-5536000D02*
X14156667Y-5688000D01*
X14156667Y-5536000D02*
X14004667Y-5688000D01*
X14080667Y-5536000D02*
X14080667Y-5688000D01*
X14004667Y-5612000D02*
X14156667Y-5612000D01*
X15843333Y-5536000D02*
X15995333Y-5688000D01*
X15995333Y-5536000D02*
X15843333Y-5688000D01*
X15919333Y-5536000D02*
X15919333Y-5688000D01*
X15843333Y-5612000D02*
X15995333Y-5612000D01*
X16351333Y-5536000D02*
X16503333Y-5688000D01*
X16503333Y-5536000D02*
X16351333Y-5688000D01*
X16427333Y-5536000D02*
X16427333Y-5688000D01*
X16351333Y-5612000D02*
X16503333Y-5612000D01*
D11*
X12250119Y-14895976D02*
X12250119Y-14695976D01*
X12297738Y-14695976D01*
X12326309Y-14705500D01*
X12345357Y-14724548D01*
X12354881Y-14743595D01*
X12364405Y-14781690D01*
X12364405Y-14810262D01*
X12354881Y-14848357D01*
X12345357Y-14867405D01*
X12326309Y-14886452D01*
X12297738Y-14895976D01*
X12250119Y-14895976D01*
X12450119Y-14895976D02*
X12450119Y-14762643D01*
X12450119Y-14800738D02*
X12459643Y-14781690D01*
X12469167Y-14772167D01*
X12488214Y-14762643D01*
X12507262Y-14762643D01*
X12573928Y-14895976D02*
X12573928Y-14762643D01*
X12573928Y-14695976D02*
X12564405Y-14705500D01*
X12573928Y-14715024D01*
X12583452Y-14705500D01*
X12573928Y-14695976D01*
X12573928Y-14715024D01*
X12697738Y-14895976D02*
X12678690Y-14886452D01*
X12669167Y-14867405D01*
X12669167Y-14695976D01*
X12802500Y-14895976D02*
X12783452Y-14886452D01*
X12773928Y-14867405D01*
X12773928Y-14695976D01*
X13031071Y-14895976D02*
X13031071Y-14695976D01*
X13097738Y-14838833D01*
X13164405Y-14695976D01*
X13164405Y-14895976D01*
X13345357Y-14895976D02*
X13345357Y-14791214D01*
X13335833Y-14772167D01*
X13316786Y-14762643D01*
X13278690Y-14762643D01*
X13259643Y-14772167D01*
X13345357Y-14886452D02*
X13326309Y-14895976D01*
X13278690Y-14895976D01*
X13259643Y-14886452D01*
X13250119Y-14867405D01*
X13250119Y-14848357D01*
X13259643Y-14829309D01*
X13278690Y-14819786D01*
X13326309Y-14819786D01*
X13345357Y-14810262D01*
X13440595Y-14762643D02*
X13440595Y-14962643D01*
X13440595Y-14772167D02*
X13459643Y-14762643D01*
X13497738Y-14762643D01*
X13516786Y-14772167D01*
X13526309Y-14781690D01*
X13535833Y-14800738D01*
X13535833Y-14857881D01*
X13526309Y-14876928D01*
X13516786Y-14886452D01*
X13497738Y-14895976D01*
X13459643Y-14895976D01*
X13440595Y-14886452D01*
X13621548Y-14876928D02*
X13631071Y-14886452D01*
X13621548Y-14895976D01*
X13612024Y-14886452D01*
X13621548Y-14876928D01*
X13621548Y-14895976D01*
X13621548Y-14772167D02*
X13631071Y-14781690D01*
X13621548Y-14791214D01*
X13612024Y-14781690D01*
X13621548Y-14772167D01*
X13621548Y-14791214D01*
D12*
X11952500Y-15205500D02*
X11992500Y-15245500D01*
X11992500Y-15205500D02*
X11952500Y-15245500D01*
D11*
X12288214Y-15115976D02*
X12307262Y-15115976D01*
X12326309Y-15125500D01*
X12335833Y-15135024D01*
X12345357Y-15154071D01*
X12354881Y-15192167D01*
X12354881Y-15239786D01*
X12345357Y-15277881D01*
X12335833Y-15296928D01*
X12326309Y-15306452D01*
X12307262Y-15315976D01*
X12288214Y-15315976D01*
X12269167Y-15306452D01*
X12259643Y-15296928D01*
X12250119Y-15277881D01*
X12240595Y-15239786D01*
X12240595Y-15192167D01*
X12250119Y-15154071D01*
X12259643Y-15135024D01*
X12269167Y-15125500D01*
X12288214Y-15115976D01*
X12440595Y-15296928D02*
X12450119Y-15306452D01*
X12440595Y-15315976D01*
X12431071Y-15306452D01*
X12440595Y-15296928D01*
X12440595Y-15315976D01*
X12621548Y-15182643D02*
X12621548Y-15315976D01*
X12573928Y-15106452D02*
X12526309Y-15249309D01*
X12650119Y-15249309D01*
X12764405Y-15115976D02*
X12783452Y-15115976D01*
X12802500Y-15125500D01*
X12812024Y-15135024D01*
X12821548Y-15154071D01*
X12831071Y-15192167D01*
X12831071Y-15239786D01*
X12821548Y-15277881D01*
X12812024Y-15296928D01*
X12802500Y-15306452D01*
X12783452Y-15315976D01*
X12764405Y-15315976D01*
X12745357Y-15306452D01*
X12735833Y-15296928D01*
X12726309Y-15277881D01*
X12716786Y-15239786D01*
X12716786Y-15192167D01*
X12726309Y-15154071D01*
X12735833Y-15135024D01*
X12745357Y-15125500D01*
X12764405Y-15115976D01*
X12954881Y-15115976D02*
X12973928Y-15115976D01*
X12992976Y-15125500D01*
X13002500Y-15135024D01*
X13012024Y-15154071D01*
X13021548Y-15192167D01*
X13021548Y-15239786D01*
X13012024Y-15277881D01*
X13002500Y-15296928D01*
X12992976Y-15306452D01*
X12973928Y-15315976D01*
X12954881Y-15315976D01*
X12935833Y-15306452D01*
X12926309Y-15296928D01*
X12916786Y-15277881D01*
X12907262Y-15239786D01*
X12907262Y-15192167D01*
X12916786Y-15154071D01*
X12926309Y-15135024D01*
X12935833Y-15125500D01*
X12954881Y-15115976D01*
X13107262Y-15315976D02*
X13107262Y-15182643D01*
X13107262Y-15201690D02*
X13116786Y-15192167D01*
X13135833Y-15182643D01*
X13164405Y-15182643D01*
X13183452Y-15192167D01*
X13192976Y-15211214D01*
X13192976Y-15315976D01*
X13192976Y-15211214D02*
X13202500Y-15192167D01*
X13221548Y-15182643D01*
X13250119Y-15182643D01*
X13269167Y-15192167D01*
X13278690Y-15211214D01*
X13278690Y-15315976D01*
X13373928Y-15315976D02*
X13373928Y-15182643D01*
X13373928Y-15201690D02*
X13383452Y-15192167D01*
X13402500Y-15182643D01*
X13431071Y-15182643D01*
X13450119Y-15192167D01*
X13459643Y-15211214D01*
X13459643Y-15315976D01*
X13459643Y-15211214D02*
X13469167Y-15192167D01*
X13488214Y-15182643D01*
X13516786Y-15182643D01*
X13535833Y-15192167D01*
X13545357Y-15211214D01*
X13545357Y-15315976D01*
X13935833Y-15106452D02*
X13764405Y-15363595D01*
X14192976Y-15115976D02*
X14212024Y-15115976D01*
X14231071Y-15125500D01*
X14240595Y-15135024D01*
X14250119Y-15154071D01*
X14259643Y-15192167D01*
X14259643Y-15239786D01*
X14250119Y-15277881D01*
X14240595Y-15296928D01*
X14231071Y-15306452D01*
X14212024Y-15315976D01*
X14192976Y-15315976D01*
X14173928Y-15306452D01*
X14164405Y-15296928D01*
X14154881Y-15277881D01*
X14145357Y-15239786D01*
X14145357Y-15192167D01*
X14154881Y-15154071D01*
X14164405Y-15135024D01*
X14173928Y-15125500D01*
X14192976Y-15115976D01*
X14345357Y-15296928D02*
X14354881Y-15306452D01*
X14345357Y-15315976D01*
X14335833Y-15306452D01*
X14345357Y-15296928D01*
X14345357Y-15315976D01*
X14478690Y-15115976D02*
X14497738Y-15115976D01*
X14516786Y-15125500D01*
X14526309Y-15135024D01*
X14535833Y-15154071D01*
X14545357Y-15192167D01*
X14545357Y-15239786D01*
X14535833Y-15277881D01*
X14526309Y-15296928D01*
X14516786Y-15306452D01*
X14497738Y-15315976D01*
X14478690Y-15315976D01*
X14459643Y-15306452D01*
X14450119Y-15296928D01*
X14440595Y-15277881D01*
X14431071Y-15239786D01*
X14431071Y-15192167D01*
X14440595Y-15154071D01*
X14450119Y-15135024D01*
X14459643Y-15125500D01*
X14478690Y-15115976D01*
X14735833Y-15315976D02*
X14621548Y-15315976D01*
X14678690Y-15315976D02*
X14678690Y-15115976D01*
X14659643Y-15144548D01*
X14640595Y-15163595D01*
X14621548Y-15173119D01*
X14916786Y-15115976D02*
X14821548Y-15115976D01*
X14812024Y-15211214D01*
X14821548Y-15201690D01*
X14840595Y-15192167D01*
X14888214Y-15192167D01*
X14907262Y-15201690D01*
X14916786Y-15211214D01*
X14926309Y-15230262D01*
X14926309Y-15277881D01*
X14916786Y-15296928D01*
X14907262Y-15306452D01*
X14888214Y-15315976D01*
X14840595Y-15315976D01*
X14821548Y-15306452D01*
X14812024Y-15296928D01*
X14992976Y-15115976D02*
X15126309Y-15115976D01*
X15040595Y-15315976D01*
X15192976Y-15115976D02*
X15192976Y-15154071D01*
X15269167Y-15115976D02*
X15269167Y-15154071D01*
X15564405Y-15392167D02*
X15554881Y-15382643D01*
X15535833Y-15354071D01*
X15526309Y-15335024D01*
X15516786Y-15306452D01*
X15507262Y-15258833D01*
X15507262Y-15220738D01*
X15516786Y-15173119D01*
X15526309Y-15144548D01*
X15535833Y-15125500D01*
X15554881Y-15096928D01*
X15564405Y-15087405D01*
X15621548Y-15115976D02*
X15754881Y-15115976D01*
X15669167Y-15315976D01*
X15983452Y-15315976D02*
X15983452Y-15115976D01*
X16069167Y-15315976D02*
X16069167Y-15211214D01*
X16059643Y-15192167D01*
X16040595Y-15182643D01*
X16012024Y-15182643D01*
X15992976Y-15192167D01*
X15983452Y-15201690D01*
X16192976Y-15315976D02*
X16173928Y-15306452D01*
X16164405Y-15296928D01*
X16154881Y-15277881D01*
X16154881Y-15220738D01*
X16164405Y-15201690D01*
X16173928Y-15192167D01*
X16192976Y-15182643D01*
X16221548Y-15182643D01*
X16240595Y-15192167D01*
X16250119Y-15201690D01*
X16259643Y-15220738D01*
X16259643Y-15277881D01*
X16250119Y-15296928D01*
X16240595Y-15306452D01*
X16221548Y-15315976D01*
X16192976Y-15315976D01*
X16373928Y-15315976D02*
X16354881Y-15306452D01*
X16345357Y-15287405D01*
X16345357Y-15115976D01*
X16526309Y-15306452D02*
X16507262Y-15315976D01*
X16469167Y-15315976D01*
X16450119Y-15306452D01*
X16440595Y-15287405D01*
X16440595Y-15211214D01*
X16450119Y-15192167D01*
X16469167Y-15182643D01*
X16507262Y-15182643D01*
X16526309Y-15192167D01*
X16535833Y-15211214D01*
X16535833Y-15230262D01*
X16440595Y-15249309D01*
X16612024Y-15306452D02*
X16631071Y-15315976D01*
X16669167Y-15315976D01*
X16688214Y-15306452D01*
X16697738Y-15287405D01*
X16697738Y-15277881D01*
X16688214Y-15258833D01*
X16669167Y-15249309D01*
X16640595Y-15249309D01*
X16621548Y-15239786D01*
X16612024Y-15220738D01*
X16612024Y-15211214D01*
X16621548Y-15192167D01*
X16640595Y-15182643D01*
X16669167Y-15182643D01*
X16688214Y-15192167D01*
X16764405Y-15392167D02*
X16773928Y-15382643D01*
X16792976Y-15354071D01*
X16802500Y-15335024D01*
X16812024Y-15306452D01*
X16821548Y-15258833D01*
X16821548Y-15220738D01*
X16812024Y-15173119D01*
X16802500Y-15144548D01*
X16792976Y-15125500D01*
X16773928Y-15096928D01*
X16764405Y-15087405D01*
D13*
X11992500Y-15489500D02*
G75*
G03*
X11992500Y-15489500I-40000J0D01*
G01*
D11*
X12288214Y-15379976D02*
X12307262Y-15379976D01*
X12326309Y-15389500D01*
X12335833Y-15399024D01*
X12345357Y-15418071D01*
X12354881Y-15456167D01*
X12354881Y-15503786D01*
X12345357Y-15541881D01*
X12335833Y-15560928D01*
X12326309Y-15570452D01*
X12307262Y-15579976D01*
X12288214Y-15579976D01*
X12269167Y-15570452D01*
X12259643Y-15560928D01*
X12250119Y-15541881D01*
X12240595Y-15503786D01*
X12240595Y-15456167D01*
X12250119Y-15418071D01*
X12259643Y-15399024D01*
X12269167Y-15389500D01*
X12288214Y-15379976D01*
X12440595Y-15560928D02*
X12450119Y-15570452D01*
X12440595Y-15579976D01*
X12431071Y-15570452D01*
X12440595Y-15560928D01*
X12440595Y-15579976D01*
X12564405Y-15465690D02*
X12545357Y-15456167D01*
X12535833Y-15446643D01*
X12526309Y-15427595D01*
X12526309Y-15418071D01*
X12535833Y-15399024D01*
X12545357Y-15389500D01*
X12564405Y-15379976D01*
X12602500Y-15379976D01*
X12621548Y-15389500D01*
X12631071Y-15399024D01*
X12640595Y-15418071D01*
X12640595Y-15427595D01*
X12631071Y-15446643D01*
X12621548Y-15456167D01*
X12602500Y-15465690D01*
X12564405Y-15465690D01*
X12545357Y-15475214D01*
X12535833Y-15484738D01*
X12526309Y-15503786D01*
X12526309Y-15541881D01*
X12535833Y-15560928D01*
X12545357Y-15570452D01*
X12564405Y-15579976D01*
X12602500Y-15579976D01*
X12621548Y-15570452D01*
X12631071Y-15560928D01*
X12640595Y-15541881D01*
X12640595Y-15503786D01*
X12631071Y-15484738D01*
X12621548Y-15475214D01*
X12602500Y-15465690D01*
X12764405Y-15379976D02*
X12783452Y-15379976D01*
X12802500Y-15389500D01*
X12812024Y-15399024D01*
X12821548Y-15418071D01*
X12831071Y-15456167D01*
X12831071Y-15503786D01*
X12821548Y-15541881D01*
X12812024Y-15560928D01*
X12802500Y-15570452D01*
X12783452Y-15579976D01*
X12764405Y-15579976D01*
X12745357Y-15570452D01*
X12735833Y-15560928D01*
X12726309Y-15541881D01*
X12716786Y-15503786D01*
X12716786Y-15456167D01*
X12726309Y-15418071D01*
X12735833Y-15399024D01*
X12745357Y-15389500D01*
X12764405Y-15379976D01*
X12954881Y-15379976D02*
X12973928Y-15379976D01*
X12992976Y-15389500D01*
X13002500Y-15399024D01*
X13012024Y-15418071D01*
X13021548Y-15456167D01*
X13021548Y-15503786D01*
X13012024Y-15541881D01*
X13002500Y-15560928D01*
X12992976Y-15570452D01*
X12973928Y-15579976D01*
X12954881Y-15579976D01*
X12935833Y-15570452D01*
X12926309Y-15560928D01*
X12916786Y-15541881D01*
X12907262Y-15503786D01*
X12907262Y-15456167D01*
X12916786Y-15418071D01*
X12926309Y-15399024D01*
X12935833Y-15389500D01*
X12954881Y-15379976D01*
X13107262Y-15579976D02*
X13107262Y-15446643D01*
X13107262Y-15465690D02*
X13116786Y-15456167D01*
X13135833Y-15446643D01*
X13164405Y-15446643D01*
X13183452Y-15456167D01*
X13192976Y-15475214D01*
X13192976Y-15579976D01*
X13192976Y-15475214D02*
X13202500Y-15456167D01*
X13221548Y-15446643D01*
X13250119Y-15446643D01*
X13269167Y-15456167D01*
X13278690Y-15475214D01*
X13278690Y-15579976D01*
X13373928Y-15579976D02*
X13373928Y-15446643D01*
X13373928Y-15465690D02*
X13383452Y-15456167D01*
X13402500Y-15446643D01*
X13431071Y-15446643D01*
X13450119Y-15456167D01*
X13459643Y-15475214D01*
X13459643Y-15579976D01*
X13459643Y-15475214D02*
X13469167Y-15456167D01*
X13488214Y-15446643D01*
X13516786Y-15446643D01*
X13535833Y-15456167D01*
X13545357Y-15475214D01*
X13545357Y-15579976D01*
X13935833Y-15370452D02*
X13764405Y-15627595D01*
X14192976Y-15379976D02*
X14212024Y-15379976D01*
X14231071Y-15389500D01*
X14240595Y-15399024D01*
X14250119Y-15418071D01*
X14259643Y-15456167D01*
X14259643Y-15503786D01*
X14250119Y-15541881D01*
X14240595Y-15560928D01*
X14231071Y-15570452D01*
X14212024Y-15579976D01*
X14192976Y-15579976D01*
X14173928Y-15570452D01*
X14164405Y-15560928D01*
X14154881Y-15541881D01*
X14145357Y-15503786D01*
X14145357Y-15456167D01*
X14154881Y-15418071D01*
X14164405Y-15399024D01*
X14173928Y-15389500D01*
X14192976Y-15379976D01*
X14345357Y-15560928D02*
X14354881Y-15570452D01*
X14345357Y-15579976D01*
X14335833Y-15570452D01*
X14345357Y-15560928D01*
X14345357Y-15579976D01*
X14478690Y-15379976D02*
X14497738Y-15379976D01*
X14516786Y-15389500D01*
X14526309Y-15399024D01*
X14535833Y-15418071D01*
X14545357Y-15456167D01*
X14545357Y-15503786D01*
X14535833Y-15541881D01*
X14526309Y-15560928D01*
X14516786Y-15570452D01*
X14497738Y-15579976D01*
X14478690Y-15579976D01*
X14459643Y-15570452D01*
X14450119Y-15560928D01*
X14440595Y-15541881D01*
X14431071Y-15503786D01*
X14431071Y-15456167D01*
X14440595Y-15418071D01*
X14450119Y-15399024D01*
X14459643Y-15389500D01*
X14478690Y-15379976D01*
X14612024Y-15379976D02*
X14735833Y-15379976D01*
X14669167Y-15456167D01*
X14697738Y-15456167D01*
X14716786Y-15465690D01*
X14726309Y-15475214D01*
X14735833Y-15494262D01*
X14735833Y-15541881D01*
X14726309Y-15560928D01*
X14716786Y-15570452D01*
X14697738Y-15579976D01*
X14640595Y-15579976D01*
X14621548Y-15570452D01*
X14612024Y-15560928D01*
X14926309Y-15579976D02*
X14812024Y-15579976D01*
X14869167Y-15579976D02*
X14869167Y-15379976D01*
X14850119Y-15408548D01*
X14831071Y-15427595D01*
X14812024Y-15437119D01*
X15107262Y-15379976D02*
X15012024Y-15379976D01*
X15002500Y-15475214D01*
X15012024Y-15465690D01*
X15031071Y-15456167D01*
X15078690Y-15456167D01*
X15097738Y-15465690D01*
X15107262Y-15475214D01*
X15116786Y-15494262D01*
X15116786Y-15541881D01*
X15107262Y-15560928D01*
X15097738Y-15570452D01*
X15078690Y-15579976D01*
X15031071Y-15579976D01*
X15012024Y-15570452D01*
X15002500Y-15560928D01*
X15192976Y-15379976D02*
X15192976Y-15418071D01*
X15269167Y-15379976D02*
X15269167Y-15418071D01*
X15564405Y-15656167D02*
X15554881Y-15646643D01*
X15535833Y-15618071D01*
X15526309Y-15599024D01*
X15516786Y-15570452D01*
X15507262Y-15522833D01*
X15507262Y-15484738D01*
X15516786Y-15437119D01*
X15526309Y-15408548D01*
X15535833Y-15389500D01*
X15554881Y-15360928D01*
X15564405Y-15351405D01*
X15726309Y-15446643D02*
X15726309Y-15579976D01*
X15678690Y-15370452D02*
X15631071Y-15513309D01*
X15754881Y-15513309D01*
X15983452Y-15579976D02*
X15983452Y-15379976D01*
X16069167Y-15579976D02*
X16069167Y-15475214D01*
X16059643Y-15456167D01*
X16040595Y-15446643D01*
X16012024Y-15446643D01*
X15992976Y-15456167D01*
X15983452Y-15465690D01*
X16192976Y-15579976D02*
X16173928Y-15570452D01*
X16164405Y-15560928D01*
X16154881Y-15541881D01*
X16154881Y-15484738D01*
X16164405Y-15465690D01*
X16173928Y-15456167D01*
X16192976Y-15446643D01*
X16221548Y-15446643D01*
X16240595Y-15456167D01*
X16250119Y-15465690D01*
X16259643Y-15484738D01*
X16259643Y-15541881D01*
X16250119Y-15560928D01*
X16240595Y-15570452D01*
X16221548Y-15579976D01*
X16192976Y-15579976D01*
X16373928Y-15579976D02*
X16354881Y-15570452D01*
X16345357Y-15551405D01*
X16345357Y-15379976D01*
X16526309Y-15570452D02*
X16507262Y-15579976D01*
X16469167Y-15579976D01*
X16450119Y-15570452D01*
X16440595Y-15551405D01*
X16440595Y-15475214D01*
X16450119Y-15456167D01*
X16469167Y-15446643D01*
X16507262Y-15446643D01*
X16526309Y-15456167D01*
X16535833Y-15475214D01*
X16535833Y-15494262D01*
X16440595Y-15513309D01*
X16612024Y-15570452D02*
X16631071Y-15579976D01*
X16669167Y-15579976D01*
X16688214Y-15570452D01*
X16697738Y-15551405D01*
X16697738Y-15541881D01*
X16688214Y-15522833D01*
X16669167Y-15513309D01*
X16640595Y-15513309D01*
X16621548Y-15503786D01*
X16612024Y-15484738D01*
X16612024Y-15475214D01*
X16621548Y-15456167D01*
X16640595Y-15446643D01*
X16669167Y-15446643D01*
X16688214Y-15456167D01*
X16764405Y-15656167D02*
X16773928Y-15646643D01*
X16792976Y-15618071D01*
X16802500Y-15599024D01*
X16812024Y-15570452D01*
X16821548Y-15522833D01*
X16821548Y-15484738D01*
X16812024Y-15437119D01*
X16802500Y-15408548D01*
X16792976Y-15389500D01*
X16773928Y-15360928D01*
X16764405Y-15351405D01*
D14*
X11948050Y-15709050D02*
X11948050Y-15797950D01*
X11903600Y-15753500D02*
X11992500Y-15753500D01*
D11*
X12288214Y-15643976D02*
X12307262Y-15643976D01*
X12326309Y-15653500D01*
X12335833Y-15663024D01*
X12345357Y-15682071D01*
X12354881Y-15720167D01*
X12354881Y-15767786D01*
X12345357Y-15805881D01*
X12335833Y-15824928D01*
X12326309Y-15834452D01*
X12307262Y-15843976D01*
X12288214Y-15843976D01*
X12269167Y-15834452D01*
X12259643Y-15824928D01*
X12250119Y-15805881D01*
X12240595Y-15767786D01*
X12240595Y-15720167D01*
X12250119Y-15682071D01*
X12259643Y-15663024D01*
X12269167Y-15653500D01*
X12288214Y-15643976D01*
X12440595Y-15824928D02*
X12450119Y-15834452D01*
X12440595Y-15843976D01*
X12431071Y-15834452D01*
X12440595Y-15824928D01*
X12440595Y-15843976D01*
X12564405Y-15729690D02*
X12545357Y-15720167D01*
X12535833Y-15710643D01*
X12526309Y-15691595D01*
X12526309Y-15682071D01*
X12535833Y-15663024D01*
X12545357Y-15653500D01*
X12564405Y-15643976D01*
X12602500Y-15643976D01*
X12621548Y-15653500D01*
X12631071Y-15663024D01*
X12640595Y-15682071D01*
X12640595Y-15691595D01*
X12631071Y-15710643D01*
X12621548Y-15720167D01*
X12602500Y-15729690D01*
X12564405Y-15729690D01*
X12545357Y-15739214D01*
X12535833Y-15748738D01*
X12526309Y-15767786D01*
X12526309Y-15805881D01*
X12535833Y-15824928D01*
X12545357Y-15834452D01*
X12564405Y-15843976D01*
X12602500Y-15843976D01*
X12621548Y-15834452D01*
X12631071Y-15824928D01*
X12640595Y-15805881D01*
X12640595Y-15767786D01*
X12631071Y-15748738D01*
X12621548Y-15739214D01*
X12602500Y-15729690D01*
X12754881Y-15729690D02*
X12735833Y-15720167D01*
X12726309Y-15710643D01*
X12716786Y-15691595D01*
X12716786Y-15682071D01*
X12726309Y-15663024D01*
X12735833Y-15653500D01*
X12754881Y-15643976D01*
X12792976Y-15643976D01*
X12812024Y-15653500D01*
X12821548Y-15663024D01*
X12831071Y-15682071D01*
X12831071Y-15691595D01*
X12821548Y-15710643D01*
X12812024Y-15720167D01*
X12792976Y-15729690D01*
X12754881Y-15729690D01*
X12735833Y-15739214D01*
X12726309Y-15748738D01*
X12716786Y-15767786D01*
X12716786Y-15805881D01*
X12726309Y-15824928D01*
X12735833Y-15834452D01*
X12754881Y-15843976D01*
X12792976Y-15843976D01*
X12812024Y-15834452D01*
X12821548Y-15824928D01*
X12831071Y-15805881D01*
X12831071Y-15767786D01*
X12821548Y-15748738D01*
X12812024Y-15739214D01*
X12792976Y-15729690D01*
X12926309Y-15843976D02*
X12964405Y-15843976D01*
X12983452Y-15834452D01*
X12992976Y-15824928D01*
X13012024Y-15796357D01*
X13021548Y-15758262D01*
X13021548Y-15682071D01*
X13012024Y-15663024D01*
X13002500Y-15653500D01*
X12983452Y-15643976D01*
X12945357Y-15643976D01*
X12926309Y-15653500D01*
X12916786Y-15663024D01*
X12907262Y-15682071D01*
X12907262Y-15729690D01*
X12916786Y-15748738D01*
X12926309Y-15758262D01*
X12945357Y-15767786D01*
X12983452Y-15767786D01*
X13002500Y-15758262D01*
X13012024Y-15748738D01*
X13021548Y-15729690D01*
X13107262Y-15843976D02*
X13107262Y-15710643D01*
X13107262Y-15729690D02*
X13116786Y-15720167D01*
X13135833Y-15710643D01*
X13164405Y-15710643D01*
X13183452Y-15720167D01*
X13192976Y-15739214D01*
X13192976Y-15843976D01*
X13192976Y-15739214D02*
X13202500Y-15720167D01*
X13221548Y-15710643D01*
X13250119Y-15710643D01*
X13269167Y-15720167D01*
X13278690Y-15739214D01*
X13278690Y-15843976D01*
X13373928Y-15843976D02*
X13373928Y-15710643D01*
X13373928Y-15729690D02*
X13383452Y-15720167D01*
X13402500Y-15710643D01*
X13431071Y-15710643D01*
X13450119Y-15720167D01*
X13459643Y-15739214D01*
X13459643Y-15843976D01*
X13459643Y-15739214D02*
X13469167Y-15720167D01*
X13488214Y-15710643D01*
X13516786Y-15710643D01*
X13535833Y-15720167D01*
X13545357Y-15739214D01*
X13545357Y-15843976D01*
X13935833Y-15634452D02*
X13764405Y-15891595D01*
X14192976Y-15643976D02*
X14212024Y-15643976D01*
X14231071Y-15653500D01*
X14240595Y-15663024D01*
X14250119Y-15682071D01*
X14259643Y-15720167D01*
X14259643Y-15767786D01*
X14250119Y-15805881D01*
X14240595Y-15824928D01*
X14231071Y-15834452D01*
X14212024Y-15843976D01*
X14192976Y-15843976D01*
X14173928Y-15834452D01*
X14164405Y-15824928D01*
X14154881Y-15805881D01*
X14145357Y-15767786D01*
X14145357Y-15720167D01*
X14154881Y-15682071D01*
X14164405Y-15663024D01*
X14173928Y-15653500D01*
X14192976Y-15643976D01*
X14345357Y-15824928D02*
X14354881Y-15834452D01*
X14345357Y-15843976D01*
X14335833Y-15834452D01*
X14345357Y-15824928D01*
X14345357Y-15843976D01*
X14478690Y-15643976D02*
X14497738Y-15643976D01*
X14516786Y-15653500D01*
X14526309Y-15663024D01*
X14535833Y-15682071D01*
X14545357Y-15720167D01*
X14545357Y-15767786D01*
X14535833Y-15805881D01*
X14526309Y-15824928D01*
X14516786Y-15834452D01*
X14497738Y-15843976D01*
X14478690Y-15843976D01*
X14459643Y-15834452D01*
X14450119Y-15824928D01*
X14440595Y-15805881D01*
X14431071Y-15767786D01*
X14431071Y-15720167D01*
X14440595Y-15682071D01*
X14450119Y-15663024D01*
X14459643Y-15653500D01*
X14478690Y-15643976D01*
X14612024Y-15643976D02*
X14735833Y-15643976D01*
X14669167Y-15720167D01*
X14697738Y-15720167D01*
X14716786Y-15729690D01*
X14726309Y-15739214D01*
X14735833Y-15758262D01*
X14735833Y-15805881D01*
X14726309Y-15824928D01*
X14716786Y-15834452D01*
X14697738Y-15843976D01*
X14640595Y-15843976D01*
X14621548Y-15834452D01*
X14612024Y-15824928D01*
X14916786Y-15643976D02*
X14821548Y-15643976D01*
X14812024Y-15739214D01*
X14821548Y-15729690D01*
X14840595Y-15720167D01*
X14888214Y-15720167D01*
X14907262Y-15729690D01*
X14916786Y-15739214D01*
X14926309Y-15758262D01*
X14926309Y-15805881D01*
X14916786Y-15824928D01*
X14907262Y-15834452D01*
X14888214Y-15843976D01*
X14840595Y-15843976D01*
X14821548Y-15834452D01*
X14812024Y-15824928D01*
X15050119Y-15643976D02*
X15069167Y-15643976D01*
X15088214Y-15653500D01*
X15097738Y-15663024D01*
X15107262Y-15682071D01*
X15116786Y-15720167D01*
X15116786Y-15767786D01*
X15107262Y-15805881D01*
X15097738Y-15824928D01*
X15088214Y-15834452D01*
X15069167Y-15843976D01*
X15050119Y-15843976D01*
X15031071Y-15834452D01*
X15021548Y-15824928D01*
X15012024Y-15805881D01*
X15002500Y-15767786D01*
X15002500Y-15720167D01*
X15012024Y-15682071D01*
X15021548Y-15663024D01*
X15031071Y-15653500D01*
X15050119Y-15643976D01*
X15192976Y-15643976D02*
X15192976Y-15682071D01*
X15269167Y-15643976D02*
X15269167Y-15682071D01*
X15564405Y-15920167D02*
X15554881Y-15910643D01*
X15535833Y-15882071D01*
X15526309Y-15863024D01*
X15516786Y-15834452D01*
X15507262Y-15786833D01*
X15507262Y-15748738D01*
X15516786Y-15701119D01*
X15526309Y-15672548D01*
X15535833Y-15653500D01*
X15554881Y-15624928D01*
X15564405Y-15615405D01*
X15745357Y-15843976D02*
X15631071Y-15843976D01*
X15688214Y-15843976D02*
X15688214Y-15643976D01*
X15669167Y-15672548D01*
X15650119Y-15691595D01*
X15631071Y-15701119D01*
X15916786Y-15643976D02*
X15878690Y-15643976D01*
X15859643Y-15653500D01*
X15850119Y-15663024D01*
X15831071Y-15691595D01*
X15821548Y-15729690D01*
X15821548Y-15805881D01*
X15831071Y-15824928D01*
X15840595Y-15834452D01*
X15859643Y-15843976D01*
X15897738Y-15843976D01*
X15916786Y-15834452D01*
X15926309Y-15824928D01*
X15935833Y-15805881D01*
X15935833Y-15758262D01*
X15926309Y-15739214D01*
X15916786Y-15729690D01*
X15897738Y-15720167D01*
X15859643Y-15720167D01*
X15840595Y-15729690D01*
X15831071Y-15739214D01*
X15821548Y-15758262D01*
X16173928Y-15843976D02*
X16173928Y-15643976D01*
X16259643Y-15843976D02*
X16259643Y-15739214D01*
X16250119Y-15720167D01*
X16231071Y-15710643D01*
X16202500Y-15710643D01*
X16183452Y-15720167D01*
X16173928Y-15729690D01*
X16383452Y-15843976D02*
X16364405Y-15834452D01*
X16354881Y-15824928D01*
X16345357Y-15805881D01*
X16345357Y-15748738D01*
X16354881Y-15729690D01*
X16364405Y-15720167D01*
X16383452Y-15710643D01*
X16412024Y-15710643D01*
X16431071Y-15720167D01*
X16440595Y-15729690D01*
X16450119Y-15748738D01*
X16450119Y-15805881D01*
X16440595Y-15824928D01*
X16431071Y-15834452D01*
X16412024Y-15843976D01*
X16383452Y-15843976D01*
X16564405Y-15843976D02*
X16545357Y-15834452D01*
X16535833Y-15815405D01*
X16535833Y-15643976D01*
X16716786Y-15834452D02*
X16697738Y-15843976D01*
X16659643Y-15843976D01*
X16640595Y-15834452D01*
X16631071Y-15815405D01*
X16631071Y-15739214D01*
X16640595Y-15720167D01*
X16659643Y-15710643D01*
X16697738Y-15710643D01*
X16716786Y-15720167D01*
X16726309Y-15739214D01*
X16726309Y-15758262D01*
X16631071Y-15777309D01*
X16802500Y-15834452D02*
X16821548Y-15843976D01*
X16859643Y-15843976D01*
X16878690Y-15834452D01*
X16888214Y-15815405D01*
X16888214Y-15805881D01*
X16878690Y-15786833D01*
X16859643Y-15777309D01*
X16831071Y-15777309D01*
X16812024Y-15767786D01*
X16802500Y-15748738D01*
X16802500Y-15739214D01*
X16812024Y-15720167D01*
X16831071Y-15710643D01*
X16859643Y-15710643D01*
X16878690Y-15720167D01*
X16954881Y-15920167D02*
X16964405Y-15910643D01*
X16983452Y-15882071D01*
X16992976Y-15863024D01*
X17002500Y-15834452D01*
X17012024Y-15786833D01*
X17012024Y-15748738D01*
X17002500Y-15701119D01*
X16992976Y-15672548D01*
X16983452Y-15653500D01*
X16964405Y-15624928D01*
X16954881Y-15615405D01*
D15*
X11978588Y-16051088D02*
X11978588Y-15983912D01*
X11911412Y-15983912D01*
X11911412Y-16051088D01*
X11978588Y-16051088D01*
D11*
X12288214Y-15907976D02*
X12307262Y-15907976D01*
X12326309Y-15917500D01*
X12335833Y-15927024D01*
X12345357Y-15946071D01*
X12354881Y-15984167D01*
X12354881Y-16031786D01*
X12345357Y-16069881D01*
X12335833Y-16088928D01*
X12326309Y-16098452D01*
X12307262Y-16107976D01*
X12288214Y-16107976D01*
X12269167Y-16098452D01*
X12259643Y-16088928D01*
X12250119Y-16069881D01*
X12240595Y-16031786D01*
X12240595Y-15984167D01*
X12250119Y-15946071D01*
X12259643Y-15927024D01*
X12269167Y-15917500D01*
X12288214Y-15907976D01*
X12440595Y-16088928D02*
X12450119Y-16098452D01*
X12440595Y-16107976D01*
X12431071Y-16098452D01*
X12440595Y-16088928D01*
X12440595Y-16107976D01*
X12545357Y-16107976D02*
X12583452Y-16107976D01*
X12602500Y-16098452D01*
X12612024Y-16088928D01*
X12631071Y-16060357D01*
X12640595Y-16022262D01*
X12640595Y-15946071D01*
X12631071Y-15927024D01*
X12621548Y-15917500D01*
X12602500Y-15907976D01*
X12564405Y-15907976D01*
X12545357Y-15917500D01*
X12535833Y-15927024D01*
X12526309Y-15946071D01*
X12526309Y-15993690D01*
X12535833Y-16012738D01*
X12545357Y-16022262D01*
X12564405Y-16031786D01*
X12602500Y-16031786D01*
X12621548Y-16022262D01*
X12631071Y-16012738D01*
X12640595Y-15993690D01*
X12821548Y-15907976D02*
X12726309Y-15907976D01*
X12716786Y-16003214D01*
X12726309Y-15993690D01*
X12745357Y-15984167D01*
X12792976Y-15984167D01*
X12812024Y-15993690D01*
X12821548Y-16003214D01*
X12831071Y-16022262D01*
X12831071Y-16069881D01*
X12821548Y-16088928D01*
X12812024Y-16098452D01*
X12792976Y-16107976D01*
X12745357Y-16107976D01*
X12726309Y-16098452D01*
X12716786Y-16088928D01*
X12954881Y-15907976D02*
X12973928Y-15907976D01*
X12992976Y-15917500D01*
X13002500Y-15927024D01*
X13012024Y-15946071D01*
X13021548Y-15984167D01*
X13021548Y-16031786D01*
X13012024Y-16069881D01*
X13002500Y-16088928D01*
X12992976Y-16098452D01*
X12973928Y-16107976D01*
X12954881Y-16107976D01*
X12935833Y-16098452D01*
X12926309Y-16088928D01*
X12916786Y-16069881D01*
X12907262Y-16031786D01*
X12907262Y-15984167D01*
X12916786Y-15946071D01*
X12926309Y-15927024D01*
X12935833Y-15917500D01*
X12954881Y-15907976D01*
X13107262Y-16107976D02*
X13107262Y-15974643D01*
X13107262Y-15993690D02*
X13116786Y-15984167D01*
X13135833Y-15974643D01*
X13164405Y-15974643D01*
X13183452Y-15984167D01*
X13192976Y-16003214D01*
X13192976Y-16107976D01*
X13192976Y-16003214D02*
X13202500Y-15984167D01*
X13221548Y-15974643D01*
X13250119Y-15974643D01*
X13269167Y-15984167D01*
X13278690Y-16003214D01*
X13278690Y-16107976D01*
X13373928Y-16107976D02*
X13373928Y-15974643D01*
X13373928Y-15993690D02*
X13383452Y-15984167D01*
X13402500Y-15974643D01*
X13431071Y-15974643D01*
X13450119Y-15984167D01*
X13459643Y-16003214D01*
X13459643Y-16107976D01*
X13459643Y-16003214D02*
X13469167Y-15984167D01*
X13488214Y-15974643D01*
X13516786Y-15974643D01*
X13535833Y-15984167D01*
X13545357Y-16003214D01*
X13545357Y-16107976D01*
X13935833Y-15898452D02*
X13764405Y-16155595D01*
X14192976Y-15907976D02*
X14212024Y-15907976D01*
X14231071Y-15917500D01*
X14240595Y-15927024D01*
X14250119Y-15946071D01*
X14259643Y-15984167D01*
X14259643Y-16031786D01*
X14250119Y-16069881D01*
X14240595Y-16088928D01*
X14231071Y-16098452D01*
X14212024Y-16107976D01*
X14192976Y-16107976D01*
X14173928Y-16098452D01*
X14164405Y-16088928D01*
X14154881Y-16069881D01*
X14145357Y-16031786D01*
X14145357Y-15984167D01*
X14154881Y-15946071D01*
X14164405Y-15927024D01*
X14173928Y-15917500D01*
X14192976Y-15907976D01*
X14345357Y-16088928D02*
X14354881Y-16098452D01*
X14345357Y-16107976D01*
X14335833Y-16098452D01*
X14345357Y-16088928D01*
X14345357Y-16107976D01*
X14478690Y-15907976D02*
X14497738Y-15907976D01*
X14516786Y-15917500D01*
X14526309Y-15927024D01*
X14535833Y-15946071D01*
X14545357Y-15984167D01*
X14545357Y-16031786D01*
X14535833Y-16069881D01*
X14526309Y-16088928D01*
X14516786Y-16098452D01*
X14497738Y-16107976D01*
X14478690Y-16107976D01*
X14459643Y-16098452D01*
X14450119Y-16088928D01*
X14440595Y-16069881D01*
X14431071Y-16031786D01*
X14431071Y-15984167D01*
X14440595Y-15946071D01*
X14450119Y-15927024D01*
X14459643Y-15917500D01*
X14478690Y-15907976D01*
X14612024Y-15907976D02*
X14735833Y-15907976D01*
X14669167Y-15984167D01*
X14697738Y-15984167D01*
X14716786Y-15993690D01*
X14726309Y-16003214D01*
X14735833Y-16022262D01*
X14735833Y-16069881D01*
X14726309Y-16088928D01*
X14716786Y-16098452D01*
X14697738Y-16107976D01*
X14640595Y-16107976D01*
X14621548Y-16098452D01*
X14612024Y-16088928D01*
X14802500Y-15907976D02*
X14935833Y-15907976D01*
X14850119Y-16107976D01*
X15097738Y-15974643D02*
X15097738Y-16107976D01*
X15050119Y-15898452D02*
X15002500Y-16041309D01*
X15126309Y-16041309D01*
X15192976Y-15907976D02*
X15192976Y-15946071D01*
X15269167Y-15907976D02*
X15269167Y-15946071D01*
X15564405Y-16184167D02*
X15554881Y-16174643D01*
X15535833Y-16146071D01*
X15526309Y-16127024D01*
X15516786Y-16098452D01*
X15507262Y-16050833D01*
X15507262Y-16012738D01*
X15516786Y-15965119D01*
X15526309Y-15936548D01*
X15535833Y-15917500D01*
X15554881Y-15888928D01*
X15564405Y-15879405D01*
X15621548Y-15907976D02*
X15745357Y-15907976D01*
X15678690Y-15984167D01*
X15707262Y-15984167D01*
X15726309Y-15993690D01*
X15735833Y-16003214D01*
X15745357Y-16022262D01*
X15745357Y-16069881D01*
X15735833Y-16088928D01*
X15726309Y-16098452D01*
X15707262Y-16107976D01*
X15650119Y-16107976D01*
X15631071Y-16098452D01*
X15621548Y-16088928D01*
X15926309Y-15907976D02*
X15831071Y-15907976D01*
X15821548Y-16003214D01*
X15831071Y-15993690D01*
X15850119Y-15984167D01*
X15897738Y-15984167D01*
X15916786Y-15993690D01*
X15926309Y-16003214D01*
X15935833Y-16022262D01*
X15935833Y-16069881D01*
X15926309Y-16088928D01*
X15916786Y-16098452D01*
X15897738Y-16107976D01*
X15850119Y-16107976D01*
X15831071Y-16098452D01*
X15821548Y-16088928D01*
X16173928Y-16107976D02*
X16173928Y-15907976D01*
X16259643Y-16107976D02*
X16259643Y-16003214D01*
X16250119Y-15984167D01*
X16231071Y-15974643D01*
X16202500Y-15974643D01*
X16183452Y-15984167D01*
X16173928Y-15993690D01*
X16383452Y-16107976D02*
X16364405Y-16098452D01*
X16354881Y-16088928D01*
X16345357Y-16069881D01*
X16345357Y-16012738D01*
X16354881Y-15993690D01*
X16364405Y-15984167D01*
X16383452Y-15974643D01*
X16412024Y-15974643D01*
X16431071Y-15984167D01*
X16440595Y-15993690D01*
X16450119Y-16012738D01*
X16450119Y-16069881D01*
X16440595Y-16088928D01*
X16431071Y-16098452D01*
X16412024Y-16107976D01*
X16383452Y-16107976D01*
X16564405Y-16107976D02*
X16545357Y-16098452D01*
X16535833Y-16079405D01*
X16535833Y-15907976D01*
X16716786Y-16098452D02*
X16697738Y-16107976D01*
X16659643Y-16107976D01*
X16640595Y-16098452D01*
X16631071Y-16079405D01*
X16631071Y-16003214D01*
X16640595Y-15984167D01*
X16659643Y-15974643D01*
X16697738Y-15974643D01*
X16716786Y-15984167D01*
X16726309Y-16003214D01*
X16726309Y-16022262D01*
X16631071Y-16041309D01*
X16802500Y-16098452D02*
X16821548Y-16107976D01*
X16859643Y-16107976D01*
X16878690Y-16098452D01*
X16888214Y-16079405D01*
X16888214Y-16069881D01*
X16878690Y-16050833D01*
X16859643Y-16041309D01*
X16831071Y-16041309D01*
X16812024Y-16031786D01*
X16802500Y-16012738D01*
X16802500Y-16003214D01*
X16812024Y-15984167D01*
X16831071Y-15974643D01*
X16859643Y-15974643D01*
X16878690Y-15984167D01*
X16954881Y-16184167D02*
X16964405Y-16174643D01*
X16983452Y-16146071D01*
X16992976Y-16127024D01*
X17002500Y-16098452D01*
X17012024Y-16050833D01*
X17012024Y-16012738D01*
X17002500Y-15965119D01*
X16992976Y-15936548D01*
X16983452Y-15917500D01*
X16964405Y-15888928D01*
X16954881Y-15879405D01*
D16*
X11942500Y-16331500D02*
X11992500Y-16281500D01*
X11942500Y-16231500D01*
X11892500Y-16281500D01*
X11942500Y-16331500D01*
D11*
X12354881Y-16371976D02*
X12240595Y-16371976D01*
X12297738Y-16371976D02*
X12297738Y-16171976D01*
X12278690Y-16200548D01*
X12259643Y-16219595D01*
X12240595Y-16229119D01*
X12440595Y-16352928D02*
X12450119Y-16362452D01*
X12440595Y-16371976D01*
X12431071Y-16362452D01*
X12440595Y-16352928D01*
X12440595Y-16371976D01*
X12573928Y-16171976D02*
X12592976Y-16171976D01*
X12612024Y-16181500D01*
X12621548Y-16191024D01*
X12631071Y-16210071D01*
X12640595Y-16248167D01*
X12640595Y-16295786D01*
X12631071Y-16333881D01*
X12621548Y-16352928D01*
X12612024Y-16362452D01*
X12592976Y-16371976D01*
X12573928Y-16371976D01*
X12554881Y-16362452D01*
X12545357Y-16352928D01*
X12535833Y-16333881D01*
X12526309Y-16295786D01*
X12526309Y-16248167D01*
X12535833Y-16210071D01*
X12545357Y-16191024D01*
X12554881Y-16181500D01*
X12573928Y-16171976D01*
X12764405Y-16171976D02*
X12783452Y-16171976D01*
X12802500Y-16181500D01*
X12812024Y-16191024D01*
X12821548Y-16210071D01*
X12831071Y-16248167D01*
X12831071Y-16295786D01*
X12821548Y-16333881D01*
X12812024Y-16352928D01*
X12802500Y-16362452D01*
X12783452Y-16371976D01*
X12764405Y-16371976D01*
X12745357Y-16362452D01*
X12735833Y-16352928D01*
X12726309Y-16333881D01*
X12716786Y-16295786D01*
X12716786Y-16248167D01*
X12726309Y-16210071D01*
X12735833Y-16191024D01*
X12745357Y-16181500D01*
X12764405Y-16171976D01*
X12954881Y-16171976D02*
X12973928Y-16171976D01*
X12992976Y-16181500D01*
X13002500Y-16191024D01*
X13012024Y-16210071D01*
X13021548Y-16248167D01*
X13021548Y-16295786D01*
X13012024Y-16333881D01*
X13002500Y-16352928D01*
X12992976Y-16362452D01*
X12973928Y-16371976D01*
X12954881Y-16371976D01*
X12935833Y-16362452D01*
X12926309Y-16352928D01*
X12916786Y-16333881D01*
X12907262Y-16295786D01*
X12907262Y-16248167D01*
X12916786Y-16210071D01*
X12926309Y-16191024D01*
X12935833Y-16181500D01*
X12954881Y-16171976D01*
X13107262Y-16371976D02*
X13107262Y-16238643D01*
X13107262Y-16257690D02*
X13116786Y-16248167D01*
X13135833Y-16238643D01*
X13164405Y-16238643D01*
X13183452Y-16248167D01*
X13192976Y-16267214D01*
X13192976Y-16371976D01*
X13192976Y-16267214D02*
X13202500Y-16248167D01*
X13221548Y-16238643D01*
X13250119Y-16238643D01*
X13269167Y-16248167D01*
X13278690Y-16267214D01*
X13278690Y-16371976D01*
X13373928Y-16371976D02*
X13373928Y-16238643D01*
X13373928Y-16257690D02*
X13383452Y-16248167D01*
X13402500Y-16238643D01*
X13431071Y-16238643D01*
X13450119Y-16248167D01*
X13459643Y-16267214D01*
X13459643Y-16371976D01*
X13459643Y-16267214D02*
X13469167Y-16248167D01*
X13488214Y-16238643D01*
X13516786Y-16238643D01*
X13535833Y-16248167D01*
X13545357Y-16267214D01*
X13545357Y-16371976D01*
X13935833Y-16162452D02*
X13764405Y-16419595D01*
X14192976Y-16171976D02*
X14212024Y-16171976D01*
X14231071Y-16181500D01*
X14240595Y-16191024D01*
X14250119Y-16210071D01*
X14259643Y-16248167D01*
X14259643Y-16295786D01*
X14250119Y-16333881D01*
X14240595Y-16352928D01*
X14231071Y-16362452D01*
X14212024Y-16371976D01*
X14192976Y-16371976D01*
X14173928Y-16362452D01*
X14164405Y-16352928D01*
X14154881Y-16333881D01*
X14145357Y-16295786D01*
X14145357Y-16248167D01*
X14154881Y-16210071D01*
X14164405Y-16191024D01*
X14173928Y-16181500D01*
X14192976Y-16171976D01*
X14345357Y-16352928D02*
X14354881Y-16362452D01*
X14345357Y-16371976D01*
X14335833Y-16362452D01*
X14345357Y-16352928D01*
X14345357Y-16371976D01*
X14478690Y-16171976D02*
X14497738Y-16171976D01*
X14516786Y-16181500D01*
X14526309Y-16191024D01*
X14535833Y-16210071D01*
X14545357Y-16248167D01*
X14545357Y-16295786D01*
X14535833Y-16333881D01*
X14526309Y-16352928D01*
X14516786Y-16362452D01*
X14497738Y-16371976D01*
X14478690Y-16371976D01*
X14459643Y-16362452D01*
X14450119Y-16352928D01*
X14440595Y-16333881D01*
X14431071Y-16295786D01*
X14431071Y-16248167D01*
X14440595Y-16210071D01*
X14450119Y-16191024D01*
X14459643Y-16181500D01*
X14478690Y-16171976D01*
X14612024Y-16171976D02*
X14735833Y-16171976D01*
X14669167Y-16248167D01*
X14697738Y-16248167D01*
X14716786Y-16257690D01*
X14726309Y-16267214D01*
X14735833Y-16286262D01*
X14735833Y-16333881D01*
X14726309Y-16352928D01*
X14716786Y-16362452D01*
X14697738Y-16371976D01*
X14640595Y-16371976D01*
X14621548Y-16362452D01*
X14612024Y-16352928D01*
X14831071Y-16371976D02*
X14869167Y-16371976D01*
X14888214Y-16362452D01*
X14897738Y-16352928D01*
X14916786Y-16324357D01*
X14926309Y-16286262D01*
X14926309Y-16210071D01*
X14916786Y-16191024D01*
X14907262Y-16181500D01*
X14888214Y-16171976D01*
X14850119Y-16171976D01*
X14831071Y-16181500D01*
X14821548Y-16191024D01*
X14812024Y-16210071D01*
X14812024Y-16257690D01*
X14821548Y-16276738D01*
X14831071Y-16286262D01*
X14850119Y-16295786D01*
X14888214Y-16295786D01*
X14907262Y-16286262D01*
X14916786Y-16276738D01*
X14926309Y-16257690D01*
X15097738Y-16238643D02*
X15097738Y-16371976D01*
X15050119Y-16162452D02*
X15002500Y-16305309D01*
X15126309Y-16305309D01*
X15192976Y-16171976D02*
X15192976Y-16210071D01*
X15269167Y-16171976D02*
X15269167Y-16210071D01*
X15564405Y-16448167D02*
X15554881Y-16438643D01*
X15535833Y-16410071D01*
X15526309Y-16391024D01*
X15516786Y-16362452D01*
X15507262Y-16314833D01*
X15507262Y-16276738D01*
X15516786Y-16229119D01*
X15526309Y-16200548D01*
X15535833Y-16181500D01*
X15554881Y-16152928D01*
X15564405Y-16143405D01*
X15745357Y-16371976D02*
X15631071Y-16371976D01*
X15688214Y-16371976D02*
X15688214Y-16171976D01*
X15669167Y-16200548D01*
X15650119Y-16219595D01*
X15631071Y-16229119D01*
X15821548Y-16191024D02*
X15831071Y-16181500D01*
X15850119Y-16171976D01*
X15897738Y-16171976D01*
X15916786Y-16181500D01*
X15926309Y-16191024D01*
X15935833Y-16210071D01*
X15935833Y-16229119D01*
X15926309Y-16257690D01*
X15812024Y-16371976D01*
X15935833Y-16371976D01*
X16173928Y-16371976D02*
X16173928Y-16171976D01*
X16259643Y-16371976D02*
X16259643Y-16267214D01*
X16250119Y-16248167D01*
X16231071Y-16238643D01*
X16202500Y-16238643D01*
X16183452Y-16248167D01*
X16173928Y-16257690D01*
X16383452Y-16371976D02*
X16364405Y-16362452D01*
X16354881Y-16352928D01*
X16345357Y-16333881D01*
X16345357Y-16276738D01*
X16354881Y-16257690D01*
X16364405Y-16248167D01*
X16383452Y-16238643D01*
X16412024Y-16238643D01*
X16431071Y-16248167D01*
X16440595Y-16257690D01*
X16450119Y-16276738D01*
X16450119Y-16333881D01*
X16440595Y-16352928D01*
X16431071Y-16362452D01*
X16412024Y-16371976D01*
X16383452Y-16371976D01*
X16564405Y-16371976D02*
X16545357Y-16362452D01*
X16535833Y-16343405D01*
X16535833Y-16171976D01*
X16716786Y-16362452D02*
X16697738Y-16371976D01*
X16659643Y-16371976D01*
X16640595Y-16362452D01*
X16631071Y-16343405D01*
X16631071Y-16267214D01*
X16640595Y-16248167D01*
X16659643Y-16238643D01*
X16697738Y-16238643D01*
X16716786Y-16248167D01*
X16726309Y-16267214D01*
X16726309Y-16286262D01*
X16631071Y-16305309D01*
X16802500Y-16362452D02*
X16821548Y-16371976D01*
X16859643Y-16371976D01*
X16878690Y-16362452D01*
X16888214Y-16343405D01*
X16888214Y-16333881D01*
X16878690Y-16314833D01*
X16859643Y-16305309D01*
X16831071Y-16305309D01*
X16812024Y-16295786D01*
X16802500Y-16276738D01*
X16802500Y-16267214D01*
X16812024Y-16248167D01*
X16831071Y-16238643D01*
X16859643Y-16238643D01*
X16878690Y-16248167D01*
X16954881Y-16448167D02*
X16964405Y-16438643D01*
X16983452Y-16410071D01*
X16992976Y-16391024D01*
X17002500Y-16362452D01*
X17012024Y-16314833D01*
X17012024Y-16276738D01*
X17002500Y-16229119D01*
X16992976Y-16200548D01*
X16983452Y-16181500D01*
X16964405Y-16152928D01*
X16954881Y-16143405D01*
D17*
X11890500Y-16494500D02*
X11992500Y-16596500D01*
X11992500Y-16494500D02*
X11890500Y-16596500D01*
X11992500Y-16545500D02*
G75*
G03*
X11992500Y-16545500I-51000J0D01*
G01*
D11*
X12354881Y-16635976D02*
X12240595Y-16635976D01*
X12297738Y-16635976D02*
X12297738Y-16435976D01*
X12278690Y-16464548D01*
X12259643Y-16483595D01*
X12240595Y-16493119D01*
X12440595Y-16616928D02*
X12450119Y-16626452D01*
X12440595Y-16635976D01*
X12431071Y-16626452D01*
X12440595Y-16616928D01*
X12440595Y-16635976D01*
X12573928Y-16435976D02*
X12592976Y-16435976D01*
X12612024Y-16445500D01*
X12621548Y-16455024D01*
X12631071Y-16474071D01*
X12640595Y-16512167D01*
X12640595Y-16559786D01*
X12631071Y-16597881D01*
X12621548Y-16616928D01*
X12612024Y-16626452D01*
X12592976Y-16635976D01*
X12573928Y-16635976D01*
X12554881Y-16626452D01*
X12545357Y-16616928D01*
X12535833Y-16597881D01*
X12526309Y-16559786D01*
X12526309Y-16512167D01*
X12535833Y-16474071D01*
X12545357Y-16455024D01*
X12554881Y-16445500D01*
X12573928Y-16435976D01*
X12716786Y-16455024D02*
X12726309Y-16445500D01*
X12745357Y-16435976D01*
X12792976Y-16435976D01*
X12812024Y-16445500D01*
X12821548Y-16455024D01*
X12831071Y-16474071D01*
X12831071Y-16493119D01*
X12821548Y-16521690D01*
X12707262Y-16635976D01*
X12831071Y-16635976D01*
X12954881Y-16435976D02*
X12973928Y-16435976D01*
X12992976Y-16445500D01*
X13002500Y-16455024D01*
X13012024Y-16474071D01*
X13021548Y-16512167D01*
X13021548Y-16559786D01*
X13012024Y-16597881D01*
X13002500Y-16616928D01*
X12992976Y-16626452D01*
X12973928Y-16635976D01*
X12954881Y-16635976D01*
X12935833Y-16626452D01*
X12926309Y-16616928D01*
X12916786Y-16597881D01*
X12907262Y-16559786D01*
X12907262Y-16512167D01*
X12916786Y-16474071D01*
X12926309Y-16455024D01*
X12935833Y-16445500D01*
X12954881Y-16435976D01*
X13107262Y-16635976D02*
X13107262Y-16502643D01*
X13107262Y-16521690D02*
X13116786Y-16512167D01*
X13135833Y-16502643D01*
X13164405Y-16502643D01*
X13183452Y-16512167D01*
X13192976Y-16531214D01*
X13192976Y-16635976D01*
X13192976Y-16531214D02*
X13202500Y-16512167D01*
X13221548Y-16502643D01*
X13250119Y-16502643D01*
X13269167Y-16512167D01*
X13278690Y-16531214D01*
X13278690Y-16635976D01*
X13373928Y-16635976D02*
X13373928Y-16502643D01*
X13373928Y-16521690D02*
X13383452Y-16512167D01*
X13402500Y-16502643D01*
X13431071Y-16502643D01*
X13450119Y-16512167D01*
X13459643Y-16531214D01*
X13459643Y-16635976D01*
X13459643Y-16531214D02*
X13469167Y-16512167D01*
X13488214Y-16502643D01*
X13516786Y-16502643D01*
X13535833Y-16512167D01*
X13545357Y-16531214D01*
X13545357Y-16635976D01*
X13935833Y-16426452D02*
X13764405Y-16683595D01*
X14192976Y-16435976D02*
X14212024Y-16435976D01*
X14231071Y-16445500D01*
X14240595Y-16455024D01*
X14250119Y-16474071D01*
X14259643Y-16512167D01*
X14259643Y-16559786D01*
X14250119Y-16597881D01*
X14240595Y-16616928D01*
X14231071Y-16626452D01*
X14212024Y-16635976D01*
X14192976Y-16635976D01*
X14173928Y-16626452D01*
X14164405Y-16616928D01*
X14154881Y-16597881D01*
X14145357Y-16559786D01*
X14145357Y-16512167D01*
X14154881Y-16474071D01*
X14164405Y-16455024D01*
X14173928Y-16445500D01*
X14192976Y-16435976D01*
X14345357Y-16616928D02*
X14354881Y-16626452D01*
X14345357Y-16635976D01*
X14335833Y-16626452D01*
X14345357Y-16616928D01*
X14345357Y-16635976D01*
X14478690Y-16435976D02*
X14497738Y-16435976D01*
X14516786Y-16445500D01*
X14526309Y-16455024D01*
X14535833Y-16474071D01*
X14545357Y-16512167D01*
X14545357Y-16559786D01*
X14535833Y-16597881D01*
X14526309Y-16616928D01*
X14516786Y-16626452D01*
X14497738Y-16635976D01*
X14478690Y-16635976D01*
X14459643Y-16626452D01*
X14450119Y-16616928D01*
X14440595Y-16597881D01*
X14431071Y-16559786D01*
X14431071Y-16512167D01*
X14440595Y-16474071D01*
X14450119Y-16455024D01*
X14459643Y-16445500D01*
X14478690Y-16435976D01*
X14716786Y-16502643D02*
X14716786Y-16635976D01*
X14669167Y-16426452D02*
X14621548Y-16569309D01*
X14745357Y-16569309D01*
X14859643Y-16435976D02*
X14878690Y-16435976D01*
X14897738Y-16445500D01*
X14907262Y-16455024D01*
X14916786Y-16474071D01*
X14926309Y-16512167D01*
X14926309Y-16559786D01*
X14916786Y-16597881D01*
X14907262Y-16616928D01*
X14897738Y-16626452D01*
X14878690Y-16635976D01*
X14859643Y-16635976D01*
X14840595Y-16626452D01*
X14831071Y-16616928D01*
X14821548Y-16597881D01*
X14812024Y-16559786D01*
X14812024Y-16512167D01*
X14821548Y-16474071D01*
X14831071Y-16455024D01*
X14840595Y-16445500D01*
X14859643Y-16435976D01*
X15002500Y-16455024D02*
X15012024Y-16445500D01*
X15031071Y-16435976D01*
X15078690Y-16435976D01*
X15097738Y-16445500D01*
X15107262Y-16455024D01*
X15116786Y-16474071D01*
X15116786Y-16493119D01*
X15107262Y-16521690D01*
X14992976Y-16635976D01*
X15116786Y-16635976D01*
X15192976Y-16435976D02*
X15192976Y-16474071D01*
X15269167Y-16435976D02*
X15269167Y-16474071D01*
X15564405Y-16712167D02*
X15554881Y-16702643D01*
X15535833Y-16674071D01*
X15526309Y-16655024D01*
X15516786Y-16626452D01*
X15507262Y-16578833D01*
X15507262Y-16540738D01*
X15516786Y-16493119D01*
X15526309Y-16464548D01*
X15535833Y-16445500D01*
X15554881Y-16416928D01*
X15564405Y-16407405D01*
X15621548Y-16435976D02*
X15745357Y-16435976D01*
X15678690Y-16512167D01*
X15707262Y-16512167D01*
X15726309Y-16521690D01*
X15735833Y-16531214D01*
X15745357Y-16550262D01*
X15745357Y-16597881D01*
X15735833Y-16616928D01*
X15726309Y-16626452D01*
X15707262Y-16635976D01*
X15650119Y-16635976D01*
X15631071Y-16626452D01*
X15621548Y-16616928D01*
X15869167Y-16435976D02*
X15888214Y-16435976D01*
X15907262Y-16445500D01*
X15916786Y-16455024D01*
X15926309Y-16474071D01*
X15935833Y-16512167D01*
X15935833Y-16559786D01*
X15926309Y-16597881D01*
X15916786Y-16616928D01*
X15907262Y-16626452D01*
X15888214Y-16635976D01*
X15869167Y-16635976D01*
X15850119Y-16626452D01*
X15840595Y-16616928D01*
X15831071Y-16597881D01*
X15821548Y-16559786D01*
X15821548Y-16512167D01*
X15831071Y-16474071D01*
X15840595Y-16455024D01*
X15850119Y-16445500D01*
X15869167Y-16435976D01*
X16173928Y-16635976D02*
X16173928Y-16435976D01*
X16259643Y-16635976D02*
X16259643Y-16531214D01*
X16250119Y-16512167D01*
X16231071Y-16502643D01*
X16202500Y-16502643D01*
X16183452Y-16512167D01*
X16173928Y-16521690D01*
X16383452Y-16635976D02*
X16364405Y-16626452D01*
X16354881Y-16616928D01*
X16345357Y-16597881D01*
X16345357Y-16540738D01*
X16354881Y-16521690D01*
X16364405Y-16512167D01*
X16383452Y-16502643D01*
X16412024Y-16502643D01*
X16431071Y-16512167D01*
X16440595Y-16521690D01*
X16450119Y-16540738D01*
X16450119Y-16597881D01*
X16440595Y-16616928D01*
X16431071Y-16626452D01*
X16412024Y-16635976D01*
X16383452Y-16635976D01*
X16564405Y-16635976D02*
X16545357Y-16626452D01*
X16535833Y-16607405D01*
X16535833Y-16435976D01*
X16716786Y-16626452D02*
X16697738Y-16635976D01*
X16659643Y-16635976D01*
X16640595Y-16626452D01*
X16631071Y-16607405D01*
X16631071Y-16531214D01*
X16640595Y-16512167D01*
X16659643Y-16502643D01*
X16697738Y-16502643D01*
X16716786Y-16512167D01*
X16726309Y-16531214D01*
X16726309Y-16550262D01*
X16631071Y-16569309D01*
X16802500Y-16626452D02*
X16821548Y-16635976D01*
X16859643Y-16635976D01*
X16878690Y-16626452D01*
X16888214Y-16607405D01*
X16888214Y-16597881D01*
X16878690Y-16578833D01*
X16859643Y-16569309D01*
X16831071Y-16569309D01*
X16812024Y-16559786D01*
X16802500Y-16540738D01*
X16802500Y-16531214D01*
X16812024Y-16512167D01*
X16831071Y-16502643D01*
X16859643Y-16502643D01*
X16878690Y-16512167D01*
X16954881Y-16712167D02*
X16964405Y-16702643D01*
X16983452Y-16674071D01*
X16992976Y-16655024D01*
X17002500Y-16626452D01*
X17012024Y-16578833D01*
X17012024Y-16540738D01*
X17002500Y-16493119D01*
X16992976Y-16464548D01*
X16983452Y-16445500D01*
X16964405Y-16416928D01*
X16954881Y-16407405D01*
D18*
X11840500Y-16733500D02*
X11992500Y-16885500D01*
X11992500Y-16733500D02*
X11840500Y-16885500D01*
X11916500Y-16733500D02*
X11916500Y-16885500D01*
X11840500Y-16809500D02*
X11992500Y-16809500D01*
D11*
X12354881Y-16899976D02*
X12240595Y-16899976D01*
X12297738Y-16899976D02*
X12297738Y-16699976D01*
X12278690Y-16728548D01*
X12259643Y-16747595D01*
X12240595Y-16757119D01*
X12440595Y-16880929D02*
X12450119Y-16890452D01*
X12440595Y-16899976D01*
X12431071Y-16890452D01*
X12440595Y-16880929D01*
X12440595Y-16899976D01*
X12631071Y-16699976D02*
X12535833Y-16699976D01*
X12526309Y-16795214D01*
X12535833Y-16785690D01*
X12554881Y-16776167D01*
X12602500Y-16776167D01*
X12621548Y-16785690D01*
X12631071Y-16795214D01*
X12640595Y-16814262D01*
X12640595Y-16861881D01*
X12631071Y-16880929D01*
X12621548Y-16890452D01*
X12602500Y-16899976D01*
X12554881Y-16899976D01*
X12535833Y-16890452D01*
X12526309Y-16880929D01*
X12716786Y-16719024D02*
X12726309Y-16709500D01*
X12745357Y-16699976D01*
X12792976Y-16699976D01*
X12812024Y-16709500D01*
X12821548Y-16719024D01*
X12831071Y-16738071D01*
X12831071Y-16757119D01*
X12821548Y-16785690D01*
X12707262Y-16899976D01*
X12831071Y-16899976D01*
X12954881Y-16699976D02*
X12973928Y-16699976D01*
X12992976Y-16709500D01*
X13002500Y-16719024D01*
X13012024Y-16738071D01*
X13021548Y-16776167D01*
X13021548Y-16823786D01*
X13012024Y-16861881D01*
X13002500Y-16880929D01*
X12992976Y-16890452D01*
X12973928Y-16899976D01*
X12954881Y-16899976D01*
X12935833Y-16890452D01*
X12926309Y-16880929D01*
X12916786Y-16861881D01*
X12907262Y-16823786D01*
X12907262Y-16776167D01*
X12916786Y-16738071D01*
X12926309Y-16719024D01*
X12935833Y-16709500D01*
X12954881Y-16699976D01*
X13107262Y-16899976D02*
X13107262Y-16766643D01*
X13107262Y-16785690D02*
X13116786Y-16776167D01*
X13135833Y-16766643D01*
X13164405Y-16766643D01*
X13183452Y-16776167D01*
X13192976Y-16795214D01*
X13192976Y-16899976D01*
X13192976Y-16795214D02*
X13202500Y-16776167D01*
X13221548Y-16766643D01*
X13250119Y-16766643D01*
X13269167Y-16776167D01*
X13278690Y-16795214D01*
X13278690Y-16899976D01*
X13373928Y-16899976D02*
X13373928Y-16766643D01*
X13373928Y-16785690D02*
X13383452Y-16776167D01*
X13402500Y-16766643D01*
X13431071Y-16766643D01*
X13450119Y-16776167D01*
X13459643Y-16795214D01*
X13459643Y-16899976D01*
X13459643Y-16795214D02*
X13469167Y-16776167D01*
X13488214Y-16766643D01*
X13516786Y-16766643D01*
X13535833Y-16776167D01*
X13545357Y-16795214D01*
X13545357Y-16899976D01*
X13935833Y-16690452D02*
X13764405Y-16947595D01*
X14192976Y-16699976D02*
X14212024Y-16699976D01*
X14231071Y-16709500D01*
X14240595Y-16719024D01*
X14250119Y-16738071D01*
X14259643Y-16776167D01*
X14259643Y-16823786D01*
X14250119Y-16861881D01*
X14240595Y-16880929D01*
X14231071Y-16890452D01*
X14212024Y-16899976D01*
X14192976Y-16899976D01*
X14173928Y-16890452D01*
X14164405Y-16880929D01*
X14154881Y-16861881D01*
X14145357Y-16823786D01*
X14145357Y-16776167D01*
X14154881Y-16738071D01*
X14164405Y-16719024D01*
X14173928Y-16709500D01*
X14192976Y-16699976D01*
X14345357Y-16880929D02*
X14354881Y-16890452D01*
X14345357Y-16899976D01*
X14335833Y-16890452D01*
X14345357Y-16880929D01*
X14345357Y-16899976D01*
X14478690Y-16699976D02*
X14497738Y-16699976D01*
X14516786Y-16709500D01*
X14526309Y-16719024D01*
X14535833Y-16738071D01*
X14545357Y-16776167D01*
X14545357Y-16823786D01*
X14535833Y-16861881D01*
X14526309Y-16880929D01*
X14516786Y-16890452D01*
X14497738Y-16899976D01*
X14478690Y-16899976D01*
X14459643Y-16890452D01*
X14450119Y-16880929D01*
X14440595Y-16861881D01*
X14431071Y-16823786D01*
X14431071Y-16776167D01*
X14440595Y-16738071D01*
X14450119Y-16719024D01*
X14459643Y-16709500D01*
X14478690Y-16699976D01*
X14726309Y-16699976D02*
X14631071Y-16699976D01*
X14621548Y-16795214D01*
X14631071Y-16785690D01*
X14650119Y-16776167D01*
X14697738Y-16776167D01*
X14716786Y-16785690D01*
X14726309Y-16795214D01*
X14735833Y-16814262D01*
X14735833Y-16861881D01*
X14726309Y-16880929D01*
X14716786Y-16890452D01*
X14697738Y-16899976D01*
X14650119Y-16899976D01*
X14631071Y-16890452D01*
X14621548Y-16880929D01*
X14831071Y-16899976D02*
X14869167Y-16899976D01*
X14888214Y-16890452D01*
X14897738Y-16880929D01*
X14916786Y-16852357D01*
X14926309Y-16814262D01*
X14926309Y-16738071D01*
X14916786Y-16719024D01*
X14907262Y-16709500D01*
X14888214Y-16699976D01*
X14850119Y-16699976D01*
X14831071Y-16709500D01*
X14821548Y-16719024D01*
X14812024Y-16738071D01*
X14812024Y-16785690D01*
X14821548Y-16804738D01*
X14831071Y-16814262D01*
X14850119Y-16823786D01*
X14888214Y-16823786D01*
X14907262Y-16814262D01*
X14916786Y-16804738D01*
X14926309Y-16785690D01*
X15040595Y-16785690D02*
X15021548Y-16776167D01*
X15012024Y-16766643D01*
X15002500Y-16747595D01*
X15002500Y-16738071D01*
X15012024Y-16719024D01*
X15021548Y-16709500D01*
X15040595Y-16699976D01*
X15078690Y-16699976D01*
X15097738Y-16709500D01*
X15107262Y-16719024D01*
X15116786Y-16738071D01*
X15116786Y-16747595D01*
X15107262Y-16766643D01*
X15097738Y-16776167D01*
X15078690Y-16785690D01*
X15040595Y-16785690D01*
X15021548Y-16795214D01*
X15012024Y-16804738D01*
X15002500Y-16823786D01*
X15002500Y-16861881D01*
X15012024Y-16880929D01*
X15021548Y-16890452D01*
X15040595Y-16899976D01*
X15078690Y-16899976D01*
X15097738Y-16890452D01*
X15107262Y-16880929D01*
X15116786Y-16861881D01*
X15116786Y-16823786D01*
X15107262Y-16804738D01*
X15097738Y-16795214D01*
X15078690Y-16785690D01*
X15192976Y-16699976D02*
X15192976Y-16738071D01*
X15269167Y-16699976D02*
X15269167Y-16738071D01*
X15564405Y-16976167D02*
X15554881Y-16966643D01*
X15535833Y-16938071D01*
X15526309Y-16919024D01*
X15516786Y-16890452D01*
X15507262Y-16842833D01*
X15507262Y-16804738D01*
X15516786Y-16757119D01*
X15526309Y-16728548D01*
X15535833Y-16709500D01*
X15554881Y-16680928D01*
X15564405Y-16671405D01*
X15726309Y-16766643D02*
X15726309Y-16899976D01*
X15678690Y-16690452D02*
X15631071Y-16833310D01*
X15754881Y-16833310D01*
X15983452Y-16899976D02*
X15983452Y-16699976D01*
X16069167Y-16899976D02*
X16069167Y-16795214D01*
X16059643Y-16776167D01*
X16040595Y-16766643D01*
X16012024Y-16766643D01*
X15992976Y-16776167D01*
X15983452Y-16785690D01*
X16192976Y-16899976D02*
X16173928Y-16890452D01*
X16164405Y-16880929D01*
X16154881Y-16861881D01*
X16154881Y-16804738D01*
X16164405Y-16785690D01*
X16173928Y-16776167D01*
X16192976Y-16766643D01*
X16221548Y-16766643D01*
X16240595Y-16776167D01*
X16250119Y-16785690D01*
X16259643Y-16804738D01*
X16259643Y-16861881D01*
X16250119Y-16880929D01*
X16240595Y-16890452D01*
X16221548Y-16899976D01*
X16192976Y-16899976D01*
X16373928Y-16899976D02*
X16354881Y-16890452D01*
X16345357Y-16871405D01*
X16345357Y-16699976D01*
X16526309Y-16890452D02*
X16507262Y-16899976D01*
X16469167Y-16899976D01*
X16450119Y-16890452D01*
X16440595Y-16871405D01*
X16440595Y-16795214D01*
X16450119Y-16776167D01*
X16469167Y-16766643D01*
X16507262Y-16766643D01*
X16526309Y-16776167D01*
X16535833Y-16795214D01*
X16535833Y-16814262D01*
X16440595Y-16833310D01*
X16612024Y-16890452D02*
X16631071Y-16899976D01*
X16669167Y-16899976D01*
X16688214Y-16890452D01*
X16697738Y-16871405D01*
X16697738Y-16861881D01*
X16688214Y-16842833D01*
X16669167Y-16833310D01*
X16640595Y-16833310D01*
X16621548Y-16823786D01*
X16612024Y-16804738D01*
X16612024Y-16795214D01*
X16621548Y-16776167D01*
X16640595Y-16766643D01*
X16669167Y-16766643D01*
X16688214Y-16776167D01*
X16764405Y-16976167D02*
X16773928Y-16966643D01*
X16792976Y-16938071D01*
X16802500Y-16919024D01*
X16812024Y-16890452D01*
X16821548Y-16842833D01*
X16821548Y-16804738D01*
X16812024Y-16757119D01*
X16802500Y-16728548D01*
X16792976Y-16709500D01*
X16773928Y-16680928D01*
X16764405Y-16671405D01*
M02*
