G04 #@! TF.GenerationSoftware,KiCad,Pcbnew,(6.0.4-0)*
G04 #@! TF.CreationDate,2022-08-24T21:25:05+02:00*
G04 #@! TF.ProjectId,Mezmerize_B1_Controller,4d657a6d-6572-4697-9a65-5f42315f436f,rev?*
G04 #@! TF.SameCoordinates,Original*
G04 #@! TF.FileFunction,Paste,Top*
G04 #@! TF.FilePolarity,Positive*
%FSLAX46Y46*%
G04 Gerber Fmt 4.6, Leading zero omitted, Abs format (unit mm)*
G04 Created by KiCad (PCBNEW (6.0.4-0)) date 2022-08-24 21:25:05*
%MOMM*%
%LPD*%
G01*
G04 APERTURE LIST*
G04 Aperture macros list*
%AMRoundRect*
0 Rectangle with rounded corners*
0 $1 Rounding radius*
0 $2 $3 $4 $5 $6 $7 $8 $9 X,Y pos of 4 corners*
0 Add a 4 corners polygon primitive as box body*
4,1,4,$2,$3,$4,$5,$6,$7,$8,$9,$2,$3,0*
0 Add four circle primitives for the rounded corners*
1,1,$1+$1,$2,$3*
1,1,$1+$1,$4,$5*
1,1,$1+$1,$6,$7*
1,1,$1+$1,$8,$9*
0 Add four rect primitives between the rounded corners*
20,1,$1+$1,$2,$3,$4,$5,0*
20,1,$1+$1,$4,$5,$6,$7,0*
20,1,$1+$1,$6,$7,$8,$9,0*
20,1,$1+$1,$8,$9,$2,$3,0*%
G04 Aperture macros list end*
%ADD10RoundRect,0.250000X0.325000X0.450000X-0.325000X0.450000X-0.325000X-0.450000X0.325000X-0.450000X0*%
%ADD11RoundRect,0.250000X-0.325000X-0.450000X0.325000X-0.450000X0.325000X0.450000X-0.325000X0.450000X0*%
%ADD12RoundRect,0.250000X-0.450000X0.325000X-0.450000X-0.325000X0.450000X-0.325000X0.450000X0.325000X0*%
%ADD13RoundRect,0.250000X0.450000X-0.325000X0.450000X0.325000X-0.450000X0.325000X-0.450000X-0.325000X0*%
%ADD14R,0.558800X1.981200*%
%ADD15RoundRect,0.150000X0.825000X0.150000X-0.825000X0.150000X-0.825000X-0.150000X0.825000X-0.150000X0*%
%ADD16RoundRect,0.243750X-0.456250X0.243750X-0.456250X-0.243750X0.456250X-0.243750X0.456250X0.243750X0*%
%ADD17RoundRect,0.243750X0.456250X-0.243750X0.456250X0.243750X-0.456250X0.243750X-0.456250X-0.243750X0*%
G04 APERTURE END LIST*
D10*
X151625000Y-112165000D03*
X149575000Y-112165000D03*
D11*
X149575000Y-114800000D03*
X151625000Y-114800000D03*
D12*
X144800000Y-124975000D03*
X144800000Y-127025000D03*
D13*
X153800000Y-127025000D03*
X153800000Y-124975000D03*
D12*
X158000000Y-124975000D03*
X158000000Y-127025000D03*
D14*
X144850000Y-95826300D03*
X146120000Y-95826300D03*
X147390000Y-95826300D03*
X148660000Y-95826300D03*
X149930000Y-95826300D03*
X151200000Y-95826300D03*
X152470000Y-95826300D03*
X153740000Y-95826300D03*
X155010000Y-95826300D03*
X155010000Y-86453700D03*
X153740000Y-86453700D03*
X152470000Y-86453700D03*
X151200000Y-86453700D03*
X149930000Y-86453700D03*
X148660000Y-86453700D03*
X147390000Y-86453700D03*
X146120000Y-86453700D03*
X144850000Y-86453700D03*
D15*
X153075000Y-121305000D03*
X153075000Y-120035000D03*
X153075000Y-118765000D03*
X153075000Y-117495000D03*
X148125000Y-117495000D03*
X148125000Y-118765000D03*
X148125000Y-120035000D03*
X148125000Y-121305000D03*
D14*
X144950000Y-109301200D03*
X146220000Y-109301200D03*
X147490000Y-109301200D03*
X148760000Y-109301200D03*
X150030000Y-109301200D03*
X151300000Y-109301200D03*
X152570000Y-109301200D03*
X153840000Y-109301200D03*
X155110000Y-109301200D03*
X155110000Y-100258800D03*
X153840000Y-100258800D03*
X152570000Y-100258800D03*
X151300000Y-100258800D03*
X150030000Y-100258800D03*
X148760000Y-100258800D03*
X147490000Y-100258800D03*
X146220000Y-100258800D03*
X144950000Y-100258800D03*
D16*
X145000000Y-73000000D03*
X145000000Y-74875000D03*
D17*
X154770000Y-74937500D03*
X154770000Y-73062500D03*
M02*
