%FSLAX45Y45*%
G04 Gerber Fmt 4.5, Leading zero omitted, Abs format (unit mm)*
G04 Created by KiCad (PCBNEW (6.0.4-0)) date 2022-08-24 21:14:19*
%MOMM*%
%LPD*%
G01*
G04 APERTURE LIST*
%TA.AperFunction,Profile*%
%ADD10C,0.150000*%
%TD*%
%ADD11C,0.200000*%
%ADD12C,0.300000*%
%ADD13C,0.320000*%
G04 APERTURE END LIST*
D10*
X12000000Y-5000000D02*
X18000000Y-5000000D01*
X12000000Y-14578000D02*
X12000000Y-5000000D01*
X18000000Y-14578000D02*
X12000000Y-14578000D01*
X18000000Y-5000000D02*
X18000000Y-14578000D01*
D11*
D12*
X13632000Y-8439750D02*
X13932000Y-8739750D01*
X13932000Y-8439750D02*
X13632000Y-8739750D01*
X13632000Y-13134750D02*
X13932000Y-13434750D01*
X13932000Y-13134750D02*
X13632000Y-13434750D01*
X16083000Y-8439750D02*
X16383000Y-8739750D01*
X16383000Y-8439750D02*
X16083000Y-8739750D01*
X16083000Y-13134750D02*
X16383000Y-13434750D01*
X16383000Y-13134750D02*
X16083000Y-13434750D01*
D13*
X12660000Y-5500000D02*
G75*
G03*
X12660000Y-5500000I-160000J0D01*
G01*
X12660000Y-14078000D02*
G75*
G03*
X12660000Y-14078000I-160000J0D01*
G01*
X17660000Y-5500000D02*
G75*
G03*
X17660000Y-5500000I-160000J0D01*
G01*
X17660000Y-14078000D02*
G75*
G03*
X17660000Y-14078000I-160000J0D01*
G01*
D11*
X12250119Y-14895976D02*
X12250119Y-14695976D01*
X12297738Y-14695976D01*
X12326309Y-14705500D01*
X12345357Y-14724548D01*
X12354881Y-14743595D01*
X12364405Y-14781690D01*
X12364405Y-14810262D01*
X12354881Y-14848357D01*
X12345357Y-14867405D01*
X12326309Y-14886452D01*
X12297738Y-14895976D01*
X12250119Y-14895976D01*
X12450119Y-14895976D02*
X12450119Y-14762643D01*
X12450119Y-14800738D02*
X12459643Y-14781690D01*
X12469167Y-14772167D01*
X12488214Y-14762643D01*
X12507262Y-14762643D01*
X12573928Y-14895976D02*
X12573928Y-14762643D01*
X12573928Y-14695976D02*
X12564405Y-14705500D01*
X12573928Y-14715024D01*
X12583452Y-14705500D01*
X12573928Y-14695976D01*
X12573928Y-14715024D01*
X12697738Y-14895976D02*
X12678690Y-14886452D01*
X12669167Y-14867405D01*
X12669167Y-14695976D01*
X12802500Y-14895976D02*
X12783452Y-14886452D01*
X12773928Y-14867405D01*
X12773928Y-14695976D01*
X13031071Y-14895976D02*
X13031071Y-14695976D01*
X13097738Y-14838833D01*
X13164405Y-14695976D01*
X13164405Y-14895976D01*
X13345357Y-14895976D02*
X13345357Y-14791214D01*
X13335833Y-14772167D01*
X13316786Y-14762643D01*
X13278690Y-14762643D01*
X13259643Y-14772167D01*
X13345357Y-14886452D02*
X13326309Y-14895976D01*
X13278690Y-14895976D01*
X13259643Y-14886452D01*
X13250119Y-14867405D01*
X13250119Y-14848357D01*
X13259643Y-14829309D01*
X13278690Y-14819786D01*
X13326309Y-14819786D01*
X13345357Y-14810262D01*
X13440595Y-14762643D02*
X13440595Y-14962643D01*
X13440595Y-14772167D02*
X13459643Y-14762643D01*
X13497738Y-14762643D01*
X13516786Y-14772167D01*
X13526309Y-14781690D01*
X13535833Y-14800738D01*
X13535833Y-14857881D01*
X13526309Y-14876928D01*
X13516786Y-14886452D01*
X13497738Y-14895976D01*
X13459643Y-14895976D01*
X13440595Y-14886452D01*
X13621548Y-14876928D02*
X13631071Y-14886452D01*
X13621548Y-14895976D01*
X13612024Y-14886452D01*
X13621548Y-14876928D01*
X13621548Y-14895976D01*
X13621548Y-14772167D02*
X13631071Y-14781690D01*
X13621548Y-14791214D01*
X13612024Y-14781690D01*
X13621548Y-14772167D01*
X13621548Y-14791214D01*
X11792500Y-15125500D02*
X11992500Y-15325500D01*
X11992500Y-15125500D02*
X11792500Y-15325500D01*
X12231071Y-15115976D02*
X12354881Y-15115976D01*
X12288214Y-15192167D01*
X12316786Y-15192167D01*
X12335833Y-15201690D01*
X12345357Y-15211214D01*
X12354881Y-15230262D01*
X12354881Y-15277881D01*
X12345357Y-15296928D01*
X12335833Y-15306452D01*
X12316786Y-15315976D01*
X12259643Y-15315976D01*
X12240595Y-15306452D01*
X12231071Y-15296928D01*
X12440595Y-15296928D02*
X12450119Y-15306452D01*
X12440595Y-15315976D01*
X12431071Y-15306452D01*
X12440595Y-15296928D01*
X12440595Y-15315976D01*
X12573928Y-15115976D02*
X12592976Y-15115976D01*
X12612024Y-15125500D01*
X12621548Y-15135024D01*
X12631071Y-15154071D01*
X12640595Y-15192167D01*
X12640595Y-15239786D01*
X12631071Y-15277881D01*
X12621548Y-15296928D01*
X12612024Y-15306452D01*
X12592976Y-15315976D01*
X12573928Y-15315976D01*
X12554881Y-15306452D01*
X12545357Y-15296928D01*
X12535833Y-15277881D01*
X12526309Y-15239786D01*
X12526309Y-15192167D01*
X12535833Y-15154071D01*
X12545357Y-15135024D01*
X12554881Y-15125500D01*
X12573928Y-15115976D01*
X12764405Y-15115976D02*
X12783452Y-15115976D01*
X12802500Y-15125500D01*
X12812024Y-15135024D01*
X12821548Y-15154071D01*
X12831071Y-15192167D01*
X12831071Y-15239786D01*
X12821548Y-15277881D01*
X12812024Y-15296928D01*
X12802500Y-15306452D01*
X12783452Y-15315976D01*
X12764405Y-15315976D01*
X12745357Y-15306452D01*
X12735833Y-15296928D01*
X12726309Y-15277881D01*
X12716786Y-15239786D01*
X12716786Y-15192167D01*
X12726309Y-15154071D01*
X12735833Y-15135024D01*
X12745357Y-15125500D01*
X12764405Y-15115976D01*
X12954881Y-15115976D02*
X12973928Y-15115976D01*
X12992976Y-15125500D01*
X13002500Y-15135024D01*
X13012024Y-15154071D01*
X13021548Y-15192167D01*
X13021548Y-15239786D01*
X13012024Y-15277881D01*
X13002500Y-15296928D01*
X12992976Y-15306452D01*
X12973928Y-15315976D01*
X12954881Y-15315976D01*
X12935833Y-15306452D01*
X12926309Y-15296928D01*
X12916786Y-15277881D01*
X12907262Y-15239786D01*
X12907262Y-15192167D01*
X12916786Y-15154071D01*
X12926309Y-15135024D01*
X12935833Y-15125500D01*
X12954881Y-15115976D01*
X13107262Y-15315976D02*
X13107262Y-15182643D01*
X13107262Y-15201690D02*
X13116786Y-15192167D01*
X13135833Y-15182643D01*
X13164405Y-15182643D01*
X13183452Y-15192167D01*
X13192976Y-15211214D01*
X13192976Y-15315976D01*
X13192976Y-15211214D02*
X13202500Y-15192167D01*
X13221548Y-15182643D01*
X13250119Y-15182643D01*
X13269167Y-15192167D01*
X13278690Y-15211214D01*
X13278690Y-15315976D01*
X13373928Y-15315976D02*
X13373928Y-15182643D01*
X13373928Y-15201690D02*
X13383452Y-15192167D01*
X13402500Y-15182643D01*
X13431071Y-15182643D01*
X13450119Y-15192167D01*
X13459643Y-15211214D01*
X13459643Y-15315976D01*
X13459643Y-15211214D02*
X13469167Y-15192167D01*
X13488214Y-15182643D01*
X13516786Y-15182643D01*
X13535833Y-15192167D01*
X13545357Y-15211214D01*
X13545357Y-15315976D01*
X13935833Y-15106452D02*
X13764405Y-15363595D01*
X14192976Y-15115976D02*
X14212024Y-15115976D01*
X14231071Y-15125500D01*
X14240595Y-15135024D01*
X14250119Y-15154071D01*
X14259643Y-15192167D01*
X14259643Y-15239786D01*
X14250119Y-15277881D01*
X14240595Y-15296928D01*
X14231071Y-15306452D01*
X14212024Y-15315976D01*
X14192976Y-15315976D01*
X14173928Y-15306452D01*
X14164405Y-15296928D01*
X14154881Y-15277881D01*
X14145357Y-15239786D01*
X14145357Y-15192167D01*
X14154881Y-15154071D01*
X14164405Y-15135024D01*
X14173928Y-15125500D01*
X14192976Y-15115976D01*
X14345357Y-15296928D02*
X14354881Y-15306452D01*
X14345357Y-15315976D01*
X14335833Y-15306452D01*
X14345357Y-15296928D01*
X14345357Y-15315976D01*
X14545357Y-15315976D02*
X14431071Y-15315976D01*
X14488214Y-15315976D02*
X14488214Y-15115976D01*
X14469167Y-15144548D01*
X14450119Y-15163595D01*
X14431071Y-15173119D01*
X14735833Y-15315976D02*
X14621548Y-15315976D01*
X14678690Y-15315976D02*
X14678690Y-15115976D01*
X14659643Y-15144548D01*
X14640595Y-15163595D01*
X14621548Y-15173119D01*
X14850119Y-15201690D02*
X14831071Y-15192167D01*
X14821548Y-15182643D01*
X14812024Y-15163595D01*
X14812024Y-15154071D01*
X14821548Y-15135024D01*
X14831071Y-15125500D01*
X14850119Y-15115976D01*
X14888214Y-15115976D01*
X14907262Y-15125500D01*
X14916786Y-15135024D01*
X14926309Y-15154071D01*
X14926309Y-15163595D01*
X14916786Y-15182643D01*
X14907262Y-15192167D01*
X14888214Y-15201690D01*
X14850119Y-15201690D01*
X14831071Y-15211214D01*
X14821548Y-15220738D01*
X14812024Y-15239786D01*
X14812024Y-15277881D01*
X14821548Y-15296928D01*
X14831071Y-15306452D01*
X14850119Y-15315976D01*
X14888214Y-15315976D01*
X14907262Y-15306452D01*
X14916786Y-15296928D01*
X14926309Y-15277881D01*
X14926309Y-15239786D01*
X14916786Y-15220738D01*
X14907262Y-15211214D01*
X14888214Y-15201690D01*
X15116786Y-15315976D02*
X15002500Y-15315976D01*
X15059643Y-15315976D02*
X15059643Y-15115976D01*
X15040595Y-15144548D01*
X15021548Y-15163595D01*
X15002500Y-15173119D01*
X15192976Y-15115976D02*
X15192976Y-15154071D01*
X15269167Y-15115976D02*
X15269167Y-15154071D01*
X15564405Y-15392167D02*
X15554881Y-15382643D01*
X15535833Y-15354071D01*
X15526309Y-15335024D01*
X15516786Y-15306452D01*
X15507262Y-15258833D01*
X15507262Y-15220738D01*
X15516786Y-15173119D01*
X15526309Y-15144548D01*
X15535833Y-15125500D01*
X15554881Y-15096928D01*
X15564405Y-15087405D01*
X15726309Y-15182643D02*
X15726309Y-15315976D01*
X15678690Y-15106452D02*
X15631071Y-15249309D01*
X15754881Y-15249309D01*
X15983452Y-15315976D02*
X15983452Y-15115976D01*
X16069167Y-15315976D02*
X16069167Y-15211214D01*
X16059643Y-15192167D01*
X16040595Y-15182643D01*
X16012024Y-15182643D01*
X15992976Y-15192167D01*
X15983452Y-15201690D01*
X16192976Y-15315976D02*
X16173928Y-15306452D01*
X16164405Y-15296928D01*
X16154881Y-15277881D01*
X16154881Y-15220738D01*
X16164405Y-15201690D01*
X16173928Y-15192167D01*
X16192976Y-15182643D01*
X16221548Y-15182643D01*
X16240595Y-15192167D01*
X16250119Y-15201690D01*
X16259643Y-15220738D01*
X16259643Y-15277881D01*
X16250119Y-15296928D01*
X16240595Y-15306452D01*
X16221548Y-15315976D01*
X16192976Y-15315976D01*
X16373928Y-15315976D02*
X16354881Y-15306452D01*
X16345357Y-15287405D01*
X16345357Y-15115976D01*
X16526309Y-15306452D02*
X16507262Y-15315976D01*
X16469167Y-15315976D01*
X16450119Y-15306452D01*
X16440595Y-15287405D01*
X16440595Y-15211214D01*
X16450119Y-15192167D01*
X16469167Y-15182643D01*
X16507262Y-15182643D01*
X16526309Y-15192167D01*
X16535833Y-15211214D01*
X16535833Y-15230262D01*
X16440595Y-15249309D01*
X16612024Y-15306452D02*
X16631071Y-15315976D01*
X16669167Y-15315976D01*
X16688214Y-15306452D01*
X16697738Y-15287405D01*
X16697738Y-15277881D01*
X16688214Y-15258833D01*
X16669167Y-15249309D01*
X16640595Y-15249309D01*
X16621548Y-15239786D01*
X16612024Y-15220738D01*
X16612024Y-15211214D01*
X16621548Y-15192167D01*
X16640595Y-15182643D01*
X16669167Y-15182643D01*
X16688214Y-15192167D01*
X16764405Y-15392167D02*
X16773928Y-15382643D01*
X16792976Y-15354071D01*
X16802500Y-15335024D01*
X16812024Y-15306452D01*
X16821548Y-15258833D01*
X16821548Y-15220738D01*
X16812024Y-15173119D01*
X16802500Y-15144548D01*
X16792976Y-15125500D01*
X16773928Y-15096928D01*
X16764405Y-15087405D01*
X17126310Y-15392167D02*
X17116786Y-15382643D01*
X17097738Y-15354071D01*
X17088214Y-15335024D01*
X17078690Y-15306452D01*
X17069167Y-15258833D01*
X17069167Y-15220738D01*
X17078690Y-15173119D01*
X17088214Y-15144548D01*
X17097738Y-15125500D01*
X17116786Y-15096928D01*
X17126310Y-15087405D01*
X17202500Y-15182643D02*
X17202500Y-15315976D01*
X17202500Y-15201690D02*
X17212024Y-15192167D01*
X17231071Y-15182643D01*
X17259643Y-15182643D01*
X17278690Y-15192167D01*
X17288214Y-15211214D01*
X17288214Y-15315976D01*
X17412024Y-15315976D02*
X17392976Y-15306452D01*
X17383452Y-15296928D01*
X17373929Y-15277881D01*
X17373929Y-15220738D01*
X17383452Y-15201690D01*
X17392976Y-15192167D01*
X17412024Y-15182643D01*
X17440595Y-15182643D01*
X17459643Y-15192167D01*
X17469167Y-15201690D01*
X17478690Y-15220738D01*
X17478690Y-15277881D01*
X17469167Y-15296928D01*
X17459643Y-15306452D01*
X17440595Y-15315976D01*
X17412024Y-15315976D01*
X17535833Y-15182643D02*
X17612024Y-15182643D01*
X17564405Y-15115976D02*
X17564405Y-15287405D01*
X17573929Y-15306452D01*
X17592976Y-15315976D01*
X17612024Y-15315976D01*
X17831071Y-15182643D02*
X17831071Y-15382643D01*
X17831071Y-15192167D02*
X17850119Y-15182643D01*
X17888214Y-15182643D01*
X17907262Y-15192167D01*
X17916786Y-15201690D01*
X17926310Y-15220738D01*
X17926310Y-15277881D01*
X17916786Y-15296928D01*
X17907262Y-15306452D01*
X17888214Y-15315976D01*
X17850119Y-15315976D01*
X17831071Y-15306452D01*
X18040595Y-15315976D02*
X18021548Y-15306452D01*
X18012024Y-15287405D01*
X18012024Y-15115976D01*
X18202500Y-15315976D02*
X18202500Y-15211214D01*
X18192976Y-15192167D01*
X18173929Y-15182643D01*
X18135833Y-15182643D01*
X18116786Y-15192167D01*
X18202500Y-15306452D02*
X18183452Y-15315976D01*
X18135833Y-15315976D01*
X18116786Y-15306452D01*
X18107262Y-15287405D01*
X18107262Y-15268357D01*
X18116786Y-15249309D01*
X18135833Y-15239786D01*
X18183452Y-15239786D01*
X18202500Y-15230262D01*
X18269167Y-15182643D02*
X18345357Y-15182643D01*
X18297738Y-15115976D02*
X18297738Y-15287405D01*
X18307262Y-15306452D01*
X18326310Y-15315976D01*
X18345357Y-15315976D01*
X18488214Y-15306452D02*
X18469167Y-15315976D01*
X18431071Y-15315976D01*
X18412024Y-15306452D01*
X18402500Y-15287405D01*
X18402500Y-15211214D01*
X18412024Y-15192167D01*
X18431071Y-15182643D01*
X18469167Y-15182643D01*
X18488214Y-15192167D01*
X18497738Y-15211214D01*
X18497738Y-15230262D01*
X18402500Y-15249309D01*
X18669167Y-15315976D02*
X18669167Y-15115976D01*
X18669167Y-15306452D02*
X18650119Y-15315976D01*
X18612024Y-15315976D01*
X18592976Y-15306452D01*
X18583452Y-15296928D01*
X18573929Y-15277881D01*
X18573929Y-15220738D01*
X18583452Y-15201690D01*
X18592976Y-15192167D01*
X18612024Y-15182643D01*
X18650119Y-15182643D01*
X18669167Y-15192167D01*
X18745357Y-15392167D02*
X18754881Y-15382643D01*
X18773929Y-15354071D01*
X18783452Y-15335024D01*
X18792976Y-15306452D01*
X18802500Y-15258833D01*
X18802500Y-15220738D01*
X18792976Y-15173119D01*
X18783452Y-15144548D01*
X18773929Y-15125500D01*
X18754881Y-15096928D01*
X18745357Y-15087405D01*
X11992500Y-15545500D02*
G75*
G03*
X11992500Y-15545500I-100000J0D01*
G01*
X12231071Y-15435976D02*
X12354881Y-15435976D01*
X12288214Y-15512167D01*
X12316786Y-15512167D01*
X12335833Y-15521690D01*
X12345357Y-15531214D01*
X12354881Y-15550262D01*
X12354881Y-15597881D01*
X12345357Y-15616928D01*
X12335833Y-15626452D01*
X12316786Y-15635976D01*
X12259643Y-15635976D01*
X12240595Y-15626452D01*
X12231071Y-15616928D01*
X12440595Y-15616928D02*
X12450119Y-15626452D01*
X12440595Y-15635976D01*
X12431071Y-15626452D01*
X12440595Y-15616928D01*
X12440595Y-15635976D01*
X12526309Y-15455024D02*
X12535833Y-15445500D01*
X12554881Y-15435976D01*
X12602500Y-15435976D01*
X12621548Y-15445500D01*
X12631071Y-15455024D01*
X12640595Y-15474071D01*
X12640595Y-15493119D01*
X12631071Y-15521690D01*
X12516786Y-15635976D01*
X12640595Y-15635976D01*
X12764405Y-15435976D02*
X12783452Y-15435976D01*
X12802500Y-15445500D01*
X12812024Y-15455024D01*
X12821548Y-15474071D01*
X12831071Y-15512167D01*
X12831071Y-15559786D01*
X12821548Y-15597881D01*
X12812024Y-15616928D01*
X12802500Y-15626452D01*
X12783452Y-15635976D01*
X12764405Y-15635976D01*
X12745357Y-15626452D01*
X12735833Y-15616928D01*
X12726309Y-15597881D01*
X12716786Y-15559786D01*
X12716786Y-15512167D01*
X12726309Y-15474071D01*
X12735833Y-15455024D01*
X12745357Y-15445500D01*
X12764405Y-15435976D01*
X12954881Y-15435976D02*
X12973928Y-15435976D01*
X12992976Y-15445500D01*
X13002500Y-15455024D01*
X13012024Y-15474071D01*
X13021548Y-15512167D01*
X13021548Y-15559786D01*
X13012024Y-15597881D01*
X13002500Y-15616928D01*
X12992976Y-15626452D01*
X12973928Y-15635976D01*
X12954881Y-15635976D01*
X12935833Y-15626452D01*
X12926309Y-15616928D01*
X12916786Y-15597881D01*
X12907262Y-15559786D01*
X12907262Y-15512167D01*
X12916786Y-15474071D01*
X12926309Y-15455024D01*
X12935833Y-15445500D01*
X12954881Y-15435976D01*
X13107262Y-15635976D02*
X13107262Y-15502643D01*
X13107262Y-15521690D02*
X13116786Y-15512167D01*
X13135833Y-15502643D01*
X13164405Y-15502643D01*
X13183452Y-15512167D01*
X13192976Y-15531214D01*
X13192976Y-15635976D01*
X13192976Y-15531214D02*
X13202500Y-15512167D01*
X13221548Y-15502643D01*
X13250119Y-15502643D01*
X13269167Y-15512167D01*
X13278690Y-15531214D01*
X13278690Y-15635976D01*
X13373928Y-15635976D02*
X13373928Y-15502643D01*
X13373928Y-15521690D02*
X13383452Y-15512167D01*
X13402500Y-15502643D01*
X13431071Y-15502643D01*
X13450119Y-15512167D01*
X13459643Y-15531214D01*
X13459643Y-15635976D01*
X13459643Y-15531214D02*
X13469167Y-15512167D01*
X13488214Y-15502643D01*
X13516786Y-15502643D01*
X13535833Y-15512167D01*
X13545357Y-15531214D01*
X13545357Y-15635976D01*
X13935833Y-15426452D02*
X13764405Y-15683595D01*
X14192976Y-15435976D02*
X14212024Y-15435976D01*
X14231071Y-15445500D01*
X14240595Y-15455024D01*
X14250119Y-15474071D01*
X14259643Y-15512167D01*
X14259643Y-15559786D01*
X14250119Y-15597881D01*
X14240595Y-15616928D01*
X14231071Y-15626452D01*
X14212024Y-15635976D01*
X14192976Y-15635976D01*
X14173928Y-15626452D01*
X14164405Y-15616928D01*
X14154881Y-15597881D01*
X14145357Y-15559786D01*
X14145357Y-15512167D01*
X14154881Y-15474071D01*
X14164405Y-15455024D01*
X14173928Y-15445500D01*
X14192976Y-15435976D01*
X14345357Y-15616928D02*
X14354881Y-15626452D01*
X14345357Y-15635976D01*
X14335833Y-15626452D01*
X14345357Y-15616928D01*
X14345357Y-15635976D01*
X14545357Y-15635976D02*
X14431071Y-15635976D01*
X14488214Y-15635976D02*
X14488214Y-15435976D01*
X14469167Y-15464548D01*
X14450119Y-15483595D01*
X14431071Y-15493119D01*
X14621548Y-15455024D02*
X14631071Y-15445500D01*
X14650119Y-15435976D01*
X14697738Y-15435976D01*
X14716786Y-15445500D01*
X14726309Y-15455024D01*
X14735833Y-15474071D01*
X14735833Y-15493119D01*
X14726309Y-15521690D01*
X14612024Y-15635976D01*
X14735833Y-15635976D01*
X14907262Y-15435976D02*
X14869167Y-15435976D01*
X14850119Y-15445500D01*
X14840595Y-15455024D01*
X14821548Y-15483595D01*
X14812024Y-15521690D01*
X14812024Y-15597881D01*
X14821548Y-15616928D01*
X14831071Y-15626452D01*
X14850119Y-15635976D01*
X14888214Y-15635976D01*
X14907262Y-15626452D01*
X14916786Y-15616928D01*
X14926309Y-15597881D01*
X14926309Y-15550262D01*
X14916786Y-15531214D01*
X14907262Y-15521690D01*
X14888214Y-15512167D01*
X14850119Y-15512167D01*
X14831071Y-15521690D01*
X14821548Y-15531214D01*
X14812024Y-15550262D01*
X15050119Y-15435976D02*
X15069167Y-15435976D01*
X15088214Y-15445500D01*
X15097738Y-15455024D01*
X15107262Y-15474071D01*
X15116786Y-15512167D01*
X15116786Y-15559786D01*
X15107262Y-15597881D01*
X15097738Y-15616928D01*
X15088214Y-15626452D01*
X15069167Y-15635976D01*
X15050119Y-15635976D01*
X15031071Y-15626452D01*
X15021548Y-15616928D01*
X15012024Y-15597881D01*
X15002500Y-15559786D01*
X15002500Y-15512167D01*
X15012024Y-15474071D01*
X15021548Y-15455024D01*
X15031071Y-15445500D01*
X15050119Y-15435976D01*
X15192976Y-15435976D02*
X15192976Y-15474071D01*
X15269167Y-15435976D02*
X15269167Y-15474071D01*
X15564405Y-15712167D02*
X15554881Y-15702643D01*
X15535833Y-15674071D01*
X15526309Y-15655024D01*
X15516786Y-15626452D01*
X15507262Y-15578833D01*
X15507262Y-15540738D01*
X15516786Y-15493119D01*
X15526309Y-15464548D01*
X15535833Y-15445500D01*
X15554881Y-15416928D01*
X15564405Y-15407405D01*
X15726309Y-15502643D02*
X15726309Y-15635976D01*
X15678690Y-15426452D02*
X15631071Y-15569309D01*
X15754881Y-15569309D01*
X15983452Y-15635976D02*
X15983452Y-15435976D01*
X16069167Y-15635976D02*
X16069167Y-15531214D01*
X16059643Y-15512167D01*
X16040595Y-15502643D01*
X16012024Y-15502643D01*
X15992976Y-15512167D01*
X15983452Y-15521690D01*
X16192976Y-15635976D02*
X16173928Y-15626452D01*
X16164405Y-15616928D01*
X16154881Y-15597881D01*
X16154881Y-15540738D01*
X16164405Y-15521690D01*
X16173928Y-15512167D01*
X16192976Y-15502643D01*
X16221548Y-15502643D01*
X16240595Y-15512167D01*
X16250119Y-15521690D01*
X16259643Y-15540738D01*
X16259643Y-15597881D01*
X16250119Y-15616928D01*
X16240595Y-15626452D01*
X16221548Y-15635976D01*
X16192976Y-15635976D01*
X16373928Y-15635976D02*
X16354881Y-15626452D01*
X16345357Y-15607405D01*
X16345357Y-15435976D01*
X16526309Y-15626452D02*
X16507262Y-15635976D01*
X16469167Y-15635976D01*
X16450119Y-15626452D01*
X16440595Y-15607405D01*
X16440595Y-15531214D01*
X16450119Y-15512167D01*
X16469167Y-15502643D01*
X16507262Y-15502643D01*
X16526309Y-15512167D01*
X16535833Y-15531214D01*
X16535833Y-15550262D01*
X16440595Y-15569309D01*
X16612024Y-15626452D02*
X16631071Y-15635976D01*
X16669167Y-15635976D01*
X16688214Y-15626452D01*
X16697738Y-15607405D01*
X16697738Y-15597881D01*
X16688214Y-15578833D01*
X16669167Y-15569309D01*
X16640595Y-15569309D01*
X16621548Y-15559786D01*
X16612024Y-15540738D01*
X16612024Y-15531214D01*
X16621548Y-15512167D01*
X16640595Y-15502643D01*
X16669167Y-15502643D01*
X16688214Y-15512167D01*
X16764405Y-15712167D02*
X16773928Y-15702643D01*
X16792976Y-15674071D01*
X16802500Y-15655024D01*
X16812024Y-15626452D01*
X16821548Y-15578833D01*
X16821548Y-15540738D01*
X16812024Y-15493119D01*
X16802500Y-15464548D01*
X16792976Y-15445500D01*
X16773928Y-15416928D01*
X16764405Y-15407405D01*
X17126310Y-15712167D02*
X17116786Y-15702643D01*
X17097738Y-15674071D01*
X17088214Y-15655024D01*
X17078690Y-15626452D01*
X17069167Y-15578833D01*
X17069167Y-15540738D01*
X17078690Y-15493119D01*
X17088214Y-15464548D01*
X17097738Y-15445500D01*
X17116786Y-15416928D01*
X17126310Y-15407405D01*
X17202500Y-15502643D02*
X17202500Y-15635976D01*
X17202500Y-15521690D02*
X17212024Y-15512167D01*
X17231071Y-15502643D01*
X17259643Y-15502643D01*
X17278690Y-15512167D01*
X17288214Y-15531214D01*
X17288214Y-15635976D01*
X17412024Y-15635976D02*
X17392976Y-15626452D01*
X17383452Y-15616928D01*
X17373929Y-15597881D01*
X17373929Y-15540738D01*
X17383452Y-15521690D01*
X17392976Y-15512167D01*
X17412024Y-15502643D01*
X17440595Y-15502643D01*
X17459643Y-15512167D01*
X17469167Y-15521690D01*
X17478690Y-15540738D01*
X17478690Y-15597881D01*
X17469167Y-15616928D01*
X17459643Y-15626452D01*
X17440595Y-15635976D01*
X17412024Y-15635976D01*
X17535833Y-15502643D02*
X17612024Y-15502643D01*
X17564405Y-15435976D02*
X17564405Y-15607405D01*
X17573929Y-15626452D01*
X17592976Y-15635976D01*
X17612024Y-15635976D01*
X17831071Y-15502643D02*
X17831071Y-15702643D01*
X17831071Y-15512167D02*
X17850119Y-15502643D01*
X17888214Y-15502643D01*
X17907262Y-15512167D01*
X17916786Y-15521690D01*
X17926310Y-15540738D01*
X17926310Y-15597881D01*
X17916786Y-15616928D01*
X17907262Y-15626452D01*
X17888214Y-15635976D01*
X17850119Y-15635976D01*
X17831071Y-15626452D01*
X18040595Y-15635976D02*
X18021548Y-15626452D01*
X18012024Y-15607405D01*
X18012024Y-15435976D01*
X18202500Y-15635976D02*
X18202500Y-15531214D01*
X18192976Y-15512167D01*
X18173929Y-15502643D01*
X18135833Y-15502643D01*
X18116786Y-15512167D01*
X18202500Y-15626452D02*
X18183452Y-15635976D01*
X18135833Y-15635976D01*
X18116786Y-15626452D01*
X18107262Y-15607405D01*
X18107262Y-15588357D01*
X18116786Y-15569309D01*
X18135833Y-15559786D01*
X18183452Y-15559786D01*
X18202500Y-15550262D01*
X18269167Y-15502643D02*
X18345357Y-15502643D01*
X18297738Y-15435976D02*
X18297738Y-15607405D01*
X18307262Y-15626452D01*
X18326310Y-15635976D01*
X18345357Y-15635976D01*
X18488214Y-15626452D02*
X18469167Y-15635976D01*
X18431071Y-15635976D01*
X18412024Y-15626452D01*
X18402500Y-15607405D01*
X18402500Y-15531214D01*
X18412024Y-15512167D01*
X18431071Y-15502643D01*
X18469167Y-15502643D01*
X18488214Y-15512167D01*
X18497738Y-15531214D01*
X18497738Y-15550262D01*
X18402500Y-15569309D01*
X18669167Y-15635976D02*
X18669167Y-15435976D01*
X18669167Y-15626452D02*
X18650119Y-15635976D01*
X18612024Y-15635976D01*
X18592976Y-15626452D01*
X18583452Y-15616928D01*
X18573929Y-15597881D01*
X18573929Y-15540738D01*
X18583452Y-15521690D01*
X18592976Y-15512167D01*
X18612024Y-15502643D01*
X18650119Y-15502643D01*
X18669167Y-15512167D01*
X18745357Y-15712167D02*
X18754881Y-15702643D01*
X18773929Y-15674071D01*
X18783452Y-15655024D01*
X18792976Y-15626452D01*
X18802500Y-15578833D01*
X18802500Y-15540738D01*
X18792976Y-15493119D01*
X18783452Y-15464548D01*
X18773929Y-15445500D01*
X18754881Y-15416928D01*
X18745357Y-15407405D01*
M02*
