G04 #@! TF.GenerationSoftware,KiCad,Pcbnew,6.0.5-a6ca702e91~116~ubuntu20.04.1*
G04 #@! TF.CreationDate,2022-05-18T21:18:03+02:00*
G04 #@! TF.ProjectId,Power Supply,506f7765-7220-4537-9570-706c792e6b69,rev?*
G04 #@! TF.SameCoordinates,Original*
G04 #@! TF.FileFunction,Copper,L2,Bot*
G04 #@! TF.FilePolarity,Positive*
%FSLAX46Y46*%
G04 Gerber Fmt 4.6, Leading zero omitted, Abs format (unit mm)*
G04 Created by KiCad (PCBNEW 6.0.5-a6ca702e91~116~ubuntu20.04.1) date 2022-05-18 21:18:03*
%MOMM*%
%LPD*%
G01*
G04 APERTURE LIST*
G04 #@! TA.AperFunction,ComponentPad*
%ADD10R,3.000000X3.000000*%
G04 #@! TD*
G04 #@! TA.AperFunction,ComponentPad*
%ADD11C,3.000000*%
G04 #@! TD*
G04 #@! TA.AperFunction,ComponentPad*
%ADD12C,3.500000*%
G04 #@! TD*
G04 #@! TA.AperFunction,ComponentPad*
%ADD13C,2.400000*%
G04 #@! TD*
G04 #@! TA.AperFunction,ComponentPad*
%ADD14O,2.400000X2.400000*%
G04 #@! TD*
G04 #@! TA.AperFunction,ComponentPad*
%ADD15R,2.000000X1.905000*%
G04 #@! TD*
G04 #@! TA.AperFunction,ComponentPad*
%ADD16O,2.000000X1.905000*%
G04 #@! TD*
G04 #@! TA.AperFunction,ComponentPad*
%ADD17R,2.000000X2.000000*%
G04 #@! TD*
G04 #@! TA.AperFunction,ComponentPad*
%ADD18C,2.000000*%
G04 #@! TD*
G04 #@! TA.AperFunction,ComponentPad*
%ADD19R,2.000000X2.300000*%
G04 #@! TD*
G04 #@! TA.AperFunction,ComponentPad*
%ADD20C,2.300000*%
G04 #@! TD*
G04 #@! TA.AperFunction,Conductor*
%ADD21C,2.500000*%
G04 #@! TD*
G04 APERTURE END LIST*
D10*
X133520000Y-136000000D03*
D11*
X138600000Y-136000000D03*
D12*
X136140000Y-73841800D03*
X136140000Y-96041400D03*
D13*
X133500000Y-101380000D03*
D14*
X133500000Y-116620000D03*
D15*
X137900000Y-122800000D03*
D16*
X137900000Y-125340000D03*
X137900000Y-127880000D03*
D17*
X126300000Y-127980000D03*
D18*
X126300000Y-122980000D03*
X104050000Y-89830000D03*
X105750000Y-79830000D03*
D10*
X118230000Y-79970000D03*
D11*
X123310000Y-79970000D03*
D18*
X114980000Y-122980000D03*
D17*
X114980000Y-127980000D03*
D19*
X122955000Y-87355000D03*
D20*
X117955000Y-87355000D03*
X128155000Y-116755000D03*
X112755000Y-116755000D03*
D12*
X104770000Y-121018200D03*
X104770000Y-98818600D03*
D10*
X111760000Y-136000000D03*
D11*
X116840000Y-136000000D03*
D21*
X114980000Y-127980000D02*
X114980000Y-134140000D01*
X114980000Y-134140000D02*
X116840000Y-136000000D01*
X137900000Y-127880000D02*
X137900000Y-135300000D01*
X137900000Y-135300000D02*
X138600000Y-136000000D01*
X126300000Y-127980000D02*
X131480000Y-122800000D01*
X131480000Y-122800000D02*
X137900000Y-122800000D01*
X133500000Y-116620000D02*
X133500000Y-110855000D01*
X133500000Y-110855000D02*
X122955000Y-100310000D01*
X136140000Y-96041400D02*
X133500000Y-98681400D01*
X133500000Y-98681400D02*
X133500000Y-101380000D01*
X130011800Y-79970000D02*
X123310000Y-79970000D01*
X136140000Y-73841800D02*
X130011800Y-79970000D01*
X122955000Y-87355000D02*
X122955000Y-100310000D01*
X119315000Y-100310000D02*
X122955000Y-100310000D01*
X108835000Y-89830000D02*
X119315000Y-100310000D01*
X104050000Y-89830000D02*
X108835000Y-89830000D01*
X104770000Y-98818600D02*
X104770000Y-108770000D01*
X104770000Y-108770000D02*
X112755000Y-116755000D01*
X128155000Y-116755000D02*
X128155000Y-121125000D01*
X121205000Y-116755000D02*
X121200000Y-116760000D01*
X128155000Y-121125000D02*
X126300000Y-122980000D01*
X114980000Y-122980000D02*
X121200000Y-116760000D01*
X128155000Y-116755000D02*
X121205000Y-116755000D01*
X118230000Y-87080000D02*
X117955000Y-87355000D01*
X118230000Y-79970000D02*
X118230000Y-87080000D01*
X118230000Y-79970000D02*
X105890000Y-79970000D01*
X105890000Y-79970000D02*
X105750000Y-79830000D01*
X111751800Y-127980000D02*
X126300000Y-127980000D01*
X104770000Y-121018200D02*
X111741800Y-127990000D01*
X111741800Y-127990000D02*
X111751800Y-127980000D01*
M02*
