%FSLAX45Y45*%
G04 Gerber Fmt 4.5, Leading zero omitted, Abs format (unit mm)*
G04 Created by KiCad (PCBNEW 6.0.5-a6ca702e91~116~ubuntu20.04.1) date 2022-05-18 21:19:01*
%MOMM*%
%LPD*%
G01*
G04 APERTURE LIST*
%TA.AperFunction,Profile*%
%ADD10C,0.150000*%
%TD*%
%ADD11C,0.200000*%
%ADD12C,0.320000*%
G04 APERTURE END LIST*
D10*
X9320000Y-14041000D02*
X9320000Y-6950000D01*
X15000000Y-14041000D02*
X9320000Y-14041000D01*
X9320000Y-6950000D02*
X15000000Y-6950000D01*
X15000000Y-6950000D02*
X15000000Y-14041000D01*
D11*
D12*
X9609000Y-7227000D02*
X9929000Y-7547000D01*
X9929000Y-7227000D02*
X9609000Y-7547000D01*
X9610000Y-13430000D02*
X9930000Y-13750000D01*
X9930000Y-13430000D02*
X9610000Y-13750000D01*
X14360000Y-7230000D02*
X14680000Y-7550000D01*
X14680000Y-7230000D02*
X14360000Y-7550000D01*
X14370000Y-13433000D02*
X14690000Y-13753000D01*
X14690000Y-13433000D02*
X14370000Y-13753000D01*
D11*
X9570119Y-14358976D02*
X9570119Y-14158976D01*
X9617738Y-14158976D01*
X9646310Y-14168500D01*
X9665357Y-14187548D01*
X9674881Y-14206595D01*
X9684405Y-14244690D01*
X9684405Y-14273262D01*
X9674881Y-14311357D01*
X9665357Y-14330405D01*
X9646310Y-14349452D01*
X9617738Y-14358976D01*
X9570119Y-14358976D01*
X9770119Y-14358976D02*
X9770119Y-14225643D01*
X9770119Y-14263738D02*
X9779643Y-14244690D01*
X9789167Y-14235167D01*
X9808214Y-14225643D01*
X9827262Y-14225643D01*
X9893929Y-14358976D02*
X9893929Y-14225643D01*
X9893929Y-14158976D02*
X9884405Y-14168500D01*
X9893929Y-14178024D01*
X9903452Y-14168500D01*
X9893929Y-14158976D01*
X9893929Y-14178024D01*
X10017738Y-14358976D02*
X9998690Y-14349452D01*
X9989167Y-14330405D01*
X9989167Y-14158976D01*
X10122500Y-14358976D02*
X10103452Y-14349452D01*
X10093929Y-14330405D01*
X10093929Y-14158976D01*
X10351071Y-14358976D02*
X10351071Y-14158976D01*
X10417738Y-14301833D01*
X10484405Y-14158976D01*
X10484405Y-14358976D01*
X10665357Y-14358976D02*
X10665357Y-14254214D01*
X10655833Y-14235167D01*
X10636786Y-14225643D01*
X10598690Y-14225643D01*
X10579643Y-14235167D01*
X10665357Y-14349452D02*
X10646310Y-14358976D01*
X10598690Y-14358976D01*
X10579643Y-14349452D01*
X10570119Y-14330405D01*
X10570119Y-14311357D01*
X10579643Y-14292309D01*
X10598690Y-14282786D01*
X10646310Y-14282786D01*
X10665357Y-14273262D01*
X10760595Y-14225643D02*
X10760595Y-14425643D01*
X10760595Y-14235167D02*
X10779643Y-14225643D01*
X10817738Y-14225643D01*
X10836786Y-14235167D01*
X10846310Y-14244690D01*
X10855833Y-14263738D01*
X10855833Y-14320881D01*
X10846310Y-14339928D01*
X10836786Y-14349452D01*
X10817738Y-14358976D01*
X10779643Y-14358976D01*
X10760595Y-14349452D01*
X10941548Y-14339928D02*
X10951071Y-14349452D01*
X10941548Y-14358976D01*
X10932024Y-14349452D01*
X10941548Y-14339928D01*
X10941548Y-14358976D01*
X10941548Y-14235167D02*
X10951071Y-14244690D01*
X10941548Y-14254214D01*
X10932024Y-14244690D01*
X10941548Y-14235167D01*
X10941548Y-14254214D01*
X9112500Y-14588500D02*
X9312500Y-14788500D01*
X9312500Y-14588500D02*
X9112500Y-14788500D01*
X9551071Y-14578976D02*
X9674881Y-14578976D01*
X9608214Y-14655167D01*
X9636786Y-14655167D01*
X9655833Y-14664690D01*
X9665357Y-14674214D01*
X9674881Y-14693262D01*
X9674881Y-14740881D01*
X9665357Y-14759928D01*
X9655833Y-14769452D01*
X9636786Y-14778976D01*
X9579643Y-14778976D01*
X9560595Y-14769452D01*
X9551071Y-14759928D01*
X9760595Y-14759928D02*
X9770119Y-14769452D01*
X9760595Y-14778976D01*
X9751071Y-14769452D01*
X9760595Y-14759928D01*
X9760595Y-14778976D01*
X9846310Y-14598024D02*
X9855833Y-14588500D01*
X9874881Y-14578976D01*
X9922500Y-14578976D01*
X9941548Y-14588500D01*
X9951071Y-14598024D01*
X9960595Y-14617071D01*
X9960595Y-14636119D01*
X9951071Y-14664690D01*
X9836786Y-14778976D01*
X9960595Y-14778976D01*
X10084405Y-14578976D02*
X10103452Y-14578976D01*
X10122500Y-14588500D01*
X10132024Y-14598024D01*
X10141548Y-14617071D01*
X10151071Y-14655167D01*
X10151071Y-14702786D01*
X10141548Y-14740881D01*
X10132024Y-14759928D01*
X10122500Y-14769452D01*
X10103452Y-14778976D01*
X10084405Y-14778976D01*
X10065357Y-14769452D01*
X10055833Y-14759928D01*
X10046310Y-14740881D01*
X10036786Y-14702786D01*
X10036786Y-14655167D01*
X10046310Y-14617071D01*
X10055833Y-14598024D01*
X10065357Y-14588500D01*
X10084405Y-14578976D01*
X10274881Y-14578976D02*
X10293929Y-14578976D01*
X10312976Y-14588500D01*
X10322500Y-14598024D01*
X10332024Y-14617071D01*
X10341548Y-14655167D01*
X10341548Y-14702786D01*
X10332024Y-14740881D01*
X10322500Y-14759928D01*
X10312976Y-14769452D01*
X10293929Y-14778976D01*
X10274881Y-14778976D01*
X10255833Y-14769452D01*
X10246310Y-14759928D01*
X10236786Y-14740881D01*
X10227262Y-14702786D01*
X10227262Y-14655167D01*
X10236786Y-14617071D01*
X10246310Y-14598024D01*
X10255833Y-14588500D01*
X10274881Y-14578976D01*
X10427262Y-14778976D02*
X10427262Y-14645643D01*
X10427262Y-14664690D02*
X10436786Y-14655167D01*
X10455833Y-14645643D01*
X10484405Y-14645643D01*
X10503452Y-14655167D01*
X10512976Y-14674214D01*
X10512976Y-14778976D01*
X10512976Y-14674214D02*
X10522500Y-14655167D01*
X10541548Y-14645643D01*
X10570119Y-14645643D01*
X10589167Y-14655167D01*
X10598690Y-14674214D01*
X10598690Y-14778976D01*
X10693929Y-14778976D02*
X10693929Y-14645643D01*
X10693929Y-14664690D02*
X10703452Y-14655167D01*
X10722500Y-14645643D01*
X10751071Y-14645643D01*
X10770119Y-14655167D01*
X10779643Y-14674214D01*
X10779643Y-14778976D01*
X10779643Y-14674214D02*
X10789167Y-14655167D01*
X10808214Y-14645643D01*
X10836786Y-14645643D01*
X10855833Y-14655167D01*
X10865357Y-14674214D01*
X10865357Y-14778976D01*
X11255833Y-14569452D02*
X11084405Y-14826595D01*
X11512976Y-14578976D02*
X11532024Y-14578976D01*
X11551071Y-14588500D01*
X11560595Y-14598024D01*
X11570119Y-14617071D01*
X11579643Y-14655167D01*
X11579643Y-14702786D01*
X11570119Y-14740881D01*
X11560595Y-14759928D01*
X11551071Y-14769452D01*
X11532024Y-14778976D01*
X11512976Y-14778976D01*
X11493928Y-14769452D01*
X11484405Y-14759928D01*
X11474881Y-14740881D01*
X11465357Y-14702786D01*
X11465357Y-14655167D01*
X11474881Y-14617071D01*
X11484405Y-14598024D01*
X11493928Y-14588500D01*
X11512976Y-14578976D01*
X11665357Y-14759928D02*
X11674881Y-14769452D01*
X11665357Y-14778976D01*
X11655833Y-14769452D01*
X11665357Y-14759928D01*
X11665357Y-14778976D01*
X11865357Y-14778976D02*
X11751071Y-14778976D01*
X11808214Y-14778976D02*
X11808214Y-14578976D01*
X11789167Y-14607548D01*
X11770119Y-14626595D01*
X11751071Y-14636119D01*
X11941548Y-14598024D02*
X11951071Y-14588500D01*
X11970119Y-14578976D01*
X12017738Y-14578976D01*
X12036786Y-14588500D01*
X12046309Y-14598024D01*
X12055833Y-14617071D01*
X12055833Y-14636119D01*
X12046309Y-14664690D01*
X11932024Y-14778976D01*
X12055833Y-14778976D01*
X12227262Y-14578976D02*
X12189167Y-14578976D01*
X12170119Y-14588500D01*
X12160595Y-14598024D01*
X12141548Y-14626595D01*
X12132024Y-14664690D01*
X12132024Y-14740881D01*
X12141548Y-14759928D01*
X12151071Y-14769452D01*
X12170119Y-14778976D01*
X12208214Y-14778976D01*
X12227262Y-14769452D01*
X12236786Y-14759928D01*
X12246309Y-14740881D01*
X12246309Y-14693262D01*
X12236786Y-14674214D01*
X12227262Y-14664690D01*
X12208214Y-14655167D01*
X12170119Y-14655167D01*
X12151071Y-14664690D01*
X12141548Y-14674214D01*
X12132024Y-14693262D01*
X12370119Y-14578976D02*
X12389167Y-14578976D01*
X12408214Y-14588500D01*
X12417738Y-14598024D01*
X12427262Y-14617071D01*
X12436786Y-14655167D01*
X12436786Y-14702786D01*
X12427262Y-14740881D01*
X12417738Y-14759928D01*
X12408214Y-14769452D01*
X12389167Y-14778976D01*
X12370119Y-14778976D01*
X12351071Y-14769452D01*
X12341548Y-14759928D01*
X12332024Y-14740881D01*
X12322500Y-14702786D01*
X12322500Y-14655167D01*
X12332024Y-14617071D01*
X12341548Y-14598024D01*
X12351071Y-14588500D01*
X12370119Y-14578976D01*
X12512976Y-14578976D02*
X12512976Y-14617071D01*
X12589167Y-14578976D02*
X12589167Y-14617071D01*
X12884405Y-14855167D02*
X12874881Y-14845643D01*
X12855833Y-14817071D01*
X12846309Y-14798024D01*
X12836786Y-14769452D01*
X12827262Y-14721833D01*
X12827262Y-14683738D01*
X12836786Y-14636119D01*
X12846309Y-14607548D01*
X12855833Y-14588500D01*
X12874881Y-14559928D01*
X12884405Y-14550405D01*
X13046309Y-14645643D02*
X13046309Y-14778976D01*
X12998690Y-14569452D02*
X12951071Y-14712309D01*
X13074881Y-14712309D01*
X13303452Y-14778976D02*
X13303452Y-14578976D01*
X13389167Y-14778976D02*
X13389167Y-14674214D01*
X13379643Y-14655167D01*
X13360595Y-14645643D01*
X13332024Y-14645643D01*
X13312976Y-14655167D01*
X13303452Y-14664690D01*
X13512976Y-14778976D02*
X13493928Y-14769452D01*
X13484405Y-14759928D01*
X13474881Y-14740881D01*
X13474881Y-14683738D01*
X13484405Y-14664690D01*
X13493928Y-14655167D01*
X13512976Y-14645643D01*
X13541548Y-14645643D01*
X13560595Y-14655167D01*
X13570119Y-14664690D01*
X13579643Y-14683738D01*
X13579643Y-14740881D01*
X13570119Y-14759928D01*
X13560595Y-14769452D01*
X13541548Y-14778976D01*
X13512976Y-14778976D01*
X13693928Y-14778976D02*
X13674881Y-14769452D01*
X13665357Y-14750405D01*
X13665357Y-14578976D01*
X13846309Y-14769452D02*
X13827262Y-14778976D01*
X13789167Y-14778976D01*
X13770119Y-14769452D01*
X13760595Y-14750405D01*
X13760595Y-14674214D01*
X13770119Y-14655167D01*
X13789167Y-14645643D01*
X13827262Y-14645643D01*
X13846309Y-14655167D01*
X13855833Y-14674214D01*
X13855833Y-14693262D01*
X13760595Y-14712309D01*
X13932024Y-14769452D02*
X13951071Y-14778976D01*
X13989167Y-14778976D01*
X14008214Y-14769452D01*
X14017738Y-14750405D01*
X14017738Y-14740881D01*
X14008214Y-14721833D01*
X13989167Y-14712309D01*
X13960595Y-14712309D01*
X13941548Y-14702786D01*
X13932024Y-14683738D01*
X13932024Y-14674214D01*
X13941548Y-14655167D01*
X13960595Y-14645643D01*
X13989167Y-14645643D01*
X14008214Y-14655167D01*
X14084405Y-14855167D02*
X14093928Y-14845643D01*
X14112976Y-14817071D01*
X14122500Y-14798024D01*
X14132024Y-14769452D01*
X14141548Y-14721833D01*
X14141548Y-14683738D01*
X14132024Y-14636119D01*
X14122500Y-14607548D01*
X14112976Y-14588500D01*
X14093928Y-14559928D01*
X14084405Y-14550405D01*
X14446309Y-14855167D02*
X14436786Y-14845643D01*
X14417738Y-14817071D01*
X14408214Y-14798024D01*
X14398690Y-14769452D01*
X14389167Y-14721833D01*
X14389167Y-14683738D01*
X14398690Y-14636119D01*
X14408214Y-14607548D01*
X14417738Y-14588500D01*
X14436786Y-14559928D01*
X14446309Y-14550405D01*
X14522500Y-14645643D02*
X14522500Y-14778976D01*
X14522500Y-14664690D02*
X14532024Y-14655167D01*
X14551071Y-14645643D01*
X14579643Y-14645643D01*
X14598690Y-14655167D01*
X14608214Y-14674214D01*
X14608214Y-14778976D01*
X14732024Y-14778976D02*
X14712976Y-14769452D01*
X14703452Y-14759928D01*
X14693928Y-14740881D01*
X14693928Y-14683738D01*
X14703452Y-14664690D01*
X14712976Y-14655167D01*
X14732024Y-14645643D01*
X14760595Y-14645643D01*
X14779643Y-14655167D01*
X14789167Y-14664690D01*
X14798690Y-14683738D01*
X14798690Y-14740881D01*
X14789167Y-14759928D01*
X14779643Y-14769452D01*
X14760595Y-14778976D01*
X14732024Y-14778976D01*
X14855833Y-14645643D02*
X14932024Y-14645643D01*
X14884405Y-14578976D02*
X14884405Y-14750405D01*
X14893928Y-14769452D01*
X14912976Y-14778976D01*
X14932024Y-14778976D01*
X15151071Y-14645643D02*
X15151071Y-14845643D01*
X15151071Y-14655167D02*
X15170119Y-14645643D01*
X15208214Y-14645643D01*
X15227262Y-14655167D01*
X15236786Y-14664690D01*
X15246309Y-14683738D01*
X15246309Y-14740881D01*
X15236786Y-14759928D01*
X15227262Y-14769452D01*
X15208214Y-14778976D01*
X15170119Y-14778976D01*
X15151071Y-14769452D01*
X15360595Y-14778976D02*
X15341548Y-14769452D01*
X15332024Y-14750405D01*
X15332024Y-14578976D01*
X15522500Y-14778976D02*
X15522500Y-14674214D01*
X15512976Y-14655167D01*
X15493928Y-14645643D01*
X15455833Y-14645643D01*
X15436786Y-14655167D01*
X15522500Y-14769452D02*
X15503452Y-14778976D01*
X15455833Y-14778976D01*
X15436786Y-14769452D01*
X15427262Y-14750405D01*
X15427262Y-14731357D01*
X15436786Y-14712309D01*
X15455833Y-14702786D01*
X15503452Y-14702786D01*
X15522500Y-14693262D01*
X15589167Y-14645643D02*
X15665357Y-14645643D01*
X15617738Y-14578976D02*
X15617738Y-14750405D01*
X15627262Y-14769452D01*
X15646309Y-14778976D01*
X15665357Y-14778976D01*
X15808214Y-14769452D02*
X15789167Y-14778976D01*
X15751071Y-14778976D01*
X15732024Y-14769452D01*
X15722500Y-14750405D01*
X15722500Y-14674214D01*
X15732024Y-14655167D01*
X15751071Y-14645643D01*
X15789167Y-14645643D01*
X15808214Y-14655167D01*
X15817738Y-14674214D01*
X15817738Y-14693262D01*
X15722500Y-14712309D01*
X15989167Y-14778976D02*
X15989167Y-14578976D01*
X15989167Y-14769452D02*
X15970119Y-14778976D01*
X15932024Y-14778976D01*
X15912976Y-14769452D01*
X15903452Y-14759928D01*
X15893928Y-14740881D01*
X15893928Y-14683738D01*
X15903452Y-14664690D01*
X15912976Y-14655167D01*
X15932024Y-14645643D01*
X15970119Y-14645643D01*
X15989167Y-14655167D01*
X16065357Y-14855167D02*
X16074881Y-14845643D01*
X16093928Y-14817071D01*
X16103452Y-14798024D01*
X16112976Y-14769452D01*
X16122500Y-14721833D01*
X16122500Y-14683738D01*
X16112976Y-14636119D01*
X16103452Y-14607548D01*
X16093928Y-14588500D01*
X16074881Y-14559928D01*
X16065357Y-14550405D01*
M02*
