%FSLAX45Y45*%
G04 Gerber Fmt 4.5, Leading zero omitted, Abs format (unit mm)*
G04 Created by KiCad (PCBNEW 6.0.5-a6ca702e91~116~ubuntu20.04.1) date 2022-05-18 21:19:01*
%MOMM*%
%LPD*%
G01*
G04 APERTURE LIST*
%TA.AperFunction,Profile*%
%ADD10C,0.150000*%
%TD*%
%ADD11C,0.200000*%
%ADD12C,0.100000*%
%ADD13C,0.110000*%
%ADD14C,0.120000*%
%ADD15C,0.150000*%
%ADD16C,0.152000*%
G04 APERTURE END LIST*
D10*
X9320000Y-14041000D02*
X9320000Y-6950000D01*
X15000000Y-14041000D02*
X9320000Y-14041000D01*
X9320000Y-6950000D02*
X15000000Y-6950000D01*
X15000000Y-6950000D02*
X15000000Y-14041000D01*
D11*
D12*
X10355000Y-8933000D02*
X10455000Y-9033000D01*
X10455000Y-8933000D02*
X10355000Y-9033000D01*
X10525000Y-7933000D02*
X10625000Y-8033000D01*
X10625000Y-7933000D02*
X10525000Y-8033000D01*
X11225500Y-11625500D02*
X11325500Y-11725500D01*
X11325500Y-11625500D02*
X11225500Y-11725500D01*
X11448000Y-12248000D02*
X11548000Y-12348000D01*
X11548000Y-12248000D02*
X11448000Y-12348000D01*
X11448000Y-12748000D02*
X11548000Y-12848000D01*
X11548000Y-12748000D02*
X11448000Y-12848000D01*
X11745500Y-8685500D02*
X11845500Y-8785500D01*
X11845500Y-8685500D02*
X11745500Y-8785500D01*
X12245500Y-8685500D02*
X12345500Y-8785500D01*
X12345500Y-8685500D02*
X12245500Y-8785500D01*
X12580000Y-12248000D02*
X12680000Y-12348000D01*
X12680000Y-12248000D02*
X12580000Y-12348000D01*
X12580000Y-12748000D02*
X12680000Y-12848000D01*
X12680000Y-12748000D02*
X12580000Y-12848000D01*
X12765500Y-11625500D02*
X12865500Y-11725500D01*
X12865500Y-11625500D02*
X12765500Y-11725500D01*
D13*
X13845000Y-12280000D02*
G75*
G03*
X13845000Y-12280000I-55000J0D01*
G01*
X13845000Y-12534000D02*
G75*
G03*
X13845000Y-12534000I-55000J0D01*
G01*
X13845000Y-12788000D02*
G75*
G03*
X13845000Y-12788000I-55000J0D01*
G01*
D14*
X13350000Y-10078000D02*
X13350000Y-10198000D01*
X13290000Y-10138000D02*
X13410000Y-10138000D01*
X13350000Y-11602000D02*
X13350000Y-11722000D01*
X13290000Y-11662000D02*
X13410000Y-11662000D01*
D15*
X10530034Y-9934894D02*
X10530034Y-9828827D01*
X10423967Y-9828827D01*
X10423967Y-9934894D01*
X10530034Y-9934894D01*
X10530034Y-12154853D02*
X10530034Y-12048786D01*
X10423967Y-12048786D01*
X10423967Y-12154853D01*
X10530034Y-12154853D01*
X13667033Y-7437213D02*
X13667033Y-7331146D01*
X13560966Y-7331146D01*
X13560966Y-7437213D01*
X13667033Y-7437213D01*
X13667033Y-9657174D02*
X13667033Y-9551107D01*
X13560966Y-9551107D01*
X13560966Y-9657174D01*
X13667033Y-9657174D01*
D16*
X11176000Y-13676000D02*
X11252000Y-13600000D01*
X11176000Y-13524000D01*
X11100000Y-13600000D01*
X11176000Y-13676000D01*
X11684000Y-13676000D02*
X11760000Y-13600000D01*
X11684000Y-13524000D01*
X11608000Y-13600000D01*
X11684000Y-13676000D01*
X11823000Y-8073000D02*
X11899000Y-7997000D01*
X11823000Y-7921000D01*
X11747000Y-7997000D01*
X11823000Y-8073000D01*
X12331000Y-8073000D02*
X12407000Y-7997000D01*
X12331000Y-7921000D01*
X12255000Y-7997000D01*
X12331000Y-8073000D01*
X13352000Y-13676000D02*
X13428000Y-13600000D01*
X13352000Y-13524000D01*
X13276000Y-13600000D01*
X13352000Y-13676000D01*
X13860000Y-13676000D02*
X13936000Y-13600000D01*
X13860000Y-13524000D01*
X13784000Y-13600000D01*
X13860000Y-13676000D01*
D11*
X9570119Y-14358976D02*
X9570119Y-14158976D01*
X9617738Y-14158976D01*
X9646310Y-14168500D01*
X9665357Y-14187548D01*
X9674881Y-14206595D01*
X9684405Y-14244690D01*
X9684405Y-14273262D01*
X9674881Y-14311357D01*
X9665357Y-14330405D01*
X9646310Y-14349452D01*
X9617738Y-14358976D01*
X9570119Y-14358976D01*
X9770119Y-14358976D02*
X9770119Y-14225643D01*
X9770119Y-14263738D02*
X9779643Y-14244690D01*
X9789167Y-14235167D01*
X9808214Y-14225643D01*
X9827262Y-14225643D01*
X9893929Y-14358976D02*
X9893929Y-14225643D01*
X9893929Y-14158976D02*
X9884405Y-14168500D01*
X9893929Y-14178024D01*
X9903452Y-14168500D01*
X9893929Y-14158976D01*
X9893929Y-14178024D01*
X10017738Y-14358976D02*
X9998690Y-14349452D01*
X9989167Y-14330405D01*
X9989167Y-14158976D01*
X10122500Y-14358976D02*
X10103452Y-14349452D01*
X10093929Y-14330405D01*
X10093929Y-14158976D01*
X10351071Y-14358976D02*
X10351071Y-14158976D01*
X10417738Y-14301833D01*
X10484405Y-14158976D01*
X10484405Y-14358976D01*
X10665357Y-14358976D02*
X10665357Y-14254214D01*
X10655833Y-14235167D01*
X10636786Y-14225643D01*
X10598690Y-14225643D01*
X10579643Y-14235167D01*
X10665357Y-14349452D02*
X10646310Y-14358976D01*
X10598690Y-14358976D01*
X10579643Y-14349452D01*
X10570119Y-14330405D01*
X10570119Y-14311357D01*
X10579643Y-14292309D01*
X10598690Y-14282786D01*
X10646310Y-14282786D01*
X10665357Y-14273262D01*
X10760595Y-14225643D02*
X10760595Y-14425643D01*
X10760595Y-14235167D02*
X10779643Y-14225643D01*
X10817738Y-14225643D01*
X10836786Y-14235167D01*
X10846310Y-14244690D01*
X10855833Y-14263738D01*
X10855833Y-14320881D01*
X10846310Y-14339928D01*
X10836786Y-14349452D01*
X10817738Y-14358976D01*
X10779643Y-14358976D01*
X10760595Y-14349452D01*
X10941548Y-14339928D02*
X10951071Y-14349452D01*
X10941548Y-14358976D01*
X10932024Y-14349452D01*
X10941548Y-14339928D01*
X10941548Y-14358976D01*
X10941548Y-14235167D02*
X10951071Y-14244690D01*
X10941548Y-14254214D01*
X10932024Y-14244690D01*
X10941548Y-14235167D01*
X10941548Y-14254214D01*
D12*
X9212500Y-14638500D02*
X9312500Y-14738500D01*
X9312500Y-14638500D02*
X9212500Y-14738500D01*
D11*
X9674881Y-14778976D02*
X9560595Y-14778976D01*
X9617738Y-14778976D02*
X9617738Y-14578976D01*
X9598690Y-14607548D01*
X9579643Y-14626595D01*
X9560595Y-14636119D01*
X9760595Y-14759928D02*
X9770119Y-14769452D01*
X9760595Y-14778976D01*
X9751071Y-14769452D01*
X9760595Y-14759928D01*
X9760595Y-14778976D01*
X9893929Y-14578976D02*
X9912976Y-14578976D01*
X9932024Y-14588500D01*
X9941548Y-14598024D01*
X9951071Y-14617071D01*
X9960595Y-14655167D01*
X9960595Y-14702786D01*
X9951071Y-14740881D01*
X9941548Y-14759928D01*
X9932024Y-14769452D01*
X9912976Y-14778976D01*
X9893929Y-14778976D01*
X9874881Y-14769452D01*
X9865357Y-14759928D01*
X9855833Y-14740881D01*
X9846310Y-14702786D01*
X9846310Y-14655167D01*
X9855833Y-14617071D01*
X9865357Y-14598024D01*
X9874881Y-14588500D01*
X9893929Y-14578976D01*
X10084405Y-14578976D02*
X10103452Y-14578976D01*
X10122500Y-14588500D01*
X10132024Y-14598024D01*
X10141548Y-14617071D01*
X10151071Y-14655167D01*
X10151071Y-14702786D01*
X10141548Y-14740881D01*
X10132024Y-14759928D01*
X10122500Y-14769452D01*
X10103452Y-14778976D01*
X10084405Y-14778976D01*
X10065357Y-14769452D01*
X10055833Y-14759928D01*
X10046310Y-14740881D01*
X10036786Y-14702786D01*
X10036786Y-14655167D01*
X10046310Y-14617071D01*
X10055833Y-14598024D01*
X10065357Y-14588500D01*
X10084405Y-14578976D01*
X10274881Y-14578976D02*
X10293929Y-14578976D01*
X10312976Y-14588500D01*
X10322500Y-14598024D01*
X10332024Y-14617071D01*
X10341548Y-14655167D01*
X10341548Y-14702786D01*
X10332024Y-14740881D01*
X10322500Y-14759928D01*
X10312976Y-14769452D01*
X10293929Y-14778976D01*
X10274881Y-14778976D01*
X10255833Y-14769452D01*
X10246310Y-14759928D01*
X10236786Y-14740881D01*
X10227262Y-14702786D01*
X10227262Y-14655167D01*
X10236786Y-14617071D01*
X10246310Y-14598024D01*
X10255833Y-14588500D01*
X10274881Y-14578976D01*
X10427262Y-14778976D02*
X10427262Y-14645643D01*
X10427262Y-14664690D02*
X10436786Y-14655167D01*
X10455833Y-14645643D01*
X10484405Y-14645643D01*
X10503452Y-14655167D01*
X10512976Y-14674214D01*
X10512976Y-14778976D01*
X10512976Y-14674214D02*
X10522500Y-14655167D01*
X10541548Y-14645643D01*
X10570119Y-14645643D01*
X10589167Y-14655167D01*
X10598690Y-14674214D01*
X10598690Y-14778976D01*
X10693929Y-14778976D02*
X10693929Y-14645643D01*
X10693929Y-14664690D02*
X10703452Y-14655167D01*
X10722500Y-14645643D01*
X10751071Y-14645643D01*
X10770119Y-14655167D01*
X10779643Y-14674214D01*
X10779643Y-14778976D01*
X10779643Y-14674214D02*
X10789167Y-14655167D01*
X10808214Y-14645643D01*
X10836786Y-14645643D01*
X10855833Y-14655167D01*
X10865357Y-14674214D01*
X10865357Y-14778976D01*
X11255833Y-14569452D02*
X11084405Y-14826595D01*
X11512976Y-14578976D02*
X11532024Y-14578976D01*
X11551071Y-14588500D01*
X11560595Y-14598024D01*
X11570119Y-14617071D01*
X11579643Y-14655167D01*
X11579643Y-14702786D01*
X11570119Y-14740881D01*
X11560595Y-14759928D01*
X11551071Y-14769452D01*
X11532024Y-14778976D01*
X11512976Y-14778976D01*
X11493928Y-14769452D01*
X11484405Y-14759928D01*
X11474881Y-14740881D01*
X11465357Y-14702786D01*
X11465357Y-14655167D01*
X11474881Y-14617071D01*
X11484405Y-14598024D01*
X11493928Y-14588500D01*
X11512976Y-14578976D01*
X11665357Y-14759928D02*
X11674881Y-14769452D01*
X11665357Y-14778976D01*
X11655833Y-14769452D01*
X11665357Y-14759928D01*
X11665357Y-14778976D01*
X11798690Y-14578976D02*
X11817738Y-14578976D01*
X11836786Y-14588500D01*
X11846309Y-14598024D01*
X11855833Y-14617071D01*
X11865357Y-14655167D01*
X11865357Y-14702786D01*
X11855833Y-14740881D01*
X11846309Y-14759928D01*
X11836786Y-14769452D01*
X11817738Y-14778976D01*
X11798690Y-14778976D01*
X11779643Y-14769452D01*
X11770119Y-14759928D01*
X11760595Y-14740881D01*
X11751071Y-14702786D01*
X11751071Y-14655167D01*
X11760595Y-14617071D01*
X11770119Y-14598024D01*
X11779643Y-14588500D01*
X11798690Y-14578976D01*
X11932024Y-14578976D02*
X12055833Y-14578976D01*
X11989167Y-14655167D01*
X12017738Y-14655167D01*
X12036786Y-14664690D01*
X12046309Y-14674214D01*
X12055833Y-14693262D01*
X12055833Y-14740881D01*
X12046309Y-14759928D01*
X12036786Y-14769452D01*
X12017738Y-14778976D01*
X11960595Y-14778976D01*
X11941548Y-14769452D01*
X11932024Y-14759928D01*
X12151071Y-14778976D02*
X12189167Y-14778976D01*
X12208214Y-14769452D01*
X12217738Y-14759928D01*
X12236786Y-14731357D01*
X12246309Y-14693262D01*
X12246309Y-14617071D01*
X12236786Y-14598024D01*
X12227262Y-14588500D01*
X12208214Y-14578976D01*
X12170119Y-14578976D01*
X12151071Y-14588500D01*
X12141548Y-14598024D01*
X12132024Y-14617071D01*
X12132024Y-14664690D01*
X12141548Y-14683738D01*
X12151071Y-14693262D01*
X12170119Y-14702786D01*
X12208214Y-14702786D01*
X12227262Y-14693262D01*
X12236786Y-14683738D01*
X12246309Y-14664690D01*
X12417738Y-14645643D02*
X12417738Y-14778976D01*
X12370119Y-14569452D02*
X12322500Y-14712309D01*
X12446309Y-14712309D01*
X12512976Y-14578976D02*
X12512976Y-14617071D01*
X12589167Y-14578976D02*
X12589167Y-14617071D01*
X12884405Y-14855167D02*
X12874881Y-14845643D01*
X12855833Y-14817071D01*
X12846309Y-14798024D01*
X12836786Y-14769452D01*
X12827262Y-14721833D01*
X12827262Y-14683738D01*
X12836786Y-14636119D01*
X12846309Y-14607548D01*
X12855833Y-14588500D01*
X12874881Y-14559928D01*
X12884405Y-14550405D01*
X13065357Y-14778976D02*
X12951071Y-14778976D01*
X13008214Y-14778976D02*
X13008214Y-14578976D01*
X12989167Y-14607548D01*
X12970119Y-14626595D01*
X12951071Y-14636119D01*
X13189167Y-14578976D02*
X13208214Y-14578976D01*
X13227262Y-14588500D01*
X13236786Y-14598024D01*
X13246309Y-14617071D01*
X13255833Y-14655167D01*
X13255833Y-14702786D01*
X13246309Y-14740881D01*
X13236786Y-14759928D01*
X13227262Y-14769452D01*
X13208214Y-14778976D01*
X13189167Y-14778976D01*
X13170119Y-14769452D01*
X13160595Y-14759928D01*
X13151071Y-14740881D01*
X13141548Y-14702786D01*
X13141548Y-14655167D01*
X13151071Y-14617071D01*
X13160595Y-14598024D01*
X13170119Y-14588500D01*
X13189167Y-14578976D01*
X13493928Y-14778976D02*
X13493928Y-14578976D01*
X13579643Y-14778976D02*
X13579643Y-14674214D01*
X13570119Y-14655167D01*
X13551071Y-14645643D01*
X13522500Y-14645643D01*
X13503452Y-14655167D01*
X13493928Y-14664690D01*
X13703452Y-14778976D02*
X13684405Y-14769452D01*
X13674881Y-14759928D01*
X13665357Y-14740881D01*
X13665357Y-14683738D01*
X13674881Y-14664690D01*
X13684405Y-14655167D01*
X13703452Y-14645643D01*
X13732024Y-14645643D01*
X13751071Y-14655167D01*
X13760595Y-14664690D01*
X13770119Y-14683738D01*
X13770119Y-14740881D01*
X13760595Y-14759928D01*
X13751071Y-14769452D01*
X13732024Y-14778976D01*
X13703452Y-14778976D01*
X13884405Y-14778976D02*
X13865357Y-14769452D01*
X13855833Y-14750405D01*
X13855833Y-14578976D01*
X14036786Y-14769452D02*
X14017738Y-14778976D01*
X13979643Y-14778976D01*
X13960595Y-14769452D01*
X13951071Y-14750405D01*
X13951071Y-14674214D01*
X13960595Y-14655167D01*
X13979643Y-14645643D01*
X14017738Y-14645643D01*
X14036786Y-14655167D01*
X14046309Y-14674214D01*
X14046309Y-14693262D01*
X13951071Y-14712309D01*
X14122500Y-14769452D02*
X14141548Y-14778976D01*
X14179643Y-14778976D01*
X14198690Y-14769452D01*
X14208214Y-14750405D01*
X14208214Y-14740881D01*
X14198690Y-14721833D01*
X14179643Y-14712309D01*
X14151071Y-14712309D01*
X14132024Y-14702786D01*
X14122500Y-14683738D01*
X14122500Y-14674214D01*
X14132024Y-14655167D01*
X14151071Y-14645643D01*
X14179643Y-14645643D01*
X14198690Y-14655167D01*
X14274881Y-14855167D02*
X14284405Y-14845643D01*
X14303452Y-14817071D01*
X14312976Y-14798024D01*
X14322500Y-14769452D01*
X14332024Y-14721833D01*
X14332024Y-14683738D01*
X14322500Y-14636119D01*
X14312976Y-14607548D01*
X14303452Y-14588500D01*
X14284405Y-14559928D01*
X14274881Y-14550405D01*
D13*
X9312500Y-14952500D02*
G75*
G03*
X9312500Y-14952500I-55000J0D01*
G01*
D11*
X9674881Y-15042976D02*
X9560595Y-15042976D01*
X9617738Y-15042976D02*
X9617738Y-14842976D01*
X9598690Y-14871548D01*
X9579643Y-14890595D01*
X9560595Y-14900119D01*
X9760595Y-15023928D02*
X9770119Y-15033452D01*
X9760595Y-15042976D01*
X9751071Y-15033452D01*
X9760595Y-15023928D01*
X9760595Y-15042976D01*
X9960595Y-15042976D02*
X9846310Y-15042976D01*
X9903452Y-15042976D02*
X9903452Y-14842976D01*
X9884405Y-14871548D01*
X9865357Y-14890595D01*
X9846310Y-14900119D01*
X10084405Y-14842976D02*
X10103452Y-14842976D01*
X10122500Y-14852500D01*
X10132024Y-14862024D01*
X10141548Y-14881071D01*
X10151071Y-14919167D01*
X10151071Y-14966786D01*
X10141548Y-15004881D01*
X10132024Y-15023928D01*
X10122500Y-15033452D01*
X10103452Y-15042976D01*
X10084405Y-15042976D01*
X10065357Y-15033452D01*
X10055833Y-15023928D01*
X10046310Y-15004881D01*
X10036786Y-14966786D01*
X10036786Y-14919167D01*
X10046310Y-14881071D01*
X10055833Y-14862024D01*
X10065357Y-14852500D01*
X10084405Y-14842976D01*
X10274881Y-14842976D02*
X10293929Y-14842976D01*
X10312976Y-14852500D01*
X10322500Y-14862024D01*
X10332024Y-14881071D01*
X10341548Y-14919167D01*
X10341548Y-14966786D01*
X10332024Y-15004881D01*
X10322500Y-15023928D01*
X10312976Y-15033452D01*
X10293929Y-15042976D01*
X10274881Y-15042976D01*
X10255833Y-15033452D01*
X10246310Y-15023928D01*
X10236786Y-15004881D01*
X10227262Y-14966786D01*
X10227262Y-14919167D01*
X10236786Y-14881071D01*
X10246310Y-14862024D01*
X10255833Y-14852500D01*
X10274881Y-14842976D01*
X10427262Y-15042976D02*
X10427262Y-14909643D01*
X10427262Y-14928690D02*
X10436786Y-14919167D01*
X10455833Y-14909643D01*
X10484405Y-14909643D01*
X10503452Y-14919167D01*
X10512976Y-14938214D01*
X10512976Y-15042976D01*
X10512976Y-14938214D02*
X10522500Y-14919167D01*
X10541548Y-14909643D01*
X10570119Y-14909643D01*
X10589167Y-14919167D01*
X10598690Y-14938214D01*
X10598690Y-15042976D01*
X10693929Y-15042976D02*
X10693929Y-14909643D01*
X10693929Y-14928690D02*
X10703452Y-14919167D01*
X10722500Y-14909643D01*
X10751071Y-14909643D01*
X10770119Y-14919167D01*
X10779643Y-14938214D01*
X10779643Y-15042976D01*
X10779643Y-14938214D02*
X10789167Y-14919167D01*
X10808214Y-14909643D01*
X10836786Y-14909643D01*
X10855833Y-14919167D01*
X10865357Y-14938214D01*
X10865357Y-15042976D01*
X11255833Y-14833452D02*
X11084405Y-15090595D01*
X11512976Y-14842976D02*
X11532024Y-14842976D01*
X11551071Y-14852500D01*
X11560595Y-14862024D01*
X11570119Y-14881071D01*
X11579643Y-14919167D01*
X11579643Y-14966786D01*
X11570119Y-15004881D01*
X11560595Y-15023928D01*
X11551071Y-15033452D01*
X11532024Y-15042976D01*
X11512976Y-15042976D01*
X11493928Y-15033452D01*
X11484405Y-15023928D01*
X11474881Y-15004881D01*
X11465357Y-14966786D01*
X11465357Y-14919167D01*
X11474881Y-14881071D01*
X11484405Y-14862024D01*
X11493928Y-14852500D01*
X11512976Y-14842976D01*
X11665357Y-15023928D02*
X11674881Y-15033452D01*
X11665357Y-15042976D01*
X11655833Y-15033452D01*
X11665357Y-15023928D01*
X11665357Y-15042976D01*
X11798690Y-14842976D02*
X11817738Y-14842976D01*
X11836786Y-14852500D01*
X11846309Y-14862024D01*
X11855833Y-14881071D01*
X11865357Y-14919167D01*
X11865357Y-14966786D01*
X11855833Y-15004881D01*
X11846309Y-15023928D01*
X11836786Y-15033452D01*
X11817738Y-15042976D01*
X11798690Y-15042976D01*
X11779643Y-15033452D01*
X11770119Y-15023928D01*
X11760595Y-15004881D01*
X11751071Y-14966786D01*
X11751071Y-14919167D01*
X11760595Y-14881071D01*
X11770119Y-14862024D01*
X11779643Y-14852500D01*
X11798690Y-14842976D01*
X12036786Y-14909643D02*
X12036786Y-15042976D01*
X11989167Y-14833452D02*
X11941548Y-14976309D01*
X12065357Y-14976309D01*
X12122500Y-14842976D02*
X12246309Y-14842976D01*
X12179643Y-14919167D01*
X12208214Y-14919167D01*
X12227262Y-14928690D01*
X12236786Y-14938214D01*
X12246309Y-14957262D01*
X12246309Y-15004881D01*
X12236786Y-15023928D01*
X12227262Y-15033452D01*
X12208214Y-15042976D01*
X12151071Y-15042976D01*
X12132024Y-15033452D01*
X12122500Y-15023928D01*
X12312976Y-14842976D02*
X12436786Y-14842976D01*
X12370119Y-14919167D01*
X12398690Y-14919167D01*
X12417738Y-14928690D01*
X12427262Y-14938214D01*
X12436786Y-14957262D01*
X12436786Y-15004881D01*
X12427262Y-15023928D01*
X12417738Y-15033452D01*
X12398690Y-15042976D01*
X12341548Y-15042976D01*
X12322500Y-15033452D01*
X12312976Y-15023928D01*
X12512976Y-14842976D02*
X12512976Y-14881071D01*
X12589167Y-14842976D02*
X12589167Y-14881071D01*
X12884405Y-15119167D02*
X12874881Y-15109643D01*
X12855833Y-15081071D01*
X12846309Y-15062024D01*
X12836786Y-15033452D01*
X12827262Y-14985833D01*
X12827262Y-14947738D01*
X12836786Y-14900119D01*
X12846309Y-14871548D01*
X12855833Y-14852500D01*
X12874881Y-14823928D01*
X12884405Y-14814405D01*
X12941548Y-14842976D02*
X13065357Y-14842976D01*
X12998690Y-14919167D01*
X13027262Y-14919167D01*
X13046309Y-14928690D01*
X13055833Y-14938214D01*
X13065357Y-14957262D01*
X13065357Y-15004881D01*
X13055833Y-15023928D01*
X13046309Y-15033452D01*
X13027262Y-15042976D01*
X12970119Y-15042976D01*
X12951071Y-15033452D01*
X12941548Y-15023928D01*
X13303452Y-15042976D02*
X13303452Y-14842976D01*
X13389167Y-15042976D02*
X13389167Y-14938214D01*
X13379643Y-14919167D01*
X13360595Y-14909643D01*
X13332024Y-14909643D01*
X13312976Y-14919167D01*
X13303452Y-14928690D01*
X13512976Y-15042976D02*
X13493928Y-15033452D01*
X13484405Y-15023928D01*
X13474881Y-15004881D01*
X13474881Y-14947738D01*
X13484405Y-14928690D01*
X13493928Y-14919167D01*
X13512976Y-14909643D01*
X13541548Y-14909643D01*
X13560595Y-14919167D01*
X13570119Y-14928690D01*
X13579643Y-14947738D01*
X13579643Y-15004881D01*
X13570119Y-15023928D01*
X13560595Y-15033452D01*
X13541548Y-15042976D01*
X13512976Y-15042976D01*
X13693928Y-15042976D02*
X13674881Y-15033452D01*
X13665357Y-15014405D01*
X13665357Y-14842976D01*
X13846309Y-15033452D02*
X13827262Y-15042976D01*
X13789167Y-15042976D01*
X13770119Y-15033452D01*
X13760595Y-15014405D01*
X13760595Y-14938214D01*
X13770119Y-14919167D01*
X13789167Y-14909643D01*
X13827262Y-14909643D01*
X13846309Y-14919167D01*
X13855833Y-14938214D01*
X13855833Y-14957262D01*
X13760595Y-14976309D01*
X13932024Y-15033452D02*
X13951071Y-15042976D01*
X13989167Y-15042976D01*
X14008214Y-15033452D01*
X14017738Y-15014405D01*
X14017738Y-15004881D01*
X14008214Y-14985833D01*
X13989167Y-14976309D01*
X13960595Y-14976309D01*
X13941548Y-14966786D01*
X13932024Y-14947738D01*
X13932024Y-14938214D01*
X13941548Y-14919167D01*
X13960595Y-14909643D01*
X13989167Y-14909643D01*
X14008214Y-14919167D01*
X14084405Y-15119167D02*
X14093928Y-15109643D01*
X14112976Y-15081071D01*
X14122500Y-15062024D01*
X14132024Y-15033452D01*
X14141548Y-14985833D01*
X14141548Y-14947738D01*
X14132024Y-14900119D01*
X14122500Y-14871548D01*
X14112976Y-14852500D01*
X14093928Y-14823928D01*
X14084405Y-14814405D01*
D14*
X9252500Y-15156500D02*
X9252500Y-15276500D01*
X9192500Y-15216500D02*
X9312500Y-15216500D01*
D11*
X9674881Y-15306976D02*
X9560595Y-15306976D01*
X9617738Y-15306976D02*
X9617738Y-15106976D01*
X9598690Y-15135548D01*
X9579643Y-15154595D01*
X9560595Y-15164119D01*
X9760595Y-15287928D02*
X9770119Y-15297452D01*
X9760595Y-15306976D01*
X9751071Y-15297452D01*
X9760595Y-15287928D01*
X9760595Y-15306976D01*
X9846310Y-15126024D02*
X9855833Y-15116500D01*
X9874881Y-15106976D01*
X9922500Y-15106976D01*
X9941548Y-15116500D01*
X9951071Y-15126024D01*
X9960595Y-15145071D01*
X9960595Y-15164119D01*
X9951071Y-15192690D01*
X9836786Y-15306976D01*
X9960595Y-15306976D01*
X10084405Y-15106976D02*
X10103452Y-15106976D01*
X10122500Y-15116500D01*
X10132024Y-15126024D01*
X10141548Y-15145071D01*
X10151071Y-15183167D01*
X10151071Y-15230786D01*
X10141548Y-15268881D01*
X10132024Y-15287928D01*
X10122500Y-15297452D01*
X10103452Y-15306976D01*
X10084405Y-15306976D01*
X10065357Y-15297452D01*
X10055833Y-15287928D01*
X10046310Y-15268881D01*
X10036786Y-15230786D01*
X10036786Y-15183167D01*
X10046310Y-15145071D01*
X10055833Y-15126024D01*
X10065357Y-15116500D01*
X10084405Y-15106976D01*
X10274881Y-15106976D02*
X10293929Y-15106976D01*
X10312976Y-15116500D01*
X10322500Y-15126024D01*
X10332024Y-15145071D01*
X10341548Y-15183167D01*
X10341548Y-15230786D01*
X10332024Y-15268881D01*
X10322500Y-15287928D01*
X10312976Y-15297452D01*
X10293929Y-15306976D01*
X10274881Y-15306976D01*
X10255833Y-15297452D01*
X10246310Y-15287928D01*
X10236786Y-15268881D01*
X10227262Y-15230786D01*
X10227262Y-15183167D01*
X10236786Y-15145071D01*
X10246310Y-15126024D01*
X10255833Y-15116500D01*
X10274881Y-15106976D01*
X10427262Y-15306976D02*
X10427262Y-15173643D01*
X10427262Y-15192690D02*
X10436786Y-15183167D01*
X10455833Y-15173643D01*
X10484405Y-15173643D01*
X10503452Y-15183167D01*
X10512976Y-15202214D01*
X10512976Y-15306976D01*
X10512976Y-15202214D02*
X10522500Y-15183167D01*
X10541548Y-15173643D01*
X10570119Y-15173643D01*
X10589167Y-15183167D01*
X10598690Y-15202214D01*
X10598690Y-15306976D01*
X10693929Y-15306976D02*
X10693929Y-15173643D01*
X10693929Y-15192690D02*
X10703452Y-15183167D01*
X10722500Y-15173643D01*
X10751071Y-15173643D01*
X10770119Y-15183167D01*
X10779643Y-15202214D01*
X10779643Y-15306976D01*
X10779643Y-15202214D02*
X10789167Y-15183167D01*
X10808214Y-15173643D01*
X10836786Y-15173643D01*
X10855833Y-15183167D01*
X10865357Y-15202214D01*
X10865357Y-15306976D01*
X11255833Y-15097452D02*
X11084405Y-15354595D01*
X11512976Y-15106976D02*
X11532024Y-15106976D01*
X11551071Y-15116500D01*
X11560595Y-15126024D01*
X11570119Y-15145071D01*
X11579643Y-15183167D01*
X11579643Y-15230786D01*
X11570119Y-15268881D01*
X11560595Y-15287928D01*
X11551071Y-15297452D01*
X11532024Y-15306976D01*
X11512976Y-15306976D01*
X11493928Y-15297452D01*
X11484405Y-15287928D01*
X11474881Y-15268881D01*
X11465357Y-15230786D01*
X11465357Y-15183167D01*
X11474881Y-15145071D01*
X11484405Y-15126024D01*
X11493928Y-15116500D01*
X11512976Y-15106976D01*
X11665357Y-15287928D02*
X11674881Y-15297452D01*
X11665357Y-15306976D01*
X11655833Y-15297452D01*
X11665357Y-15287928D01*
X11665357Y-15306976D01*
X11798690Y-15106976D02*
X11817738Y-15106976D01*
X11836786Y-15116500D01*
X11846309Y-15126024D01*
X11855833Y-15145071D01*
X11865357Y-15183167D01*
X11865357Y-15230786D01*
X11855833Y-15268881D01*
X11846309Y-15287928D01*
X11836786Y-15297452D01*
X11817738Y-15306976D01*
X11798690Y-15306976D01*
X11779643Y-15297452D01*
X11770119Y-15287928D01*
X11760595Y-15268881D01*
X11751071Y-15230786D01*
X11751071Y-15183167D01*
X11760595Y-15145071D01*
X11770119Y-15126024D01*
X11779643Y-15116500D01*
X11798690Y-15106976D01*
X12036786Y-15173643D02*
X12036786Y-15306976D01*
X11989167Y-15097452D02*
X11941548Y-15240309D01*
X12065357Y-15240309D01*
X12122500Y-15106976D02*
X12255833Y-15106976D01*
X12170119Y-15306976D01*
X12322500Y-15126024D02*
X12332024Y-15116500D01*
X12351071Y-15106976D01*
X12398690Y-15106976D01*
X12417738Y-15116500D01*
X12427262Y-15126024D01*
X12436786Y-15145071D01*
X12436786Y-15164119D01*
X12427262Y-15192690D01*
X12312976Y-15306976D01*
X12436786Y-15306976D01*
X12512976Y-15106976D02*
X12512976Y-15145071D01*
X12589167Y-15106976D02*
X12589167Y-15145071D01*
X12884405Y-15383167D02*
X12874881Y-15373643D01*
X12855833Y-15345071D01*
X12846309Y-15326024D01*
X12836786Y-15297452D01*
X12827262Y-15249833D01*
X12827262Y-15211738D01*
X12836786Y-15164119D01*
X12846309Y-15135548D01*
X12855833Y-15116500D01*
X12874881Y-15087928D01*
X12884405Y-15078405D01*
X12951071Y-15126024D02*
X12960595Y-15116500D01*
X12979643Y-15106976D01*
X13027262Y-15106976D01*
X13046309Y-15116500D01*
X13055833Y-15126024D01*
X13065357Y-15145071D01*
X13065357Y-15164119D01*
X13055833Y-15192690D01*
X12941548Y-15306976D01*
X13065357Y-15306976D01*
X13303452Y-15306976D02*
X13303452Y-15106976D01*
X13389167Y-15306976D02*
X13389167Y-15202214D01*
X13379643Y-15183167D01*
X13360595Y-15173643D01*
X13332024Y-15173643D01*
X13312976Y-15183167D01*
X13303452Y-15192690D01*
X13512976Y-15306976D02*
X13493928Y-15297452D01*
X13484405Y-15287928D01*
X13474881Y-15268881D01*
X13474881Y-15211738D01*
X13484405Y-15192690D01*
X13493928Y-15183167D01*
X13512976Y-15173643D01*
X13541548Y-15173643D01*
X13560595Y-15183167D01*
X13570119Y-15192690D01*
X13579643Y-15211738D01*
X13579643Y-15268881D01*
X13570119Y-15287928D01*
X13560595Y-15297452D01*
X13541548Y-15306976D01*
X13512976Y-15306976D01*
X13693928Y-15306976D02*
X13674881Y-15297452D01*
X13665357Y-15278405D01*
X13665357Y-15106976D01*
X13846309Y-15297452D02*
X13827262Y-15306976D01*
X13789167Y-15306976D01*
X13770119Y-15297452D01*
X13760595Y-15278405D01*
X13760595Y-15202214D01*
X13770119Y-15183167D01*
X13789167Y-15173643D01*
X13827262Y-15173643D01*
X13846309Y-15183167D01*
X13855833Y-15202214D01*
X13855833Y-15221262D01*
X13760595Y-15240309D01*
X13932024Y-15297452D02*
X13951071Y-15306976D01*
X13989167Y-15306976D01*
X14008214Y-15297452D01*
X14017738Y-15278405D01*
X14017738Y-15268881D01*
X14008214Y-15249833D01*
X13989167Y-15240309D01*
X13960595Y-15240309D01*
X13941548Y-15230786D01*
X13932024Y-15211738D01*
X13932024Y-15202214D01*
X13941548Y-15183167D01*
X13960595Y-15173643D01*
X13989167Y-15173643D01*
X14008214Y-15183167D01*
X14084405Y-15383167D02*
X14093928Y-15373643D01*
X14112976Y-15345071D01*
X14122500Y-15326024D01*
X14132024Y-15297452D01*
X14141548Y-15249833D01*
X14141548Y-15211738D01*
X14132024Y-15164119D01*
X14122500Y-15135548D01*
X14112976Y-15116500D01*
X14093928Y-15087928D01*
X14084405Y-15078405D01*
D15*
X9290534Y-15533533D02*
X9290534Y-15427466D01*
X9184467Y-15427466D01*
X9184467Y-15533533D01*
X9290534Y-15533533D01*
D11*
X9674881Y-15570976D02*
X9560595Y-15570976D01*
X9617738Y-15570976D02*
X9617738Y-15370976D01*
X9598690Y-15399548D01*
X9579643Y-15418595D01*
X9560595Y-15428119D01*
X9760595Y-15551928D02*
X9770119Y-15561452D01*
X9760595Y-15570976D01*
X9751071Y-15561452D01*
X9760595Y-15551928D01*
X9760595Y-15570976D01*
X9951071Y-15370976D02*
X9855833Y-15370976D01*
X9846310Y-15466214D01*
X9855833Y-15456690D01*
X9874881Y-15447167D01*
X9922500Y-15447167D01*
X9941548Y-15456690D01*
X9951071Y-15466214D01*
X9960595Y-15485262D01*
X9960595Y-15532881D01*
X9951071Y-15551928D01*
X9941548Y-15561452D01*
X9922500Y-15570976D01*
X9874881Y-15570976D01*
X9855833Y-15561452D01*
X9846310Y-15551928D01*
X10084405Y-15370976D02*
X10103452Y-15370976D01*
X10122500Y-15380500D01*
X10132024Y-15390024D01*
X10141548Y-15409071D01*
X10151071Y-15447167D01*
X10151071Y-15494786D01*
X10141548Y-15532881D01*
X10132024Y-15551928D01*
X10122500Y-15561452D01*
X10103452Y-15570976D01*
X10084405Y-15570976D01*
X10065357Y-15561452D01*
X10055833Y-15551928D01*
X10046310Y-15532881D01*
X10036786Y-15494786D01*
X10036786Y-15447167D01*
X10046310Y-15409071D01*
X10055833Y-15390024D01*
X10065357Y-15380500D01*
X10084405Y-15370976D01*
X10274881Y-15370976D02*
X10293929Y-15370976D01*
X10312976Y-15380500D01*
X10322500Y-15390024D01*
X10332024Y-15409071D01*
X10341548Y-15447167D01*
X10341548Y-15494786D01*
X10332024Y-15532881D01*
X10322500Y-15551928D01*
X10312976Y-15561452D01*
X10293929Y-15570976D01*
X10274881Y-15570976D01*
X10255833Y-15561452D01*
X10246310Y-15551928D01*
X10236786Y-15532881D01*
X10227262Y-15494786D01*
X10227262Y-15447167D01*
X10236786Y-15409071D01*
X10246310Y-15390024D01*
X10255833Y-15380500D01*
X10274881Y-15370976D01*
X10427262Y-15570976D02*
X10427262Y-15437643D01*
X10427262Y-15456690D02*
X10436786Y-15447167D01*
X10455833Y-15437643D01*
X10484405Y-15437643D01*
X10503452Y-15447167D01*
X10512976Y-15466214D01*
X10512976Y-15570976D01*
X10512976Y-15466214D02*
X10522500Y-15447167D01*
X10541548Y-15437643D01*
X10570119Y-15437643D01*
X10589167Y-15447167D01*
X10598690Y-15466214D01*
X10598690Y-15570976D01*
X10693929Y-15570976D02*
X10693929Y-15437643D01*
X10693929Y-15456690D02*
X10703452Y-15447167D01*
X10722500Y-15437643D01*
X10751071Y-15437643D01*
X10770119Y-15447167D01*
X10779643Y-15466214D01*
X10779643Y-15570976D01*
X10779643Y-15466214D02*
X10789167Y-15447167D01*
X10808214Y-15437643D01*
X10836786Y-15437643D01*
X10855833Y-15447167D01*
X10865357Y-15466214D01*
X10865357Y-15570976D01*
X11255833Y-15361452D02*
X11084405Y-15618595D01*
X11512976Y-15370976D02*
X11532024Y-15370976D01*
X11551071Y-15380500D01*
X11560595Y-15390024D01*
X11570119Y-15409071D01*
X11579643Y-15447167D01*
X11579643Y-15494786D01*
X11570119Y-15532881D01*
X11560595Y-15551928D01*
X11551071Y-15561452D01*
X11532024Y-15570976D01*
X11512976Y-15570976D01*
X11493928Y-15561452D01*
X11484405Y-15551928D01*
X11474881Y-15532881D01*
X11465357Y-15494786D01*
X11465357Y-15447167D01*
X11474881Y-15409071D01*
X11484405Y-15390024D01*
X11493928Y-15380500D01*
X11512976Y-15370976D01*
X11665357Y-15551928D02*
X11674881Y-15561452D01*
X11665357Y-15570976D01*
X11655833Y-15561452D01*
X11665357Y-15551928D01*
X11665357Y-15570976D01*
X11798690Y-15370976D02*
X11817738Y-15370976D01*
X11836786Y-15380500D01*
X11846309Y-15390024D01*
X11855833Y-15409071D01*
X11865357Y-15447167D01*
X11865357Y-15494786D01*
X11855833Y-15532881D01*
X11846309Y-15551928D01*
X11836786Y-15561452D01*
X11817738Y-15570976D01*
X11798690Y-15570976D01*
X11779643Y-15561452D01*
X11770119Y-15551928D01*
X11760595Y-15532881D01*
X11751071Y-15494786D01*
X11751071Y-15447167D01*
X11760595Y-15409071D01*
X11770119Y-15390024D01*
X11779643Y-15380500D01*
X11798690Y-15370976D01*
X12046309Y-15370976D02*
X11951071Y-15370976D01*
X11941548Y-15466214D01*
X11951071Y-15456690D01*
X11970119Y-15447167D01*
X12017738Y-15447167D01*
X12036786Y-15456690D01*
X12046309Y-15466214D01*
X12055833Y-15485262D01*
X12055833Y-15532881D01*
X12046309Y-15551928D01*
X12036786Y-15561452D01*
X12017738Y-15570976D01*
X11970119Y-15570976D01*
X11951071Y-15561452D01*
X11941548Y-15551928D01*
X12151071Y-15570976D02*
X12189167Y-15570976D01*
X12208214Y-15561452D01*
X12217738Y-15551928D01*
X12236786Y-15523357D01*
X12246309Y-15485262D01*
X12246309Y-15409071D01*
X12236786Y-15390024D01*
X12227262Y-15380500D01*
X12208214Y-15370976D01*
X12170119Y-15370976D01*
X12151071Y-15380500D01*
X12141548Y-15390024D01*
X12132024Y-15409071D01*
X12132024Y-15456690D01*
X12141548Y-15475738D01*
X12151071Y-15485262D01*
X12170119Y-15494786D01*
X12208214Y-15494786D01*
X12227262Y-15485262D01*
X12236786Y-15475738D01*
X12246309Y-15456690D01*
X12436786Y-15570976D02*
X12322500Y-15570976D01*
X12379643Y-15570976D02*
X12379643Y-15370976D01*
X12360595Y-15399548D01*
X12341548Y-15418595D01*
X12322500Y-15428119D01*
X12512976Y-15370976D02*
X12512976Y-15409071D01*
X12589167Y-15370976D02*
X12589167Y-15409071D01*
X12884405Y-15647167D02*
X12874881Y-15637643D01*
X12855833Y-15609071D01*
X12846309Y-15590024D01*
X12836786Y-15561452D01*
X12827262Y-15513833D01*
X12827262Y-15475738D01*
X12836786Y-15428119D01*
X12846309Y-15399548D01*
X12855833Y-15380500D01*
X12874881Y-15351928D01*
X12884405Y-15342405D01*
X13046309Y-15437643D02*
X13046309Y-15570976D01*
X12998690Y-15361452D02*
X12951071Y-15504309D01*
X13074881Y-15504309D01*
X13303452Y-15570976D02*
X13303452Y-15370976D01*
X13389167Y-15570976D02*
X13389167Y-15466214D01*
X13379643Y-15447167D01*
X13360595Y-15437643D01*
X13332024Y-15437643D01*
X13312976Y-15447167D01*
X13303452Y-15456690D01*
X13512976Y-15570976D02*
X13493928Y-15561452D01*
X13484405Y-15551928D01*
X13474881Y-15532881D01*
X13474881Y-15475738D01*
X13484405Y-15456690D01*
X13493928Y-15447167D01*
X13512976Y-15437643D01*
X13541548Y-15437643D01*
X13560595Y-15447167D01*
X13570119Y-15456690D01*
X13579643Y-15475738D01*
X13579643Y-15532881D01*
X13570119Y-15551928D01*
X13560595Y-15561452D01*
X13541548Y-15570976D01*
X13512976Y-15570976D01*
X13693928Y-15570976D02*
X13674881Y-15561452D01*
X13665357Y-15542405D01*
X13665357Y-15370976D01*
X13846309Y-15561452D02*
X13827262Y-15570976D01*
X13789167Y-15570976D01*
X13770119Y-15561452D01*
X13760595Y-15542405D01*
X13760595Y-15466214D01*
X13770119Y-15447167D01*
X13789167Y-15437643D01*
X13827262Y-15437643D01*
X13846309Y-15447167D01*
X13855833Y-15466214D01*
X13855833Y-15485262D01*
X13760595Y-15504309D01*
X13932024Y-15561452D02*
X13951071Y-15570976D01*
X13989167Y-15570976D01*
X14008214Y-15561452D01*
X14017738Y-15542405D01*
X14017738Y-15532881D01*
X14008214Y-15513833D01*
X13989167Y-15504309D01*
X13960595Y-15504309D01*
X13941548Y-15494786D01*
X13932024Y-15475738D01*
X13932024Y-15466214D01*
X13941548Y-15447167D01*
X13960595Y-15437643D01*
X13989167Y-15437643D01*
X14008214Y-15447167D01*
X14084405Y-15647167D02*
X14093928Y-15637643D01*
X14112976Y-15609071D01*
X14122500Y-15590024D01*
X14132024Y-15561452D01*
X14141548Y-15513833D01*
X14141548Y-15475738D01*
X14132024Y-15428119D01*
X14122500Y-15399548D01*
X14112976Y-15380500D01*
X14093928Y-15351928D01*
X14084405Y-15342405D01*
D16*
X9236500Y-15826500D02*
X9312500Y-15750500D01*
X9236500Y-15674500D01*
X9160500Y-15750500D01*
X9236500Y-15826500D01*
D11*
X9674881Y-15840976D02*
X9560595Y-15840976D01*
X9617738Y-15840976D02*
X9617738Y-15640976D01*
X9598690Y-15669548D01*
X9579643Y-15688595D01*
X9560595Y-15698119D01*
X9760595Y-15821928D02*
X9770119Y-15831452D01*
X9760595Y-15840976D01*
X9751071Y-15831452D01*
X9760595Y-15821928D01*
X9760595Y-15840976D01*
X9951071Y-15640976D02*
X9855833Y-15640976D01*
X9846310Y-15736214D01*
X9855833Y-15726690D01*
X9874881Y-15717167D01*
X9922500Y-15717167D01*
X9941548Y-15726690D01*
X9951071Y-15736214D01*
X9960595Y-15755262D01*
X9960595Y-15802881D01*
X9951071Y-15821928D01*
X9941548Y-15831452D01*
X9922500Y-15840976D01*
X9874881Y-15840976D01*
X9855833Y-15831452D01*
X9846310Y-15821928D01*
X10036786Y-15660024D02*
X10046310Y-15650500D01*
X10065357Y-15640976D01*
X10112976Y-15640976D01*
X10132024Y-15650500D01*
X10141548Y-15660024D01*
X10151071Y-15679071D01*
X10151071Y-15698119D01*
X10141548Y-15726690D01*
X10027262Y-15840976D01*
X10151071Y-15840976D01*
X10274881Y-15640976D02*
X10293929Y-15640976D01*
X10312976Y-15650500D01*
X10322500Y-15660024D01*
X10332024Y-15679071D01*
X10341548Y-15717167D01*
X10341548Y-15764786D01*
X10332024Y-15802881D01*
X10322500Y-15821928D01*
X10312976Y-15831452D01*
X10293929Y-15840976D01*
X10274881Y-15840976D01*
X10255833Y-15831452D01*
X10246310Y-15821928D01*
X10236786Y-15802881D01*
X10227262Y-15764786D01*
X10227262Y-15717167D01*
X10236786Y-15679071D01*
X10246310Y-15660024D01*
X10255833Y-15650500D01*
X10274881Y-15640976D01*
X10427262Y-15840976D02*
X10427262Y-15707643D01*
X10427262Y-15726690D02*
X10436786Y-15717167D01*
X10455833Y-15707643D01*
X10484405Y-15707643D01*
X10503452Y-15717167D01*
X10512976Y-15736214D01*
X10512976Y-15840976D01*
X10512976Y-15736214D02*
X10522500Y-15717167D01*
X10541548Y-15707643D01*
X10570119Y-15707643D01*
X10589167Y-15717167D01*
X10598690Y-15736214D01*
X10598690Y-15840976D01*
X10693929Y-15840976D02*
X10693929Y-15707643D01*
X10693929Y-15726690D02*
X10703452Y-15717167D01*
X10722500Y-15707643D01*
X10751071Y-15707643D01*
X10770119Y-15717167D01*
X10779643Y-15736214D01*
X10779643Y-15840976D01*
X10779643Y-15736214D02*
X10789167Y-15717167D01*
X10808214Y-15707643D01*
X10836786Y-15707643D01*
X10855833Y-15717167D01*
X10865357Y-15736214D01*
X10865357Y-15840976D01*
X11255833Y-15631452D02*
X11084405Y-15888595D01*
X11512976Y-15640976D02*
X11532024Y-15640976D01*
X11551071Y-15650500D01*
X11560595Y-15660024D01*
X11570119Y-15679071D01*
X11579643Y-15717167D01*
X11579643Y-15764786D01*
X11570119Y-15802881D01*
X11560595Y-15821928D01*
X11551071Y-15831452D01*
X11532024Y-15840976D01*
X11512976Y-15840976D01*
X11493928Y-15831452D01*
X11484405Y-15821928D01*
X11474881Y-15802881D01*
X11465357Y-15764786D01*
X11465357Y-15717167D01*
X11474881Y-15679071D01*
X11484405Y-15660024D01*
X11493928Y-15650500D01*
X11512976Y-15640976D01*
X11665357Y-15821928D02*
X11674881Y-15831452D01*
X11665357Y-15840976D01*
X11655833Y-15831452D01*
X11665357Y-15821928D01*
X11665357Y-15840976D01*
X11798690Y-15640976D02*
X11817738Y-15640976D01*
X11836786Y-15650500D01*
X11846309Y-15660024D01*
X11855833Y-15679071D01*
X11865357Y-15717167D01*
X11865357Y-15764786D01*
X11855833Y-15802881D01*
X11846309Y-15821928D01*
X11836786Y-15831452D01*
X11817738Y-15840976D01*
X11798690Y-15840976D01*
X11779643Y-15831452D01*
X11770119Y-15821928D01*
X11760595Y-15802881D01*
X11751071Y-15764786D01*
X11751071Y-15717167D01*
X11760595Y-15679071D01*
X11770119Y-15660024D01*
X11779643Y-15650500D01*
X11798690Y-15640976D01*
X12046309Y-15640976D02*
X11951071Y-15640976D01*
X11941548Y-15736214D01*
X11951071Y-15726690D01*
X11970119Y-15717167D01*
X12017738Y-15717167D01*
X12036786Y-15726690D01*
X12046309Y-15736214D01*
X12055833Y-15755262D01*
X12055833Y-15802881D01*
X12046309Y-15821928D01*
X12036786Y-15831452D01*
X12017738Y-15840976D01*
X11970119Y-15840976D01*
X11951071Y-15831452D01*
X11941548Y-15821928D01*
X12151071Y-15840976D02*
X12189167Y-15840976D01*
X12208214Y-15831452D01*
X12217738Y-15821928D01*
X12236786Y-15793357D01*
X12246309Y-15755262D01*
X12246309Y-15679071D01*
X12236786Y-15660024D01*
X12227262Y-15650500D01*
X12208214Y-15640976D01*
X12170119Y-15640976D01*
X12151071Y-15650500D01*
X12141548Y-15660024D01*
X12132024Y-15679071D01*
X12132024Y-15726690D01*
X12141548Y-15745738D01*
X12151071Y-15755262D01*
X12170119Y-15764786D01*
X12208214Y-15764786D01*
X12227262Y-15755262D01*
X12236786Y-15745738D01*
X12246309Y-15726690D01*
X12360595Y-15726690D02*
X12341548Y-15717167D01*
X12332024Y-15707643D01*
X12322500Y-15688595D01*
X12322500Y-15679071D01*
X12332024Y-15660024D01*
X12341548Y-15650500D01*
X12360595Y-15640976D01*
X12398690Y-15640976D01*
X12417738Y-15650500D01*
X12427262Y-15660024D01*
X12436786Y-15679071D01*
X12436786Y-15688595D01*
X12427262Y-15707643D01*
X12417738Y-15717167D01*
X12398690Y-15726690D01*
X12360595Y-15726690D01*
X12341548Y-15736214D01*
X12332024Y-15745738D01*
X12322500Y-15764786D01*
X12322500Y-15802881D01*
X12332024Y-15821928D01*
X12341548Y-15831452D01*
X12360595Y-15840976D01*
X12398690Y-15840976D01*
X12417738Y-15831452D01*
X12427262Y-15821928D01*
X12436786Y-15802881D01*
X12436786Y-15764786D01*
X12427262Y-15745738D01*
X12417738Y-15736214D01*
X12398690Y-15726690D01*
X12512976Y-15640976D02*
X12512976Y-15679071D01*
X12589167Y-15640976D02*
X12589167Y-15679071D01*
X12884405Y-15917167D02*
X12874881Y-15907643D01*
X12855833Y-15879071D01*
X12846309Y-15860024D01*
X12836786Y-15831452D01*
X12827262Y-15783833D01*
X12827262Y-15745738D01*
X12836786Y-15698119D01*
X12846309Y-15669548D01*
X12855833Y-15650500D01*
X12874881Y-15621928D01*
X12884405Y-15612405D01*
X13046309Y-15640976D02*
X13008214Y-15640976D01*
X12989167Y-15650500D01*
X12979643Y-15660024D01*
X12960595Y-15688595D01*
X12951071Y-15726690D01*
X12951071Y-15802881D01*
X12960595Y-15821928D01*
X12970119Y-15831452D01*
X12989167Y-15840976D01*
X13027262Y-15840976D01*
X13046309Y-15831452D01*
X13055833Y-15821928D01*
X13065357Y-15802881D01*
X13065357Y-15755262D01*
X13055833Y-15736214D01*
X13046309Y-15726690D01*
X13027262Y-15717167D01*
X12989167Y-15717167D01*
X12970119Y-15726690D01*
X12960595Y-15736214D01*
X12951071Y-15755262D01*
X13303452Y-15840976D02*
X13303452Y-15640976D01*
X13389167Y-15840976D02*
X13389167Y-15736214D01*
X13379643Y-15717167D01*
X13360595Y-15707643D01*
X13332024Y-15707643D01*
X13312976Y-15717167D01*
X13303452Y-15726690D01*
X13512976Y-15840976D02*
X13493928Y-15831452D01*
X13484405Y-15821928D01*
X13474881Y-15802881D01*
X13474881Y-15745738D01*
X13484405Y-15726690D01*
X13493928Y-15717167D01*
X13512976Y-15707643D01*
X13541548Y-15707643D01*
X13560595Y-15717167D01*
X13570119Y-15726690D01*
X13579643Y-15745738D01*
X13579643Y-15802881D01*
X13570119Y-15821928D01*
X13560595Y-15831452D01*
X13541548Y-15840976D01*
X13512976Y-15840976D01*
X13693928Y-15840976D02*
X13674881Y-15831452D01*
X13665357Y-15812405D01*
X13665357Y-15640976D01*
X13846309Y-15831452D02*
X13827262Y-15840976D01*
X13789167Y-15840976D01*
X13770119Y-15831452D01*
X13760595Y-15812405D01*
X13760595Y-15736214D01*
X13770119Y-15717167D01*
X13789167Y-15707643D01*
X13827262Y-15707643D01*
X13846309Y-15717167D01*
X13855833Y-15736214D01*
X13855833Y-15755262D01*
X13760595Y-15774309D01*
X13932024Y-15831452D02*
X13951071Y-15840976D01*
X13989167Y-15840976D01*
X14008214Y-15831452D01*
X14017738Y-15812405D01*
X14017738Y-15802881D01*
X14008214Y-15783833D01*
X13989167Y-15774309D01*
X13960595Y-15774309D01*
X13941548Y-15764786D01*
X13932024Y-15745738D01*
X13932024Y-15736214D01*
X13941548Y-15717167D01*
X13960595Y-15707643D01*
X13989167Y-15707643D01*
X14008214Y-15717167D01*
X14084405Y-15917167D02*
X14093928Y-15907643D01*
X14112976Y-15879071D01*
X14122500Y-15860024D01*
X14132024Y-15831452D01*
X14141548Y-15783833D01*
X14141548Y-15745738D01*
X14132024Y-15698119D01*
X14122500Y-15669548D01*
X14112976Y-15650500D01*
X14093928Y-15621928D01*
X14084405Y-15612405D01*
M02*
