G04 #@! TF.GenerationSoftware,KiCad,Pcbnew,(6.0.4-0)*
G04 #@! TF.CreationDate,2022-08-24T21:29:38+02:00*
G04 #@! TF.ProjectId,Power Supply,506f7765-7220-4537-9570-706c792e6b69,rev?*
G04 #@! TF.SameCoordinates,Original*
G04 #@! TF.FileFunction,Copper,L2,Bot*
G04 #@! TF.FilePolarity,Positive*
%FSLAX46Y46*%
G04 Gerber Fmt 4.6, Leading zero omitted, Abs format (unit mm)*
G04 Created by KiCad (PCBNEW (6.0.4-0)) date 2022-08-24 21:29:38*
%MOMM*%
%LPD*%
G01*
G04 APERTURE LIST*
G04 #@! TA.AperFunction,ComponentPad*
%ADD10C,3.500000*%
G04 #@! TD*
G04 #@! TA.AperFunction,ComponentPad*
%ADD11C,2.400000*%
G04 #@! TD*
G04 #@! TA.AperFunction,ComponentPad*
%ADD12O,2.400000X2.400000*%
G04 #@! TD*
G04 #@! TA.AperFunction,ComponentPad*
%ADD13R,2.000000X1.905000*%
G04 #@! TD*
G04 #@! TA.AperFunction,ComponentPad*
%ADD14O,2.000000X1.905000*%
G04 #@! TD*
G04 #@! TA.AperFunction,ComponentPad*
%ADD15R,2.000000X2.000000*%
G04 #@! TD*
G04 #@! TA.AperFunction,ComponentPad*
%ADD16C,2.000000*%
G04 #@! TD*
G04 #@! TA.AperFunction,ComponentPad*
%ADD17R,3.000000X3.000000*%
G04 #@! TD*
G04 #@! TA.AperFunction,ComponentPad*
%ADD18C,3.000000*%
G04 #@! TD*
G04 #@! TA.AperFunction,ComponentPad*
%ADD19R,2.000000X2.300000*%
G04 #@! TD*
G04 #@! TA.AperFunction,ComponentPad*
%ADD20C,2.300000*%
G04 #@! TD*
G04 #@! TA.AperFunction,Conductor*
%ADD21C,2.500000*%
G04 #@! TD*
G04 APERTURE END LIST*
D10*
X162750000Y-95251800D03*
X162750000Y-117451400D03*
D11*
X153000000Y-117334660D03*
D12*
X153000000Y-102094660D03*
D13*
X161555000Y-130460000D03*
D14*
X161555000Y-133000000D03*
X161555000Y-135540000D03*
D15*
X145610000Y-138110000D03*
D16*
X145610000Y-133110000D03*
X123360000Y-98500000D03*
X125060000Y-88500000D03*
D17*
X137460000Y-90100000D03*
D18*
X142540000Y-90100000D03*
D15*
X134290000Y-138110000D03*
D16*
X134290000Y-133110000D03*
D19*
X142500000Y-97485000D03*
D20*
X137500000Y-97485000D03*
X147700000Y-126885000D03*
X132300000Y-126885000D03*
D10*
X124080000Y-131148200D03*
X124080000Y-108948600D03*
D17*
X154273332Y-145500000D03*
D18*
X149193332Y-145500000D03*
D17*
X130806666Y-145500000D03*
D18*
X125726666Y-145500000D03*
D21*
X157598200Y-90100000D02*
X142540000Y-90100000D01*
X162750000Y-95251800D02*
X157598200Y-90100000D01*
X162750000Y-117451400D02*
X153116740Y-117451400D01*
X124080000Y-108948600D02*
X124080000Y-118900000D01*
X124080000Y-118900000D02*
X132065000Y-126885000D01*
X132140000Y-133110000D02*
X134290000Y-133110000D01*
X154110000Y-133110000D02*
X161445000Y-133110000D01*
X130806666Y-134443334D02*
X132140000Y-133110000D01*
X141110000Y-133110000D02*
X134290000Y-133110000D01*
X140515000Y-132515000D02*
X141110000Y-133110000D01*
X140515000Y-126885000D02*
X140515000Y-132515000D01*
X145610000Y-133110000D02*
X154110000Y-133110000D01*
X130806666Y-145500000D02*
X130806666Y-134443334D01*
X145610000Y-133110000D02*
X141110000Y-133110000D01*
X161445000Y-133110000D02*
X161555000Y-133000000D01*
X154273332Y-145500000D02*
X154273332Y-133273332D01*
X154273332Y-133273332D02*
X154110000Y-133110000D01*
X147465000Y-126885000D02*
X140515000Y-126885000D01*
X137460000Y-97445000D02*
X137500000Y-97485000D01*
X125060000Y-88500000D02*
X135860000Y-88500000D01*
X137460000Y-90100000D02*
X137460000Y-97445000D01*
X135860000Y-88500000D02*
X137460000Y-90100000D01*
X152750000Y-97500000D02*
X153000000Y-97750000D01*
X153000000Y-97750000D02*
X153000000Y-102094660D01*
X139500000Y-104000000D02*
X142265000Y-101235000D01*
X135000000Y-104000000D02*
X139500000Y-104000000D01*
X129500000Y-98500000D02*
X135000000Y-104000000D01*
X142265000Y-97485000D02*
X149485000Y-97485000D01*
X142265000Y-101235000D02*
X142265000Y-97485000D01*
X149485000Y-97485000D02*
X149500000Y-97500000D01*
X123360000Y-98500000D02*
X129500000Y-98500000D01*
X149500000Y-97500000D02*
X152750000Y-97500000D01*
M02*
