G04 #@! TF.GenerationSoftware,KiCad,Pcbnew,(6.0.4-0)*
G04 #@! TF.CreationDate,2022-08-24T21:29:39+02:00*
G04 #@! TF.ProjectId,Power Supply,506f7765-7220-4537-9570-706c792e6b69,rev?*
G04 #@! TF.SameCoordinates,Original*
G04 #@! TF.FileFunction,Legend,Top*
G04 #@! TF.FilePolarity,Positive*
%FSLAX46Y46*%
G04 Gerber Fmt 4.6, Leading zero omitted, Abs format (unit mm)*
G04 Created by KiCad (PCBNEW (6.0.4-0)) date 2022-08-24 21:29:39*
%MOMM*%
%LPD*%
G01*
G04 APERTURE LIST*
G04 Aperture macros list*
%AMRoundRect*
0 Rectangle with rounded corners*
0 $1 Rounding radius*
0 $2 $3 $4 $5 $6 $7 $8 $9 X,Y pos of 4 corners*
0 Add a 4 corners polygon primitive as box body*
4,1,4,$2,$3,$4,$5,$6,$7,$8,$9,$2,$3,0*
0 Add four circle primitives for the rounded corners*
1,1,$1+$1,$2,$3*
1,1,$1+$1,$4,$5*
1,1,$1+$1,$6,$7*
1,1,$1+$1,$8,$9*
0 Add four rect primitives between the rounded corners*
20,1,$1+$1,$2,$3,$4,$5,0*
20,1,$1+$1,$4,$5,$6,$7,0*
20,1,$1+$1,$6,$7,$8,$9,0*
20,1,$1+$1,$8,$9,$2,$3,0*%
G04 Aperture macros list end*
%ADD10C,0.250000*%
%ADD11C,0.125000*%
%ADD12C,0.150000*%
%ADD13C,0.304800*%
%ADD14C,0.120000*%
%ADD15C,3.500000*%
%ADD16C,3.900000*%
%ADD17C,2.800000*%
%ADD18O,2.800000X2.800000*%
%ADD19RoundRect,0.200000X-1.000000X0.952500X-1.000000X-0.952500X1.000000X-0.952500X1.000000X0.952500X0*%
%ADD20O,2.400000X2.305000*%
%ADD21C,3.600000*%
%ADD22RoundRect,0.200000X1.000000X-1.000000X1.000000X1.000000X-1.000000X1.000000X-1.000000X-1.000000X0*%
%ADD23C,2.400000*%
%ADD24RoundRect,0.200000X-1.500000X-1.500000X1.500000X-1.500000X1.500000X1.500000X-1.500000X1.500000X0*%
%ADD25C,3.400000*%
%ADD26RoundRect,0.200000X-1.000000X1.150000X-1.000000X-1.150000X1.000000X-1.150000X1.000000X1.150000X0*%
%ADD27C,2.700000*%
%ADD28RoundRect,0.450000X0.325000X0.450000X-0.325000X0.450000X-0.325000X-0.450000X0.325000X-0.450000X0*%
%ADD29RoundRect,0.450000X-0.325000X-0.450000X0.325000X-0.450000X0.325000X0.450000X-0.325000X0.450000X0*%
%ADD30RoundRect,0.200000X1.500000X1.500000X-1.500000X1.500000X-1.500000X-1.500000X1.500000X-1.500000X0*%
G04 APERTURE END LIST*
D10*
X144330285Y-82542571D02*
X144258857Y-82614000D01*
X144116000Y-82685428D01*
X143758857Y-82685428D01*
X143616000Y-82614000D01*
X143544571Y-82542571D01*
X143473142Y-82399714D01*
X143473142Y-82256857D01*
X143544571Y-82042571D01*
X144401714Y-81185428D01*
X143473142Y-81185428D01*
X142973142Y-82685428D02*
X142044571Y-82685428D01*
X142544571Y-82114000D01*
X142330285Y-82114000D01*
X142187428Y-82042571D01*
X142116000Y-81971142D01*
X142044571Y-81828285D01*
X142044571Y-81471142D01*
X142116000Y-81328285D01*
X142187428Y-81256857D01*
X142330285Y-81185428D01*
X142758857Y-81185428D01*
X142901714Y-81256857D01*
X142973142Y-81328285D01*
X141116000Y-82685428D02*
X140973142Y-82685428D01*
X140830285Y-82614000D01*
X140758857Y-82542571D01*
X140687428Y-82399714D01*
X140616000Y-82114000D01*
X140616000Y-81756857D01*
X140687428Y-81471142D01*
X140758857Y-81328285D01*
X140830285Y-81256857D01*
X140973142Y-81185428D01*
X141116000Y-81185428D01*
X141258857Y-81256857D01*
X141330285Y-81328285D01*
X141401714Y-81471142D01*
X141473142Y-81756857D01*
X141473142Y-82114000D01*
X141401714Y-82399714D01*
X141330285Y-82542571D01*
X141258857Y-82614000D01*
X141116000Y-82685428D01*
X140187428Y-82685428D02*
X139687428Y-81185428D01*
X139187428Y-82685428D01*
X137616000Y-81614000D02*
X136901714Y-81614000D01*
X137758857Y-81185428D02*
X137258857Y-82685428D01*
X136758857Y-81185428D01*
X135401714Y-81328285D02*
X135473142Y-81256857D01*
X135687428Y-81185428D01*
X135830285Y-81185428D01*
X136044571Y-81256857D01*
X136187428Y-81399714D01*
X136258857Y-81542571D01*
X136330285Y-81828285D01*
X136330285Y-82042571D01*
X136258857Y-82328285D01*
X136187428Y-82471142D01*
X136044571Y-82614000D01*
X135830285Y-82685428D01*
X135687428Y-82685428D01*
X135473142Y-82614000D01*
X135401714Y-82542571D01*
X118738095Y-142571428D02*
X119500000Y-142571428D01*
X119119047Y-142952380D02*
X119119047Y-142190476D01*
X120500000Y-142952380D02*
X119928571Y-142952380D01*
X120214285Y-142952380D02*
X120214285Y-141952380D01*
X120119047Y-142095238D01*
X120023809Y-142190476D01*
X119928571Y-142238095D01*
X120880952Y-142047619D02*
X120928571Y-142000000D01*
X121023809Y-141952380D01*
X121261904Y-141952380D01*
X121357142Y-142000000D01*
X121404761Y-142047619D01*
X121452380Y-142142857D01*
X121452380Y-142238095D01*
X121404761Y-142380952D01*
X120833333Y-142952380D01*
X121452380Y-142952380D01*
X121738095Y-141952380D02*
X122071428Y-142952380D01*
X122404761Y-141952380D01*
X143214285Y-142571428D02*
X143976190Y-142571428D01*
X143595238Y-142952380D02*
X143595238Y-142190476D01*
X144595238Y-142380952D02*
X144500000Y-142333333D01*
X144452380Y-142285714D01*
X144404761Y-142190476D01*
X144404761Y-142142857D01*
X144452380Y-142047619D01*
X144500000Y-142000000D01*
X144595238Y-141952380D01*
X144785714Y-141952380D01*
X144880952Y-142000000D01*
X144928571Y-142047619D01*
X144976190Y-142142857D01*
X144976190Y-142190476D01*
X144928571Y-142285714D01*
X144880952Y-142333333D01*
X144785714Y-142380952D01*
X144595238Y-142380952D01*
X144500000Y-142428571D01*
X144452380Y-142476190D01*
X144404761Y-142571428D01*
X144404761Y-142761904D01*
X144452380Y-142857142D01*
X144500000Y-142904761D01*
X144595238Y-142952380D01*
X144785714Y-142952380D01*
X144880952Y-142904761D01*
X144928571Y-142857142D01*
X144976190Y-142761904D01*
X144976190Y-142571428D01*
X144928571Y-142476190D01*
X144880952Y-142428571D01*
X144785714Y-142380952D01*
X145261904Y-141952380D02*
X145595238Y-142952380D01*
X145928571Y-141952380D01*
X142473142Y-83725428D02*
X143187428Y-83725428D01*
X143187428Y-85225428D01*
X137401714Y-83725428D02*
X137401714Y-85225428D01*
X136544571Y-83725428D01*
X136544571Y-85225428D01*
X112826857Y-126621428D02*
X111626857Y-126621428D01*
X111626857Y-126164285D01*
X111684000Y-126050000D01*
X111741142Y-125992857D01*
X111855428Y-125935714D01*
X112026857Y-125935714D01*
X112141142Y-125992857D01*
X112198285Y-126050000D01*
X112255428Y-126164285D01*
X112255428Y-126621428D01*
X112826857Y-125421428D02*
X112026857Y-125421428D01*
X112255428Y-125421428D02*
X112141142Y-125364285D01*
X112084000Y-125307142D01*
X112026857Y-125192857D01*
X112026857Y-125078571D01*
X112769714Y-124221428D02*
X112826857Y-124335714D01*
X112826857Y-124564285D01*
X112769714Y-124678571D01*
X112655428Y-124735714D01*
X112198285Y-124735714D01*
X112084000Y-124678571D01*
X112026857Y-124564285D01*
X112026857Y-124335714D01*
X112084000Y-124221428D01*
X112198285Y-124164285D01*
X112312571Y-124164285D01*
X112426857Y-124735714D01*
X112369714Y-123650000D02*
X112369714Y-122735714D01*
X112826857Y-121650000D02*
X112198285Y-121650000D01*
X112084000Y-121707142D01*
X112026857Y-121821428D01*
X112026857Y-122050000D01*
X112084000Y-122164285D01*
X112769714Y-121650000D02*
X112826857Y-121764285D01*
X112826857Y-122050000D01*
X112769714Y-122164285D01*
X112655428Y-122221428D01*
X112541142Y-122221428D01*
X112426857Y-122164285D01*
X112369714Y-122050000D01*
X112369714Y-121764285D01*
X112312571Y-121650000D01*
X112826857Y-121078571D02*
X112026857Y-121078571D01*
X112141142Y-121078571D02*
X112084000Y-121021428D01*
X112026857Y-120907142D01*
X112026857Y-120735714D01*
X112084000Y-120621428D01*
X112198285Y-120564285D01*
X112826857Y-120564285D01*
X112198285Y-120564285D02*
X112084000Y-120507142D01*
X112026857Y-120392857D01*
X112026857Y-120221428D01*
X112084000Y-120107142D01*
X112198285Y-120050000D01*
X112826857Y-120050000D01*
X112026857Y-119478571D02*
X113226857Y-119478571D01*
X112084000Y-119478571D02*
X112026857Y-119364285D01*
X112026857Y-119135714D01*
X112084000Y-119021428D01*
X112141142Y-118964285D01*
X112255428Y-118907142D01*
X112598285Y-118907142D01*
X112712571Y-118964285D01*
X112769714Y-119021428D01*
X112826857Y-119135714D01*
X112826857Y-119364285D01*
X112769714Y-119478571D01*
X112769714Y-116964285D02*
X112826857Y-117078571D01*
X112826857Y-117307142D01*
X112769714Y-117421428D01*
X112712571Y-117478571D01*
X112598285Y-117535714D01*
X112255428Y-117535714D01*
X112141142Y-117478571D01*
X112084000Y-117421428D01*
X112026857Y-117307142D01*
X112026857Y-117078571D01*
X112084000Y-116964285D01*
X112826857Y-116278571D02*
X112769714Y-116392857D01*
X112712571Y-116450000D01*
X112598285Y-116507142D01*
X112255428Y-116507142D01*
X112141142Y-116450000D01*
X112084000Y-116392857D01*
X112026857Y-116278571D01*
X112026857Y-116107142D01*
X112084000Y-115992857D01*
X112141142Y-115935714D01*
X112255428Y-115878571D01*
X112598285Y-115878571D01*
X112712571Y-115935714D01*
X112769714Y-115992857D01*
X112826857Y-116107142D01*
X112826857Y-116278571D01*
X112026857Y-115364285D02*
X112826857Y-115364285D01*
X112141142Y-115364285D02*
X112084000Y-115307142D01*
X112026857Y-115192857D01*
X112026857Y-115021428D01*
X112084000Y-114907142D01*
X112198285Y-114850000D01*
X112826857Y-114850000D01*
X112026857Y-114450000D02*
X112026857Y-113992857D01*
X111626857Y-114278571D02*
X112655428Y-114278571D01*
X112769714Y-114221428D01*
X112826857Y-114107142D01*
X112826857Y-113992857D01*
X112826857Y-113592857D02*
X112026857Y-113592857D01*
X112255428Y-113592857D02*
X112141142Y-113535714D01*
X112084000Y-113478571D01*
X112026857Y-113364285D01*
X112026857Y-113250000D01*
X112826857Y-112678571D02*
X112769714Y-112792857D01*
X112712571Y-112850000D01*
X112598285Y-112907142D01*
X112255428Y-112907142D01*
X112141142Y-112850000D01*
X112084000Y-112792857D01*
X112026857Y-112678571D01*
X112026857Y-112507142D01*
X112084000Y-112392857D01*
X112141142Y-112335714D01*
X112255428Y-112278571D01*
X112598285Y-112278571D01*
X112712571Y-112335714D01*
X112769714Y-112392857D01*
X112826857Y-112507142D01*
X112826857Y-112678571D01*
X112826857Y-111592857D02*
X112769714Y-111707142D01*
X112655428Y-111764285D01*
X111626857Y-111764285D01*
X112826857Y-110964285D02*
X112769714Y-111078571D01*
X112655428Y-111135714D01*
X111626857Y-111135714D01*
X112769714Y-110050000D02*
X112826857Y-110164285D01*
X112826857Y-110392857D01*
X112769714Y-110507142D01*
X112655428Y-110564285D01*
X112198285Y-110564285D01*
X112084000Y-110507142D01*
X112026857Y-110392857D01*
X112026857Y-110164285D01*
X112084000Y-110050000D01*
X112198285Y-109992857D01*
X112312571Y-109992857D01*
X112426857Y-110564285D01*
X112826857Y-109478571D02*
X112026857Y-109478571D01*
X112255428Y-109478571D02*
X112141142Y-109421428D01*
X112084000Y-109364285D01*
X112026857Y-109250000D01*
X112026857Y-109135714D01*
X112826857Y-107821428D02*
X111626857Y-107821428D01*
X111626857Y-107364285D01*
X111684000Y-107250000D01*
X111741142Y-107192857D01*
X111855428Y-107135714D01*
X112026857Y-107135714D01*
X112141142Y-107192857D01*
X112198285Y-107250000D01*
X112255428Y-107364285D01*
X112255428Y-107821428D01*
X112769714Y-106678571D02*
X112826857Y-106507142D01*
X112826857Y-106221428D01*
X112769714Y-106107142D01*
X112712571Y-106050000D01*
X112598285Y-105992857D01*
X112484000Y-105992857D01*
X112369714Y-106050000D01*
X112312571Y-106107142D01*
X112255428Y-106221428D01*
X112198285Y-106450000D01*
X112141142Y-106564285D01*
X112084000Y-106621428D01*
X111969714Y-106678571D01*
X111855428Y-106678571D01*
X111741142Y-106621428D01*
X111684000Y-106564285D01*
X111626857Y-106450000D01*
X111626857Y-106164285D01*
X111684000Y-105992857D01*
X111626857Y-105478571D02*
X112598285Y-105478571D01*
X112712571Y-105421428D01*
X112769714Y-105364285D01*
X112826857Y-105250000D01*
X112826857Y-105021428D01*
X112769714Y-104907142D01*
X112712571Y-104850000D01*
X112598285Y-104792857D01*
X111626857Y-104792857D01*
X112826857Y-103307142D02*
X111626857Y-103307142D01*
X112084000Y-103307142D02*
X112026857Y-103192857D01*
X112026857Y-102964285D01*
X112084000Y-102850000D01*
X112141142Y-102792857D01*
X112255428Y-102735714D01*
X112598285Y-102735714D01*
X112712571Y-102792857D01*
X112769714Y-102850000D01*
X112826857Y-102964285D01*
X112826857Y-103192857D01*
X112769714Y-103307142D01*
X112026857Y-102335714D02*
X112826857Y-102050000D01*
X112026857Y-101764285D02*
X112826857Y-102050000D01*
X113112571Y-102164285D01*
X113169714Y-102221428D01*
X113226857Y-102335714D01*
X114644571Y-130335714D02*
X114701714Y-130392857D01*
X114758857Y-130564285D01*
X114758857Y-130678571D01*
X114701714Y-130850000D01*
X114587428Y-130964285D01*
X114473142Y-131021428D01*
X114244571Y-131078571D01*
X114073142Y-131078571D01*
X113844571Y-131021428D01*
X113730285Y-130964285D01*
X113616000Y-130850000D01*
X113558857Y-130678571D01*
X113558857Y-130564285D01*
X113616000Y-130392857D01*
X113673142Y-130335714D01*
X114758857Y-129307142D02*
X114130285Y-129307142D01*
X114016000Y-129364285D01*
X113958857Y-129478571D01*
X113958857Y-129707142D01*
X114016000Y-129821428D01*
X114701714Y-129307142D02*
X114758857Y-129421428D01*
X114758857Y-129707142D01*
X114701714Y-129821428D01*
X114587428Y-129878571D01*
X114473142Y-129878571D01*
X114358857Y-129821428D01*
X114301714Y-129707142D01*
X114301714Y-129421428D01*
X114244571Y-129307142D01*
X114758857Y-128735714D02*
X113958857Y-128735714D01*
X114187428Y-128735714D02*
X114073142Y-128678571D01*
X114016000Y-128621428D01*
X113958857Y-128507142D01*
X113958857Y-128392857D01*
X114701714Y-128050000D02*
X114758857Y-127935714D01*
X114758857Y-127707142D01*
X114701714Y-127592857D01*
X114587428Y-127535714D01*
X114530285Y-127535714D01*
X114416000Y-127592857D01*
X114358857Y-127707142D01*
X114358857Y-127878571D01*
X114301714Y-127992857D01*
X114187428Y-128050000D01*
X114130285Y-128050000D01*
X114016000Y-127992857D01*
X113958857Y-127878571D01*
X113958857Y-127707142D01*
X114016000Y-127592857D01*
X113958857Y-127192857D02*
X113958857Y-126735714D01*
X113558857Y-127021428D02*
X114587428Y-127021428D01*
X114701714Y-126964285D01*
X114758857Y-126850000D01*
X114758857Y-126735714D01*
X114701714Y-125878571D02*
X114758857Y-125992857D01*
X114758857Y-126221428D01*
X114701714Y-126335714D01*
X114587428Y-126392857D01*
X114130285Y-126392857D01*
X114016000Y-126335714D01*
X113958857Y-126221428D01*
X113958857Y-125992857D01*
X114016000Y-125878571D01*
X114130285Y-125821428D01*
X114244571Y-125821428D01*
X114358857Y-126392857D01*
X113958857Y-125307142D02*
X114758857Y-125307142D01*
X114073142Y-125307142D02*
X114016000Y-125250000D01*
X113958857Y-125135714D01*
X113958857Y-124964285D01*
X114016000Y-124850000D01*
X114130285Y-124792857D01*
X114758857Y-124792857D01*
X113616000Y-122678571D02*
X113558857Y-122792857D01*
X113558857Y-122964285D01*
X113616000Y-123135714D01*
X113730285Y-123250000D01*
X113844571Y-123307142D01*
X114073142Y-123364285D01*
X114244571Y-123364285D01*
X114473142Y-123307142D01*
X114587428Y-123250000D01*
X114701714Y-123135714D01*
X114758857Y-122964285D01*
X114758857Y-122850000D01*
X114701714Y-122678571D01*
X114644571Y-122621428D01*
X114244571Y-122621428D01*
X114244571Y-122850000D01*
X114758857Y-122107142D02*
X113958857Y-122107142D01*
X114187428Y-122107142D02*
X114073142Y-122050000D01*
X114016000Y-121992857D01*
X113958857Y-121878571D01*
X113958857Y-121764285D01*
X113958857Y-120735714D02*
X114758857Y-121478571D01*
X114758857Y-121192857D02*
X114701714Y-121307142D01*
X114644571Y-121364285D01*
X114530285Y-121421428D01*
X114187428Y-121421428D01*
X114073142Y-121364285D01*
X114016000Y-121307142D01*
X113958857Y-121192857D01*
X113958857Y-121021428D01*
X114016000Y-120907142D01*
X114073142Y-120850000D01*
X114187428Y-120792857D01*
X114530285Y-120792857D01*
X114644571Y-120850000D01*
X114701714Y-120907142D01*
X114758857Y-121021428D01*
X114758857Y-121192857D01*
X113958857Y-120278571D02*
X114758857Y-120278571D01*
X114073142Y-120278571D02*
X114016000Y-120221428D01*
X113958857Y-120107142D01*
X113958857Y-119935714D01*
X114016000Y-119821428D01*
X114130285Y-119764285D01*
X114758857Y-119764285D01*
X113958857Y-119192857D02*
X114758857Y-119192857D01*
X114073142Y-119192857D02*
X114016000Y-119135714D01*
X113958857Y-119021428D01*
X113958857Y-118850000D01*
X114016000Y-118735714D01*
X114130285Y-118678571D01*
X114758857Y-118678571D01*
X114758857Y-118107142D02*
X113958857Y-118107142D01*
X113558857Y-118107142D02*
X113616000Y-118164285D01*
X113673142Y-118107142D01*
X113616000Y-118050000D01*
X113558857Y-118107142D01*
X113673142Y-118107142D01*
X113958857Y-117535714D02*
X114758857Y-117535714D01*
X114073142Y-117535714D02*
X114016000Y-117478571D01*
X113958857Y-117364285D01*
X113958857Y-117192857D01*
X114016000Y-117078571D01*
X114130285Y-117021428D01*
X114758857Y-117021428D01*
X113958857Y-115935714D02*
X114930285Y-115935714D01*
X115044571Y-115992857D01*
X115101714Y-116050000D01*
X115158857Y-116164285D01*
X115158857Y-116335714D01*
X115101714Y-116450000D01*
X114701714Y-115935714D02*
X114758857Y-116050000D01*
X114758857Y-116278571D01*
X114701714Y-116392857D01*
X114644571Y-116450000D01*
X114530285Y-116507142D01*
X114187428Y-116507142D01*
X114073142Y-116450000D01*
X114016000Y-116392857D01*
X113958857Y-116278571D01*
X113958857Y-116050000D01*
X114016000Y-115935714D01*
X114758857Y-113478571D02*
X114758857Y-113535714D01*
X114701714Y-113650000D01*
X114530285Y-113821428D01*
X114187428Y-114107142D01*
X114016000Y-114221428D01*
X113844571Y-114278571D01*
X113730285Y-114278571D01*
X113616000Y-114221428D01*
X113558857Y-114107142D01*
X113558857Y-114050000D01*
X113616000Y-113935714D01*
X113730285Y-113878571D01*
X113787428Y-113878571D01*
X113901714Y-113935714D01*
X113958857Y-113992857D01*
X114187428Y-114335714D01*
X114244571Y-114392857D01*
X114358857Y-114450000D01*
X114530285Y-114450000D01*
X114644571Y-114392857D01*
X114701714Y-114335714D01*
X114758857Y-114221428D01*
X114758857Y-114050000D01*
X114701714Y-113935714D01*
X114644571Y-113878571D01*
X114416000Y-113707142D01*
X114244571Y-113650000D01*
X114130285Y-113650000D01*
X113558857Y-111707142D02*
X114416000Y-111707142D01*
X114587428Y-111764285D01*
X114701714Y-111878571D01*
X114758857Y-112050000D01*
X114758857Y-112164285D01*
X114758857Y-110621428D02*
X114130285Y-110621428D01*
X114016000Y-110678571D01*
X113958857Y-110792857D01*
X113958857Y-111021428D01*
X114016000Y-111135714D01*
X114701714Y-110621428D02*
X114758857Y-110735714D01*
X114758857Y-111021428D01*
X114701714Y-111135714D01*
X114587428Y-111192857D01*
X114473142Y-111192857D01*
X114358857Y-111135714D01*
X114301714Y-111021428D01*
X114301714Y-110735714D01*
X114244571Y-110621428D01*
X113958857Y-110050000D02*
X114758857Y-110050000D01*
X114073142Y-110050000D02*
X114016000Y-109992857D01*
X113958857Y-109878571D01*
X113958857Y-109707142D01*
X114016000Y-109592857D01*
X114130285Y-109535714D01*
X114758857Y-109535714D01*
X113558857Y-108221428D02*
X113558857Y-107535714D01*
X114758857Y-107878571D02*
X113558857Y-107878571D01*
X114758857Y-106964285D02*
X114701714Y-107078571D01*
X114644571Y-107135714D01*
X114530285Y-107192857D01*
X114187428Y-107192857D01*
X114073142Y-107135714D01*
X114016000Y-107078571D01*
X113958857Y-106964285D01*
X113958857Y-106792857D01*
X114016000Y-106678571D01*
X114073142Y-106621428D01*
X114187428Y-106564285D01*
X114530285Y-106564285D01*
X114644571Y-106621428D01*
X114701714Y-106678571D01*
X114758857Y-106792857D01*
X114758857Y-106964285D01*
X113958857Y-106221428D02*
X113958857Y-105764285D01*
X114758857Y-106050000D02*
X113730285Y-106050000D01*
X113616000Y-105992857D01*
X113558857Y-105878571D01*
X113558857Y-105764285D01*
X113958857Y-105535714D02*
X113958857Y-105078571D01*
X114758857Y-105364285D02*
X113730285Y-105364285D01*
X113616000Y-105307142D01*
X113558857Y-105192857D01*
X113558857Y-105078571D01*
X113958857Y-104850000D02*
X113958857Y-104392857D01*
X113558857Y-104678571D02*
X114587428Y-104678571D01*
X114701714Y-104621428D01*
X114758857Y-104507142D01*
X114758857Y-104392857D01*
X115216000Y-102735714D02*
X115158857Y-102792857D01*
X114987428Y-102907142D01*
X114873142Y-102964285D01*
X114701714Y-103021428D01*
X114416000Y-103078571D01*
X114187428Y-103078571D01*
X113901714Y-103021428D01*
X113730285Y-102964285D01*
X113616000Y-102907142D01*
X113444571Y-102792857D01*
X113387428Y-102735714D01*
X113673142Y-102335714D02*
X113616000Y-102278571D01*
X113558857Y-102164285D01*
X113558857Y-101878571D01*
X113616000Y-101764285D01*
X113673142Y-101707142D01*
X113787428Y-101650000D01*
X113901714Y-101650000D01*
X114073142Y-101707142D01*
X114758857Y-102392857D01*
X114758857Y-101650000D01*
X113558857Y-100907142D02*
X113558857Y-100792857D01*
X113616000Y-100678571D01*
X113673142Y-100621428D01*
X113787428Y-100564285D01*
X114016000Y-100507142D01*
X114301714Y-100507142D01*
X114530285Y-100564285D01*
X114644571Y-100621428D01*
X114701714Y-100678571D01*
X114758857Y-100792857D01*
X114758857Y-100907142D01*
X114701714Y-101021428D01*
X114644571Y-101078571D01*
X114530285Y-101135714D01*
X114301714Y-101192857D01*
X114016000Y-101192857D01*
X113787428Y-101135714D01*
X113673142Y-101078571D01*
X113616000Y-101021428D01*
X113558857Y-100907142D01*
X113673142Y-100050000D02*
X113616000Y-99992857D01*
X113558857Y-99878571D01*
X113558857Y-99592857D01*
X113616000Y-99478571D01*
X113673142Y-99421428D01*
X113787428Y-99364285D01*
X113901714Y-99364285D01*
X114073142Y-99421428D01*
X114758857Y-100107142D01*
X114758857Y-99364285D01*
X113673142Y-98907142D02*
X113616000Y-98850000D01*
X113558857Y-98735714D01*
X113558857Y-98450000D01*
X113616000Y-98335714D01*
X113673142Y-98278571D01*
X113787428Y-98221428D01*
X113901714Y-98221428D01*
X114073142Y-98278571D01*
X114758857Y-98964285D01*
X114758857Y-98221428D01*
X115216000Y-97821428D02*
X115158857Y-97764285D01*
X114987428Y-97650000D01*
X114873142Y-97592857D01*
X114701714Y-97535714D01*
X114416000Y-97478571D01*
X114187428Y-97478571D01*
X113901714Y-97535714D01*
X113730285Y-97592857D01*
X113616000Y-97650000D01*
X113444571Y-97764285D01*
X113387428Y-97821428D01*
D11*
X159379285Y-107573333D02*
X159379285Y-107996666D01*
X160044523Y-107996666D02*
X158774523Y-107996666D01*
X158774523Y-107391904D01*
X160044523Y-106242857D02*
X160044523Y-106968571D01*
X160044523Y-106605714D02*
X158774523Y-106605714D01*
X158955952Y-106726666D01*
X159076904Y-106847619D01*
X159137380Y-106968571D01*
D12*
X153123571Y-110557993D02*
X153123571Y-110891326D01*
X153647380Y-110891326D02*
X152647380Y-110891326D01*
X152647380Y-110415136D01*
X152742619Y-110081802D02*
X152695000Y-110034183D01*
X152647380Y-109938945D01*
X152647380Y-109700850D01*
X152695000Y-109605612D01*
X152742619Y-109557993D01*
X152837857Y-109510374D01*
X152933095Y-109510374D01*
X153075952Y-109557993D01*
X153647380Y-110129421D01*
X153647380Y-109510374D01*
X160202380Y-127011904D02*
X161011904Y-127011904D01*
X161107142Y-126964285D01*
X161154761Y-126916666D01*
X161202380Y-126821428D01*
X161202380Y-126630952D01*
X161154761Y-126535714D01*
X161107142Y-126488095D01*
X161011904Y-126440476D01*
X160202380Y-126440476D01*
X160535714Y-125535714D02*
X161202380Y-125535714D01*
X160154761Y-125773809D02*
X160869047Y-126011904D01*
X160869047Y-125392857D01*
X140943333Y-140987142D02*
X140895714Y-141034761D01*
X140752857Y-141082380D01*
X140657619Y-141082380D01*
X140514761Y-141034761D01*
X140419523Y-140939523D01*
X140371904Y-140844285D01*
X140324285Y-140653809D01*
X140324285Y-140510952D01*
X140371904Y-140320476D01*
X140419523Y-140225238D01*
X140514761Y-140130000D01*
X140657619Y-140082380D01*
X140752857Y-140082380D01*
X140895714Y-140130000D01*
X140943333Y-140177619D01*
X141324285Y-140177619D02*
X141371904Y-140130000D01*
X141467142Y-140082380D01*
X141705238Y-140082380D01*
X141800476Y-140130000D01*
X141848095Y-140177619D01*
X141895714Y-140272857D01*
X141895714Y-140368095D01*
X141848095Y-140510952D01*
X141276666Y-141082380D01*
X141895714Y-141082380D01*
X124787380Y-94115238D02*
X124311190Y-94448571D01*
X124787380Y-94686666D02*
X123787380Y-94686666D01*
X123787380Y-94305714D01*
X123835000Y-94210476D01*
X123882619Y-94162857D01*
X123977857Y-94115238D01*
X124120714Y-94115238D01*
X124215952Y-94162857D01*
X124263571Y-94210476D01*
X124311190Y-94305714D01*
X124311190Y-94686666D01*
X123787380Y-93829523D02*
X124787380Y-93496190D01*
X123787380Y-93162857D01*
X124787380Y-92305714D02*
X124787380Y-92877142D01*
X124787380Y-92591428D02*
X123787380Y-92591428D01*
X123930238Y-92686666D01*
X124025476Y-92781904D01*
X124073095Y-92877142D01*
X139626666Y-86852380D02*
X139626666Y-87566666D01*
X139579047Y-87709523D01*
X139483809Y-87804761D01*
X139340952Y-87852380D01*
X139245714Y-87852380D01*
X140626666Y-87852380D02*
X140055238Y-87852380D01*
X140340952Y-87852380D02*
X140340952Y-86852380D01*
X140245714Y-86995238D01*
X140150476Y-87090476D01*
X140055238Y-87138095D01*
X129643333Y-140887142D02*
X129595714Y-140934761D01*
X129452857Y-140982380D01*
X129357619Y-140982380D01*
X129214761Y-140934761D01*
X129119523Y-140839523D01*
X129071904Y-140744285D01*
X129024285Y-140553809D01*
X129024285Y-140410952D01*
X129071904Y-140220476D01*
X129119523Y-140125238D01*
X129214761Y-140030000D01*
X129357619Y-139982380D01*
X129452857Y-139982380D01*
X129595714Y-140030000D01*
X129643333Y-140077619D01*
X130595714Y-140982380D02*
X130024285Y-140982380D01*
X130310000Y-140982380D02*
X130310000Y-139982380D01*
X130214761Y-140125238D01*
X130119523Y-140220476D01*
X130024285Y-140268095D01*
X138980714Y-115262380D02*
X138980714Y-114262380D01*
X139361666Y-114262380D01*
X139456904Y-114310000D01*
X139504523Y-114357619D01*
X139552142Y-114452857D01*
X139552142Y-114595714D01*
X139504523Y-114690952D01*
X139456904Y-114738571D01*
X139361666Y-114786190D01*
X138980714Y-114786190D01*
X139933095Y-115214761D02*
X140075952Y-115262380D01*
X140314047Y-115262380D01*
X140409285Y-115214761D01*
X140456904Y-115167142D01*
X140504523Y-115071904D01*
X140504523Y-114976666D01*
X140456904Y-114881428D01*
X140409285Y-114833809D01*
X140314047Y-114786190D01*
X140123571Y-114738571D01*
X140028333Y-114690952D01*
X139980714Y-114643333D01*
X139933095Y-114548095D01*
X139933095Y-114452857D01*
X139980714Y-114357619D01*
X140028333Y-114310000D01*
X140123571Y-114262380D01*
X140361666Y-114262380D01*
X140504523Y-114310000D01*
X141456904Y-115262380D02*
X140885476Y-115262380D01*
X141171190Y-115262380D02*
X141171190Y-114262380D01*
X141075952Y-114405238D01*
X140980714Y-114500476D01*
X140885476Y-114548095D01*
D11*
X120679285Y-120533333D02*
X120679285Y-120956666D01*
X121344523Y-120956666D02*
X120074523Y-120956666D01*
X120074523Y-120351904D01*
X120074523Y-119989047D02*
X120074523Y-119202857D01*
X120558333Y-119626190D01*
X120558333Y-119444761D01*
X120618809Y-119323809D01*
X120679285Y-119263333D01*
X120800238Y-119202857D01*
X121102619Y-119202857D01*
X121223571Y-119263333D01*
X121284047Y-119323809D01*
X121344523Y-119444761D01*
X121344523Y-119807619D01*
X121284047Y-119928571D01*
X121223571Y-119989047D01*
D12*
X121061904Y-137642380D02*
X121061904Y-136642380D01*
X121300000Y-136642380D01*
X121442857Y-136690000D01*
X121538095Y-136785238D01*
X121585714Y-136880476D01*
X121633333Y-137070952D01*
X121633333Y-137213809D01*
X121585714Y-137404285D01*
X121538095Y-137499523D01*
X121442857Y-137594761D01*
X121300000Y-137642380D01*
X121061904Y-137642380D01*
X121966666Y-136642380D02*
X122585714Y-136642380D01*
X122252380Y-137023333D01*
X122395238Y-137023333D01*
X122490476Y-137070952D01*
X122538095Y-137118571D01*
X122585714Y-137213809D01*
X122585714Y-137451904D01*
X122538095Y-137547142D01*
X122490476Y-137594761D01*
X122395238Y-137642380D01*
X122109523Y-137642380D01*
X122014285Y-137594761D01*
X121966666Y-137547142D01*
X150944404Y-137652380D02*
X150944404Y-136652380D01*
X151182500Y-136652380D01*
X151325357Y-136700000D01*
X151420595Y-136795238D01*
X151468214Y-136890476D01*
X151515833Y-137080952D01*
X151515833Y-137223809D01*
X151468214Y-137414285D01*
X151420595Y-137509523D01*
X151325357Y-137604761D01*
X151182500Y-137652380D01*
X150944404Y-137652380D01*
X152372976Y-136985714D02*
X152372976Y-137652380D01*
X152134880Y-136604761D02*
X151896785Y-137319047D01*
X152515833Y-137319047D01*
X120957142Y-140042380D02*
X120623809Y-139566190D01*
X120385714Y-140042380D02*
X120385714Y-139042380D01*
X120766666Y-139042380D01*
X120861904Y-139090000D01*
X120909523Y-139137619D01*
X120957142Y-139232857D01*
X120957142Y-139375714D01*
X120909523Y-139470952D01*
X120861904Y-139518571D01*
X120766666Y-139566190D01*
X120385714Y-139566190D01*
X121909523Y-140042380D02*
X121338095Y-140042380D01*
X121623809Y-140042380D02*
X121623809Y-139042380D01*
X121528571Y-139185238D01*
X121433333Y-139280476D01*
X121338095Y-139328095D01*
X122861904Y-140042380D02*
X122290476Y-140042380D01*
X122576190Y-140042380D02*
X122576190Y-139042380D01*
X122480952Y-139185238D01*
X122385714Y-139280476D01*
X122290476Y-139328095D01*
X150572142Y-140102380D02*
X150238809Y-139626190D01*
X150000714Y-140102380D02*
X150000714Y-139102380D01*
X150381666Y-139102380D01*
X150476904Y-139150000D01*
X150524523Y-139197619D01*
X150572142Y-139292857D01*
X150572142Y-139435714D01*
X150524523Y-139530952D01*
X150476904Y-139578571D01*
X150381666Y-139626190D01*
X150000714Y-139626190D01*
X151524523Y-140102380D02*
X150953095Y-140102380D01*
X151238809Y-140102380D02*
X151238809Y-139102380D01*
X151143571Y-139245238D01*
X151048333Y-139340476D01*
X150953095Y-139388095D01*
X151905476Y-139197619D02*
X151953095Y-139150000D01*
X152048333Y-139102380D01*
X152286428Y-139102380D01*
X152381666Y-139150000D01*
X152429285Y-139197619D01*
X152476904Y-139292857D01*
X152476904Y-139388095D01*
X152429285Y-139530952D01*
X151857857Y-140102380D01*
X152476904Y-140102380D01*
X144959998Y-148352380D02*
X144959998Y-149066666D01*
X144912379Y-149209523D01*
X144817141Y-149304761D01*
X144674284Y-149352380D01*
X144579046Y-149352380D01*
X145340951Y-148352380D02*
X145959998Y-148352380D01*
X145626665Y-148733333D01*
X145769522Y-148733333D01*
X145864760Y-148780952D01*
X145912379Y-148828571D01*
X145959998Y-148923809D01*
X145959998Y-149161904D01*
X145912379Y-149257142D01*
X145864760Y-149304761D01*
X145769522Y-149352380D01*
X145483808Y-149352380D01*
X145388570Y-149304761D01*
X145340951Y-149257142D01*
X121533332Y-148352380D02*
X121533332Y-149066666D01*
X121485713Y-149209523D01*
X121390475Y-149304761D01*
X121247618Y-149352380D01*
X121152380Y-149352380D01*
X121961904Y-148447619D02*
X122009523Y-148400000D01*
X122104761Y-148352380D01*
X122342856Y-148352380D01*
X122438094Y-148400000D01*
X122485713Y-148447619D01*
X122533332Y-148542857D01*
X122533332Y-148638095D01*
X122485713Y-148780952D01*
X121914285Y-149352380D01*
X122533332Y-149352380D01*
D13*
X167751260Y-120253020D02*
X157748740Y-120253020D01*
X162750000Y-92252060D02*
X163750760Y-92252060D01*
X162750000Y-120253020D02*
X163750760Y-120253020D01*
X157748740Y-120253020D02*
X157748740Y-92252060D01*
X167751260Y-92252060D02*
X167751260Y-120253020D01*
X157748740Y-92252060D02*
X167751260Y-92252060D01*
D14*
X153000000Y-103534660D02*
X153000000Y-103644660D01*
X155370000Y-103644660D02*
X150630000Y-103644660D01*
X150630000Y-115784660D02*
X155370000Y-115784660D01*
X155370000Y-115784660D02*
X155370000Y-103644660D01*
X153000000Y-115894660D02*
X153000000Y-115784660D01*
X150630000Y-103644660D02*
X150630000Y-115784660D01*
X164825000Y-131150000D02*
X163315000Y-131150000D01*
X164825000Y-134851000D02*
X163315000Y-134851000D01*
X160184000Y-127880000D02*
X160184000Y-138120000D01*
X164825000Y-127880000D02*
X164825000Y-138120000D01*
X164825000Y-138120000D02*
X160184000Y-138120000D01*
X164825000Y-127880000D02*
X160184000Y-127880000D01*
X163315000Y-127880000D02*
X163315000Y-138120000D01*
X140620000Y-134649000D02*
X150600000Y-134649000D01*
X146851000Y-134049000D02*
X150447000Y-134049000D01*
X140545000Y-135210000D02*
X150675000Y-135210000D01*
X142840000Y-131329000D02*
X148380000Y-131329000D01*
X141530000Y-132569000D02*
X144369000Y-132569000D01*
X140725000Y-134209000D02*
X144369000Y-134209000D01*
X146851000Y-133889000D02*
X150393000Y-133889000D01*
X142090000Y-131929000D02*
X144369000Y-131929000D01*
X140773000Y-134049000D02*
X144369000Y-134049000D01*
X146851000Y-132249000D02*
X149434000Y-132249000D01*
X144548000Y-130609000D02*
X146672000Y-130609000D01*
X144100000Y-130729000D02*
X147120000Y-130729000D01*
X141065000Y-133329000D02*
X144369000Y-133329000D01*
X146851000Y-134009000D02*
X150434000Y-134009000D01*
X142965000Y-131249000D02*
X148255000Y-131249000D01*
X146851000Y-132729000D02*
X149804000Y-132729000D01*
X140530000Y-135610000D02*
X150690000Y-135610000D01*
X144380000Y-130649000D02*
X146840000Y-130649000D01*
X140560000Y-135050000D02*
X150660000Y-135050000D01*
X140760000Y-134089000D02*
X144369000Y-134089000D01*
X146851000Y-133609000D02*
X150284000Y-133609000D01*
X143485000Y-130969000D02*
X147735000Y-130969000D01*
X141263000Y-132969000D02*
X144369000Y-132969000D01*
X141416000Y-132729000D02*
X144369000Y-132729000D01*
X140645000Y-134529000D02*
X150575000Y-134529000D01*
X142309000Y-131729000D02*
X148911000Y-131729000D01*
X146851000Y-133089000D02*
X150027000Y-133089000D01*
X146851000Y-133529000D02*
X150249000Y-133529000D01*
X140575000Y-134930000D02*
X150645000Y-134930000D01*
X140552000Y-135130000D02*
X150668000Y-135130000D01*
X146851000Y-132409000D02*
X149567000Y-132409000D01*
X146851000Y-133809000D02*
X150364000Y-133809000D01*
X142235000Y-140589646D02*
X143235000Y-140589646D01*
X141312000Y-132889000D02*
X144369000Y-132889000D01*
X146851000Y-133849000D02*
X150378000Y-133849000D01*
X140799000Y-133969000D02*
X144369000Y-133969000D01*
X146851000Y-133689000D02*
X150317000Y-133689000D01*
X144232000Y-130689000D02*
X146988000Y-130689000D01*
X146851000Y-132449000D02*
X149599000Y-132449000D01*
X140636000Y-134569000D02*
X150584000Y-134569000D01*
X146851000Y-132609000D02*
X149720000Y-132609000D01*
X143245000Y-131089000D02*
X147975000Y-131089000D01*
X146851000Y-132009000D02*
X149211000Y-132009000D01*
X140692000Y-134329000D02*
X144369000Y-134329000D01*
X140592000Y-134809000D02*
X150628000Y-134809000D01*
X140842000Y-133849000D02*
X144369000Y-133849000D01*
X146851000Y-132849000D02*
X149883000Y-132849000D01*
X141363000Y-132809000D02*
X144369000Y-132809000D01*
X146851000Y-132889000D02*
X149908000Y-132889000D01*
X141718000Y-132329000D02*
X144369000Y-132329000D01*
X142901000Y-131289000D02*
X148319000Y-131289000D01*
X142132000Y-131889000D02*
X144369000Y-131889000D01*
X142780000Y-131369000D02*
X148440000Y-131369000D01*
X142721000Y-131409000D02*
X148499000Y-131409000D01*
X146851000Y-132089000D02*
X149289000Y-132089000D01*
X141337000Y-132849000D02*
X144369000Y-132849000D01*
X140953000Y-133569000D02*
X144369000Y-133569000D01*
X141127000Y-133209000D02*
X144369000Y-133209000D01*
X146851000Y-132369000D02*
X149535000Y-132369000D01*
X142404000Y-131649000D02*
X148816000Y-131649000D01*
X141007000Y-133449000D02*
X144369000Y-133449000D01*
X140537000Y-135330000D02*
X150683000Y-135330000D01*
X141389000Y-132769000D02*
X144369000Y-132769000D01*
X141970000Y-132049000D02*
X144369000Y-132049000D01*
X146851000Y-131889000D02*
X149088000Y-131889000D01*
X142504000Y-131569000D02*
X148716000Y-131569000D01*
X140613000Y-134689000D02*
X150607000Y-134689000D01*
X141026000Y-133409000D02*
X144369000Y-133409000D01*
X143171000Y-131129000D02*
X148049000Y-131129000D01*
X140533000Y-135410000D02*
X150687000Y-135410000D01*
X140535000Y-135370000D02*
X150685000Y-135370000D01*
X146851000Y-132649000D02*
X149748000Y-132649000D01*
X141500000Y-132609000D02*
X144369000Y-132609000D01*
X141046000Y-133369000D02*
X144369000Y-133369000D01*
X143666000Y-130889000D02*
X147554000Y-130889000D01*
X141085000Y-133289000D02*
X144369000Y-133289000D01*
X141239000Y-133009000D02*
X144369000Y-133009000D01*
X146851000Y-134089000D02*
X150460000Y-134089000D01*
X146851000Y-133209000D02*
X150093000Y-133209000D01*
X146851000Y-133329000D02*
X150155000Y-133329000D01*
X146851000Y-133049000D02*
X150005000Y-133049000D01*
X146851000Y-133129000D02*
X150050000Y-133129000D01*
X140971000Y-133529000D02*
X144369000Y-133529000D01*
X140713000Y-134249000D02*
X144369000Y-134249000D01*
X142174000Y-131849000D02*
X149046000Y-131849000D01*
X142263000Y-131769000D02*
X148957000Y-131769000D01*
X141444000Y-132689000D02*
X144369000Y-132689000D01*
X140530000Y-135530000D02*
X150690000Y-135530000D01*
X141894000Y-132129000D02*
X144369000Y-132129000D01*
X140682000Y-134369000D02*
X150538000Y-134369000D01*
X141821000Y-132209000D02*
X144369000Y-132209000D01*
X143321000Y-131049000D02*
X147899000Y-131049000D01*
X143868000Y-130809000D02*
X147352000Y-130809000D01*
X140565000Y-135010000D02*
X150655000Y-135010000D01*
X141621000Y-132449000D02*
X144369000Y-132449000D01*
X140827000Y-133889000D02*
X144369000Y-133889000D01*
X140786000Y-134009000D02*
X144369000Y-134009000D01*
X146851000Y-133769000D02*
X150348000Y-133769000D01*
X146851000Y-133369000D02*
X150174000Y-133369000D01*
X146851000Y-133729000D02*
X150333000Y-133729000D01*
X146851000Y-132529000D02*
X149660000Y-132529000D01*
X140586000Y-134849000D02*
X150634000Y-134849000D01*
X140532000Y-135450000D02*
X150688000Y-135450000D01*
X146851000Y-134289000D02*
X150517000Y-134289000D01*
X142735000Y-141089646D02*
X142735000Y-140089646D01*
X140748000Y-134129000D02*
X144369000Y-134129000D01*
X140872000Y-133769000D02*
X144369000Y-133769000D01*
X146851000Y-132049000D02*
X149250000Y-132049000D01*
X140813000Y-133929000D02*
X144369000Y-133929000D01*
X146851000Y-133249000D02*
X150114000Y-133249000D01*
X140936000Y-133609000D02*
X144369000Y-133609000D01*
X146851000Y-131929000D02*
X149130000Y-131929000D01*
X146851000Y-134169000D02*
X150484000Y-134169000D01*
X146851000Y-134129000D02*
X150472000Y-134129000D01*
X143573000Y-130929000D02*
X147647000Y-130929000D01*
X146851000Y-133449000D02*
X150213000Y-133449000D01*
X146851000Y-132929000D02*
X149933000Y-132929000D01*
X143100000Y-131169000D02*
X148120000Y-131169000D01*
X146851000Y-134329000D02*
X150528000Y-134329000D01*
X141931000Y-132089000D02*
X144369000Y-132089000D01*
X146851000Y-132329000D02*
X149502000Y-132329000D01*
X144748000Y-130569000D02*
X146472000Y-130569000D01*
X140663000Y-134449000D02*
X150557000Y-134449000D01*
X141287000Y-132929000D02*
X144369000Y-132929000D01*
X146851000Y-132969000D02*
X149957000Y-132969000D01*
X141857000Y-132169000D02*
X144369000Y-132169000D01*
X140542000Y-135250000D02*
X150678000Y-135250000D01*
X140606000Y-134729000D02*
X150614000Y-134729000D01*
X142049000Y-131969000D02*
X144369000Y-131969000D01*
X140570000Y-134970000D02*
X150650000Y-134970000D01*
X141786000Y-132249000D02*
X144369000Y-132249000D01*
X140580000Y-134889000D02*
X150640000Y-134889000D01*
X142665000Y-131449000D02*
X148555000Y-131449000D01*
X140530000Y-135570000D02*
X150690000Y-135570000D01*
X140556000Y-135090000D02*
X150664000Y-135090000D01*
X141215000Y-133049000D02*
X144369000Y-133049000D01*
X140672000Y-134409000D02*
X150548000Y-134409000D01*
X146851000Y-133289000D02*
X150135000Y-133289000D01*
X140628000Y-134609000D02*
X150592000Y-134609000D01*
X146851000Y-132209000D02*
X149399000Y-132209000D01*
X140920000Y-133649000D02*
X144369000Y-133649000D01*
X142454000Y-131609000D02*
X148766000Y-131609000D01*
X145011000Y-130529000D02*
X146209000Y-130529000D01*
X146851000Y-133409000D02*
X150194000Y-133409000D01*
X140887000Y-133729000D02*
X144369000Y-133729000D01*
X146851000Y-133009000D02*
X149981000Y-133009000D01*
X146851000Y-133569000D02*
X150267000Y-133569000D01*
X143764000Y-130849000D02*
X147456000Y-130849000D01*
X146851000Y-132569000D02*
X149690000Y-132569000D01*
X146851000Y-133969000D02*
X150421000Y-133969000D01*
X140540000Y-135290000D02*
X150680000Y-135290000D01*
X141752000Y-132289000D02*
X144369000Y-132289000D01*
X146851000Y-132129000D02*
X149326000Y-132129000D01*
X141685000Y-132369000D02*
X144369000Y-132369000D01*
X140736000Y-134169000D02*
X144369000Y-134169000D01*
X143980000Y-130769000D02*
X147240000Y-130769000D01*
X146851000Y-132169000D02*
X149363000Y-132169000D01*
X142009000Y-132009000D02*
X144369000Y-132009000D01*
X140703000Y-134289000D02*
X144369000Y-134289000D01*
X143031000Y-131209000D02*
X148189000Y-131209000D01*
X141106000Y-133249000D02*
X144369000Y-133249000D01*
X146851000Y-133929000D02*
X150407000Y-133929000D01*
X141472000Y-132649000D02*
X144369000Y-132649000D01*
X141148000Y-133169000D02*
X144369000Y-133169000D01*
X146851000Y-132769000D02*
X149831000Y-132769000D01*
X140856000Y-133809000D02*
X144369000Y-133809000D01*
X141653000Y-132409000D02*
X144369000Y-132409000D01*
X142556000Y-131529000D02*
X148664000Y-131529000D01*
X141193000Y-133089000D02*
X144369000Y-133089000D01*
X146851000Y-132289000D02*
X149468000Y-132289000D01*
X140654000Y-134489000D02*
X150566000Y-134489000D01*
X146851000Y-134209000D02*
X150495000Y-134209000D01*
X146851000Y-133649000D02*
X150300000Y-133649000D01*
X142356000Y-131689000D02*
X148864000Y-131689000D01*
X146851000Y-132489000D02*
X149630000Y-132489000D01*
X142610000Y-131489000D02*
X148610000Y-131489000D01*
X141560000Y-132529000D02*
X144369000Y-132529000D01*
X140599000Y-134769000D02*
X150621000Y-134769000D01*
X146851000Y-133169000D02*
X150072000Y-133169000D01*
X142218000Y-131809000D02*
X149002000Y-131809000D01*
X140989000Y-133489000D02*
X144369000Y-133489000D01*
X140531000Y-135490000D02*
X150689000Y-135490000D01*
X146851000Y-132689000D02*
X149776000Y-132689000D01*
X140903000Y-133689000D02*
X144369000Y-133689000D01*
X146851000Y-133489000D02*
X150231000Y-133489000D01*
X141590000Y-132489000D02*
X144369000Y-132489000D01*
X146851000Y-134249000D02*
X150507000Y-134249000D01*
X141170000Y-133129000D02*
X144369000Y-133129000D01*
X146851000Y-131969000D02*
X149171000Y-131969000D01*
X143401000Y-131009000D02*
X147819000Y-131009000D01*
X140548000Y-135170000D02*
X150672000Y-135170000D01*
X146851000Y-132809000D02*
X149857000Y-132809000D01*
X150730000Y-135610000D02*
G75*
G03*
X150730000Y-135610000I-5120000J0D01*
G01*
D12*
X121910000Y-82750000D02*
X126510000Y-82750000D01*
X121910000Y-104250000D02*
X121910000Y-82750000D01*
X126510000Y-104250000D02*
X126510000Y-82750000D01*
X121910000Y-104250000D02*
X126510000Y-104250000D01*
D14*
X134920000Y-93910000D02*
X145080000Y-93910000D01*
X145080000Y-92640000D02*
X134920000Y-92640000D01*
X145080000Y-93910000D02*
X145080000Y-86290000D01*
X134920000Y-86290000D02*
X134920000Y-93910000D01*
X145080000Y-86290000D02*
X134920000Y-86290000D01*
X129765000Y-133289000D02*
X133049000Y-133289000D01*
X129260000Y-134889000D02*
X139320000Y-134889000D01*
X135531000Y-133129000D02*
X138730000Y-133129000D01*
X130398000Y-132329000D02*
X133049000Y-132329000D01*
X135531000Y-132809000D02*
X138537000Y-132809000D01*
X131851000Y-131129000D02*
X136729000Y-131129000D01*
X132548000Y-130809000D02*
X136032000Y-130809000D01*
X131084000Y-131649000D02*
X137496000Y-131649000D01*
X129600000Y-133649000D02*
X133049000Y-133649000D01*
X129919000Y-133009000D02*
X133049000Y-133009000D01*
X135531000Y-134329000D02*
X139208000Y-134329000D01*
X130898000Y-131809000D02*
X137682000Y-131809000D01*
X129316000Y-134569000D02*
X139264000Y-134569000D01*
X130210000Y-132569000D02*
X133049000Y-132569000D01*
X135531000Y-134129000D02*
X139152000Y-134129000D01*
X130069000Y-132769000D02*
X133049000Y-132769000D01*
X130812000Y-131889000D02*
X133049000Y-131889000D01*
X135531000Y-133329000D02*
X138835000Y-133329000D01*
X129255000Y-134930000D02*
X139325000Y-134930000D01*
X132081000Y-131009000D02*
X136499000Y-131009000D01*
X135531000Y-133769000D02*
X139028000Y-133769000D01*
X135531000Y-133609000D02*
X138964000Y-133609000D01*
X135531000Y-133249000D02*
X138794000Y-133249000D01*
X131036000Y-131689000D02*
X137544000Y-131689000D01*
X130240000Y-132529000D02*
X133049000Y-132529000D01*
X132660000Y-130769000D02*
X135920000Y-130769000D01*
X129967000Y-132929000D02*
X133049000Y-132929000D01*
X130650000Y-132049000D02*
X133049000Y-132049000D01*
X129293000Y-134689000D02*
X139287000Y-134689000D01*
X129479000Y-133969000D02*
X133049000Y-133969000D01*
X135531000Y-131969000D02*
X137851000Y-131969000D01*
X129383000Y-134289000D02*
X133049000Y-134289000D01*
X129706000Y-133409000D02*
X133049000Y-133409000D01*
X129992000Y-132889000D02*
X133049000Y-132889000D01*
X129210000Y-135570000D02*
X139370000Y-135570000D01*
X130611000Y-132089000D02*
X133049000Y-132089000D01*
X135531000Y-133209000D02*
X138773000Y-133209000D01*
X135531000Y-133849000D02*
X139058000Y-133849000D01*
X135531000Y-132249000D02*
X138114000Y-132249000D01*
X129362000Y-134369000D02*
X139218000Y-134369000D01*
X129343000Y-134449000D02*
X139237000Y-134449000D01*
X135531000Y-133169000D02*
X138752000Y-133169000D01*
X135531000Y-132929000D02*
X138613000Y-132929000D01*
X129850000Y-133129000D02*
X133049000Y-133129000D01*
X132165000Y-130969000D02*
X136415000Y-130969000D01*
X135531000Y-132489000D02*
X138310000Y-132489000D01*
X129222000Y-135250000D02*
X139358000Y-135250000D01*
X135531000Y-131889000D02*
X137768000Y-131889000D01*
X135531000Y-133489000D02*
X138911000Y-133489000D01*
X129279000Y-134769000D02*
X139301000Y-134769000D01*
X129633000Y-133569000D02*
X133049000Y-133569000D01*
X135531000Y-132089000D02*
X137969000Y-132089000D01*
X130152000Y-132649000D02*
X133049000Y-132649000D01*
X129266000Y-134849000D02*
X139314000Y-134849000D01*
X129215000Y-135370000D02*
X139365000Y-135370000D01*
X129210000Y-135530000D02*
X139370000Y-135530000D01*
X129522000Y-133849000D02*
X133049000Y-133849000D01*
X135531000Y-132729000D02*
X138484000Y-132729000D01*
X131520000Y-131329000D02*
X137060000Y-131329000D01*
X129245000Y-135010000D02*
X139335000Y-135010000D01*
X135531000Y-133809000D02*
X139044000Y-133809000D01*
X129225000Y-135210000D02*
X139355000Y-135210000D01*
X135531000Y-131929000D02*
X137810000Y-131929000D01*
X130432000Y-132289000D02*
X133049000Y-132289000D01*
X132444000Y-130849000D02*
X136136000Y-130849000D01*
X131711000Y-131209000D02*
X136869000Y-131209000D01*
X132253000Y-130929000D02*
X136327000Y-130929000D01*
X129211000Y-135490000D02*
X139369000Y-135490000D01*
X130180000Y-132609000D02*
X133049000Y-132609000D01*
X131345000Y-131449000D02*
X137235000Y-131449000D01*
X129493000Y-133929000D02*
X133049000Y-133929000D01*
X130854000Y-131849000D02*
X137726000Y-131849000D01*
X129651000Y-133529000D02*
X133049000Y-133529000D01*
X135531000Y-134169000D02*
X139164000Y-134169000D01*
X130501000Y-132209000D02*
X133049000Y-132209000D01*
X131925000Y-131089000D02*
X136655000Y-131089000D01*
X135531000Y-133089000D02*
X138707000Y-133089000D01*
X135531000Y-134289000D02*
X139197000Y-134289000D01*
X129943000Y-132969000D02*
X133049000Y-132969000D01*
X135531000Y-134009000D02*
X139114000Y-134009000D01*
X133691000Y-130529000D02*
X134889000Y-130529000D01*
X135531000Y-133929000D02*
X139087000Y-133929000D01*
X129213000Y-135410000D02*
X139367000Y-135410000D01*
X129807000Y-133209000D02*
X133049000Y-133209000D01*
X135531000Y-132969000D02*
X138637000Y-132969000D01*
X135531000Y-132169000D02*
X138043000Y-132169000D01*
X135531000Y-134209000D02*
X139175000Y-134209000D01*
X129228000Y-135170000D02*
X139352000Y-135170000D01*
X129453000Y-134049000D02*
X133049000Y-134049000D01*
X130043000Y-132809000D02*
X133049000Y-132809000D01*
X130989000Y-131729000D02*
X137591000Y-131729000D01*
X135531000Y-133049000D02*
X138685000Y-133049000D01*
X129466000Y-134009000D02*
X133049000Y-134009000D01*
X131290000Y-131489000D02*
X137290000Y-131489000D01*
X135531000Y-132889000D02*
X138588000Y-132889000D01*
X135531000Y-133369000D02*
X138854000Y-133369000D01*
X131236000Y-131529000D02*
X137344000Y-131529000D01*
X135531000Y-132049000D02*
X137930000Y-132049000D01*
X129828000Y-133169000D02*
X133049000Y-133169000D01*
X129687000Y-133449000D02*
X133049000Y-133449000D01*
X130096000Y-132729000D02*
X133049000Y-132729000D01*
X133060000Y-130649000D02*
X135520000Y-130649000D01*
X130770000Y-131929000D02*
X133049000Y-131929000D01*
X135531000Y-133529000D02*
X138929000Y-133529000D01*
X129895000Y-133049000D02*
X133049000Y-133049000D01*
X133428000Y-130569000D02*
X135152000Y-130569000D01*
X131134000Y-131609000D02*
X137446000Y-131609000D01*
X131460000Y-131369000D02*
X137120000Y-131369000D01*
X129308000Y-134609000D02*
X139272000Y-134609000D01*
X129583000Y-133689000D02*
X133049000Y-133689000D01*
X129250000Y-134970000D02*
X139330000Y-134970000D01*
X132001000Y-131049000D02*
X136579000Y-131049000D01*
X129393000Y-134249000D02*
X133049000Y-134249000D01*
X129240000Y-135050000D02*
X139340000Y-135050000D01*
X130915000Y-140589646D02*
X131915000Y-140589646D01*
X135531000Y-133889000D02*
X139073000Y-133889000D01*
X135531000Y-133289000D02*
X138815000Y-133289000D01*
X135531000Y-134249000D02*
X139187000Y-134249000D01*
X129300000Y-134649000D02*
X139280000Y-134649000D01*
X130365000Y-132369000D02*
X133049000Y-132369000D01*
X131415000Y-141089646D02*
X131415000Y-140089646D01*
X130301000Y-132449000D02*
X133049000Y-132449000D01*
X129372000Y-134329000D02*
X133049000Y-134329000D01*
X129416000Y-134169000D02*
X133049000Y-134169000D01*
X130689000Y-132009000D02*
X133049000Y-132009000D01*
X135531000Y-132129000D02*
X138006000Y-132129000D01*
X135531000Y-132409000D02*
X138247000Y-132409000D01*
X133228000Y-130609000D02*
X135352000Y-130609000D01*
X131581000Y-131289000D02*
X136999000Y-131289000D01*
X129325000Y-134529000D02*
X139255000Y-134529000D01*
X130574000Y-132129000D02*
X133049000Y-132129000D01*
X129286000Y-134729000D02*
X139294000Y-134729000D01*
X131645000Y-131249000D02*
X136935000Y-131249000D01*
X129428000Y-134129000D02*
X133049000Y-134129000D01*
X129745000Y-133329000D02*
X133049000Y-133329000D01*
X135531000Y-132329000D02*
X138182000Y-132329000D01*
X135531000Y-133569000D02*
X138947000Y-133569000D01*
X135531000Y-133409000D02*
X138874000Y-133409000D01*
X129567000Y-133729000D02*
X133049000Y-133729000D01*
X130466000Y-132249000D02*
X133049000Y-132249000D01*
X135531000Y-134089000D02*
X139140000Y-134089000D01*
X129212000Y-135450000D02*
X139368000Y-135450000D01*
X131184000Y-131569000D02*
X137396000Y-131569000D01*
X135531000Y-133969000D02*
X139101000Y-133969000D01*
X135531000Y-132009000D02*
X137891000Y-132009000D01*
X132912000Y-130689000D02*
X135668000Y-130689000D01*
X129217000Y-135330000D02*
X139363000Y-135330000D01*
X129873000Y-133089000D02*
X133049000Y-133089000D01*
X129669000Y-133489000D02*
X133049000Y-133489000D01*
X129786000Y-133249000D02*
X133049000Y-133249000D01*
X129220000Y-135290000D02*
X139360000Y-135290000D01*
X135531000Y-132449000D02*
X138279000Y-132449000D01*
X129232000Y-135130000D02*
X139348000Y-135130000D01*
X135531000Y-133449000D02*
X138893000Y-133449000D01*
X130537000Y-132169000D02*
X133049000Y-132169000D01*
X135531000Y-132289000D02*
X138148000Y-132289000D01*
X135531000Y-132689000D02*
X138456000Y-132689000D01*
X135531000Y-132529000D02*
X138340000Y-132529000D01*
X130943000Y-131769000D02*
X137637000Y-131769000D01*
X129236000Y-135090000D02*
X139344000Y-135090000D01*
X130729000Y-131969000D02*
X133049000Y-131969000D01*
X129726000Y-133369000D02*
X133049000Y-133369000D01*
X130124000Y-132689000D02*
X133049000Y-132689000D01*
X135531000Y-132209000D02*
X138079000Y-132209000D01*
X135531000Y-133729000D02*
X139013000Y-133729000D01*
X130270000Y-132489000D02*
X133049000Y-132489000D01*
X135531000Y-132849000D02*
X138563000Y-132849000D01*
X135531000Y-133009000D02*
X138661000Y-133009000D01*
X130333000Y-132409000D02*
X133049000Y-132409000D01*
X129552000Y-133769000D02*
X133049000Y-133769000D01*
X129507000Y-133889000D02*
X133049000Y-133889000D01*
X135531000Y-132649000D02*
X138428000Y-132649000D01*
X129272000Y-134809000D02*
X139308000Y-134809000D01*
X131401000Y-131409000D02*
X137179000Y-131409000D01*
X129334000Y-134489000D02*
X139246000Y-134489000D01*
X129616000Y-133609000D02*
X133049000Y-133609000D01*
X135531000Y-132769000D02*
X138511000Y-132769000D01*
X129405000Y-134209000D02*
X133049000Y-134209000D01*
X132780000Y-130729000D02*
X135800000Y-130729000D01*
X132346000Y-130889000D02*
X136234000Y-130889000D01*
X135531000Y-133649000D02*
X138980000Y-133649000D01*
X135531000Y-134049000D02*
X139127000Y-134049000D01*
X135531000Y-132369000D02*
X138215000Y-132369000D01*
X135531000Y-132609000D02*
X138400000Y-132609000D01*
X129210000Y-135610000D02*
X139370000Y-135610000D01*
X130017000Y-132849000D02*
X133049000Y-132849000D01*
X135531000Y-132569000D02*
X138370000Y-132569000D01*
X129440000Y-134089000D02*
X133049000Y-134089000D01*
X131780000Y-131169000D02*
X136800000Y-131169000D01*
X129536000Y-133809000D02*
X133049000Y-133809000D01*
X135531000Y-133689000D02*
X138997000Y-133689000D01*
X129352000Y-134409000D02*
X139228000Y-134409000D01*
X139410000Y-135610000D02*
G75*
G03*
X139410000Y-135610000I-5120000J0D01*
G01*
X129900000Y-129285000D02*
X150100000Y-129285000D01*
X150100000Y-95085000D02*
X129900000Y-95085000D01*
X150100000Y-129285000D02*
X150100000Y-95085000D01*
X143500000Y-94695000D02*
X141490000Y-94695000D01*
X129900000Y-95085000D02*
X129900000Y-129285000D01*
D13*
X129081260Y-134147940D02*
X119078740Y-134147940D01*
X119078740Y-134147940D02*
X119078740Y-106146980D01*
X119078740Y-106146980D02*
X129081260Y-106146980D01*
X129081260Y-106146980D02*
X129081260Y-134147940D01*
X124080000Y-134147940D02*
X123079240Y-134147940D01*
X124080000Y-106146980D02*
X123079240Y-106146980D01*
D14*
X123975000Y-138110000D02*
X126835000Y-138110000D01*
X126835000Y-138110000D02*
X126835000Y-136190000D01*
X126835000Y-136190000D02*
X123975000Y-136190000D01*
X156835000Y-138110000D02*
X156835000Y-136190000D01*
X153975000Y-138110000D02*
X156835000Y-138110000D01*
X156835000Y-136190000D02*
X153975000Y-136190000D01*
X124713748Y-138980000D02*
X125236252Y-138980000D01*
X124713748Y-140400000D02*
X125236252Y-140400000D01*
X154713748Y-138980000D02*
X155236252Y-138980000D01*
X154713748Y-140400000D02*
X155236252Y-140400000D01*
X156813332Y-141690000D02*
X146653332Y-141690000D01*
X146653332Y-149310000D02*
X156813332Y-149310000D01*
X156813332Y-149310000D02*
X156813332Y-141690000D01*
X146653332Y-142960000D02*
X156813332Y-142960000D01*
X146653332Y-141690000D02*
X146653332Y-149310000D01*
X123186666Y-149310000D02*
X133346666Y-149310000D01*
X123186666Y-142960000D02*
X133346666Y-142960000D01*
X133346666Y-149310000D02*
X133346666Y-141690000D01*
X133346666Y-141690000D02*
X123186666Y-141690000D01*
X123186666Y-141690000D02*
X123186666Y-149310000D01*
D15*
X162750000Y-95251800D03*
X162750000Y-117451400D03*
X124080000Y-131148200D03*
X124080000Y-108948600D03*
%LPC*%
D16*
X162750000Y-95251800D03*
X162750000Y-117451400D03*
D17*
X153000000Y-117334660D03*
D18*
X153000000Y-102094660D03*
D19*
X161555000Y-130460000D03*
D20*
X161555000Y-133000000D03*
X161555000Y-135540000D03*
D21*
X165000000Y-145000000D03*
X165000000Y-85000000D03*
D22*
X145610000Y-138110000D03*
D23*
X145610000Y-133110000D03*
X123360000Y-98500000D03*
X125060000Y-88500000D03*
D24*
X137460000Y-90100000D03*
D25*
X142540000Y-90100000D03*
D22*
X134290000Y-138110000D03*
D23*
X134290000Y-133110000D03*
D26*
X142500000Y-97485000D03*
D27*
X137500000Y-97485000D03*
X147700000Y-126885000D03*
X132300000Y-126885000D03*
D21*
X115000000Y-85000000D03*
X115000000Y-145000000D03*
D16*
X124080000Y-131148200D03*
X124080000Y-108948600D03*
D28*
X126000000Y-137150000D03*
X123950000Y-137150000D03*
X156000000Y-137150000D03*
X153950000Y-137150000D03*
D29*
X123950000Y-139690000D03*
X126000000Y-139690000D03*
X153950000Y-139690000D03*
X156000000Y-139690000D03*
D30*
X154273332Y-145500000D03*
D25*
X149193332Y-145500000D03*
D30*
X130806666Y-145500000D03*
D25*
X125726666Y-145500000D03*
M02*
