G04 #@! TF.GenerationSoftware,KiCad,Pcbnew,(6.0.4-0)*
G04 #@! TF.CreationDate,2022-08-24T21:29:38+02:00*
G04 #@! TF.ProjectId,Power Supply,506f7765-7220-4537-9570-706c792e6b69,rev?*
G04 #@! TF.SameCoordinates,Original*
G04 #@! TF.FileFunction,Copper,L1,Top*
G04 #@! TF.FilePolarity,Positive*
%FSLAX46Y46*%
G04 Gerber Fmt 4.6, Leading zero omitted, Abs format (unit mm)*
G04 Created by KiCad (PCBNEW (6.0.4-0)) date 2022-08-24 21:29:38*
%MOMM*%
%LPD*%
G01*
G04 APERTURE LIST*
G04 Aperture macros list*
%AMRoundRect*
0 Rectangle with rounded corners*
0 $1 Rounding radius*
0 $2 $3 $4 $5 $6 $7 $8 $9 X,Y pos of 4 corners*
0 Add a 4 corners polygon primitive as box body*
4,1,4,$2,$3,$4,$5,$6,$7,$8,$9,$2,$3,0*
0 Add four circle primitives for the rounded corners*
1,1,$1+$1,$2,$3*
1,1,$1+$1,$4,$5*
1,1,$1+$1,$6,$7*
1,1,$1+$1,$8,$9*
0 Add four rect primitives between the rounded corners*
20,1,$1+$1,$2,$3,$4,$5,0*
20,1,$1+$1,$4,$5,$6,$7,0*
20,1,$1+$1,$6,$7,$8,$9,0*
20,1,$1+$1,$8,$9,$2,$3,0*%
G04 Aperture macros list end*
G04 #@! TA.AperFunction,ComponentPad*
%ADD10C,3.500000*%
G04 #@! TD*
G04 #@! TA.AperFunction,ComponentPad*
%ADD11C,2.400000*%
G04 #@! TD*
G04 #@! TA.AperFunction,ComponentPad*
%ADD12O,2.400000X2.400000*%
G04 #@! TD*
G04 #@! TA.AperFunction,ComponentPad*
%ADD13R,2.000000X1.905000*%
G04 #@! TD*
G04 #@! TA.AperFunction,ComponentPad*
%ADD14O,2.000000X1.905000*%
G04 #@! TD*
G04 #@! TA.AperFunction,ComponentPad*
%ADD15R,2.000000X2.000000*%
G04 #@! TD*
G04 #@! TA.AperFunction,ComponentPad*
%ADD16C,2.000000*%
G04 #@! TD*
G04 #@! TA.AperFunction,ComponentPad*
%ADD17R,3.000000X3.000000*%
G04 #@! TD*
G04 #@! TA.AperFunction,ComponentPad*
%ADD18C,3.000000*%
G04 #@! TD*
G04 #@! TA.AperFunction,ComponentPad*
%ADD19R,2.000000X2.300000*%
G04 #@! TD*
G04 #@! TA.AperFunction,ComponentPad*
%ADD20C,2.300000*%
G04 #@! TD*
G04 #@! TA.AperFunction,SMDPad,CuDef*
%ADD21RoundRect,0.250000X0.325000X0.450000X-0.325000X0.450000X-0.325000X-0.450000X0.325000X-0.450000X0*%
G04 #@! TD*
G04 #@! TA.AperFunction,SMDPad,CuDef*
%ADD22RoundRect,0.250000X-0.325000X-0.450000X0.325000X-0.450000X0.325000X0.450000X-0.325000X0.450000X0*%
G04 #@! TD*
G04 #@! TA.AperFunction,Conductor*
%ADD23C,1.000000*%
G04 #@! TD*
G04 #@! TA.AperFunction,Conductor*
%ADD24C,2.500000*%
G04 #@! TD*
G04 APERTURE END LIST*
D10*
X162750000Y-95251800D03*
X162750000Y-117451400D03*
D11*
X153000000Y-117334660D03*
D12*
X153000000Y-102094660D03*
D13*
X161555000Y-130460000D03*
D14*
X161555000Y-133000000D03*
X161555000Y-135540000D03*
D15*
X145610000Y-138110000D03*
D16*
X145610000Y-133110000D03*
X123360000Y-98500000D03*
X125060000Y-88500000D03*
D17*
X137460000Y-90100000D03*
D18*
X142540000Y-90100000D03*
D15*
X134290000Y-138110000D03*
D16*
X134290000Y-133110000D03*
D19*
X142500000Y-97485000D03*
D20*
X137500000Y-97485000D03*
X147700000Y-126885000D03*
X132300000Y-126885000D03*
D10*
X124080000Y-131148200D03*
X124080000Y-108948600D03*
D21*
X126000000Y-137150000D03*
X123950000Y-137150000D03*
X156000000Y-137150000D03*
X153950000Y-137150000D03*
D22*
X123950000Y-139690000D03*
X126000000Y-139690000D03*
X153950000Y-139690000D03*
X156000000Y-139690000D03*
D17*
X154273332Y-145500000D03*
D18*
X149193332Y-145500000D03*
D17*
X130806666Y-145500000D03*
D18*
X125726666Y-145500000D03*
D23*
X126025000Y-137150000D02*
X130065000Y-133110000D01*
X130065000Y-133110000D02*
X134290000Y-133110000D01*
X160150000Y-133000000D02*
X156000000Y-137150000D01*
X161555000Y-133000000D02*
X160150000Y-133000000D01*
D24*
X131640000Y-138110000D02*
X134290000Y-138110000D01*
X125726666Y-145500000D02*
X125726666Y-144023334D01*
X154760000Y-130460000D02*
X147110000Y-138110000D01*
X120250000Y-143000000D02*
X122750000Y-145500000D01*
X124080000Y-131148200D02*
X120250000Y-134978200D01*
X134290000Y-138110000D02*
X145610000Y-138110000D01*
D23*
X126000000Y-139690000D02*
X126000000Y-145226666D01*
D24*
X145610000Y-138110000D02*
X147110000Y-138110000D01*
D23*
X126000000Y-145226666D02*
X125726666Y-145500000D01*
D24*
X120250000Y-134978200D02*
X120250000Y-143000000D01*
X122750000Y-145500000D02*
X125726666Y-145500000D01*
X161555000Y-130460000D02*
X154760000Y-130460000D01*
X125726666Y-144023334D02*
X131640000Y-138110000D01*
D23*
X156000000Y-141250000D02*
X155000000Y-142250000D01*
D24*
X151000000Y-142250000D02*
X155000000Y-142250000D01*
X161555000Y-135540000D02*
X161555000Y-138540000D01*
X149193332Y-145500000D02*
X149193332Y-144056668D01*
X149193332Y-144056668D02*
X151000000Y-142250000D01*
X155000000Y-142250000D02*
X157845000Y-142250000D01*
X161555000Y-138540000D02*
X157845000Y-142250000D01*
D23*
X156000000Y-139690000D02*
X156000000Y-141250000D01*
X123975000Y-137150000D02*
X123975000Y-139665000D01*
X123975000Y-139665000D02*
X123950000Y-139690000D01*
X153950000Y-137150000D02*
X153950000Y-139690000D01*
M02*
