G04 #@! TF.GenerationSoftware,KiCad,Pcbnew,6.0.5-a6ca702e91~116~ubuntu20.04.1*
G04 #@! TF.CreationDate,2022-05-18T21:18:03+02:00*
G04 #@! TF.ProjectId,Power Supply,506f7765-7220-4537-9570-706c792e6b69,rev?*
G04 #@! TF.SameCoordinates,Original*
G04 #@! TF.FileFunction,Copper,L1,Top*
G04 #@! TF.FilePolarity,Positive*
%FSLAX46Y46*%
G04 Gerber Fmt 4.6, Leading zero omitted, Abs format (unit mm)*
G04 Created by KiCad (PCBNEW 6.0.5-a6ca702e91~116~ubuntu20.04.1) date 2022-05-18 21:18:03*
%MOMM*%
%LPD*%
G01*
G04 APERTURE LIST*
G04 Aperture macros list*
%AMRoundRect*
0 Rectangle with rounded corners*
0 $1 Rounding radius*
0 $2 $3 $4 $5 $6 $7 $8 $9 X,Y pos of 4 corners*
0 Add a 4 corners polygon primitive as box body*
4,1,4,$2,$3,$4,$5,$6,$7,$8,$9,$2,$3,0*
0 Add four circle primitives for the rounded corners*
1,1,$1+$1,$2,$3*
1,1,$1+$1,$4,$5*
1,1,$1+$1,$6,$7*
1,1,$1+$1,$8,$9*
0 Add four rect primitives between the rounded corners*
20,1,$1+$1,$2,$3,$4,$5,0*
20,1,$1+$1,$4,$5,$6,$7,0*
20,1,$1+$1,$6,$7,$8,$9,0*
20,1,$1+$1,$8,$9,$2,$3,0*%
G04 Aperture macros list end*
G04 #@! TA.AperFunction,ComponentPad*
%ADD10R,3.000000X3.000000*%
G04 #@! TD*
G04 #@! TA.AperFunction,ComponentPad*
%ADD11C,3.000000*%
G04 #@! TD*
G04 #@! TA.AperFunction,ComponentPad*
%ADD12C,3.500000*%
G04 #@! TD*
G04 #@! TA.AperFunction,ComponentPad*
%ADD13C,2.400000*%
G04 #@! TD*
G04 #@! TA.AperFunction,ComponentPad*
%ADD14O,2.400000X2.400000*%
G04 #@! TD*
G04 #@! TA.AperFunction,ComponentPad*
%ADD15R,2.000000X1.905000*%
G04 #@! TD*
G04 #@! TA.AperFunction,ComponentPad*
%ADD16O,2.000000X1.905000*%
G04 #@! TD*
G04 #@! TA.AperFunction,ComponentPad*
%ADD17R,2.000000X2.000000*%
G04 #@! TD*
G04 #@! TA.AperFunction,ComponentPad*
%ADD18C,2.000000*%
G04 #@! TD*
G04 #@! TA.AperFunction,ComponentPad*
%ADD19R,2.000000X2.300000*%
G04 #@! TD*
G04 #@! TA.AperFunction,ComponentPad*
%ADD20C,2.300000*%
G04 #@! TD*
G04 #@! TA.AperFunction,SMDPad,CuDef*
%ADD21RoundRect,0.250000X0.325000X0.450000X-0.325000X0.450000X-0.325000X-0.450000X0.325000X-0.450000X0*%
G04 #@! TD*
G04 #@! TA.AperFunction,SMDPad,CuDef*
%ADD22RoundRect,0.250000X-0.325000X-0.450000X0.325000X-0.450000X0.325000X0.450000X-0.325000X0.450000X0*%
G04 #@! TD*
G04 #@! TA.AperFunction,Conductor*
%ADD23C,1.500000*%
G04 #@! TD*
G04 #@! TA.AperFunction,Conductor*
%ADD24C,2.500000*%
G04 #@! TD*
G04 #@! TA.AperFunction,Conductor*
%ADD25C,1.000000*%
G04 #@! TD*
G04 APERTURE END LIST*
D10*
X133520000Y-136000000D03*
D11*
X138600000Y-136000000D03*
D12*
X136140000Y-73841800D03*
X136140000Y-96041400D03*
D13*
X133500000Y-101380000D03*
D14*
X133500000Y-116620000D03*
D15*
X137900000Y-122800000D03*
D16*
X137900000Y-125340000D03*
X137900000Y-127880000D03*
D17*
X126300000Y-127980000D03*
D18*
X126300000Y-122980000D03*
X104050000Y-89830000D03*
X105750000Y-79830000D03*
D10*
X118230000Y-79970000D03*
D11*
X123310000Y-79970000D03*
D18*
X114980000Y-122980000D03*
D17*
X114980000Y-127980000D03*
D19*
X122955000Y-87355000D03*
D20*
X117955000Y-87355000D03*
X128155000Y-116755000D03*
X112755000Y-116755000D03*
D12*
X104770000Y-121018200D03*
X104770000Y-98818600D03*
D21*
X106800000Y-134760000D03*
X104750000Y-134760000D03*
X128550000Y-134700000D03*
X126500000Y-134700000D03*
D22*
X104750000Y-137300000D03*
X106800000Y-137300000D03*
X126500000Y-137240000D03*
X128550000Y-137240000D03*
D10*
X111760000Y-136000000D03*
D11*
X116840000Y-136000000D03*
D23*
X128550000Y-134700000D02*
X132220000Y-134700000D01*
X132220000Y-134700000D02*
X133520000Y-136000000D01*
D24*
X137900000Y-125340000D02*
X132660000Y-125340000D01*
X132660000Y-125340000D02*
X130660000Y-127340000D01*
X133520000Y-130200000D02*
X130660000Y-127340000D01*
X130660000Y-127340000D02*
X126300000Y-122980000D01*
X133520000Y-136000000D02*
X133520000Y-130200000D01*
X111760000Y-126200000D02*
X111760000Y-136000000D01*
D25*
X110520000Y-134760000D02*
X111760000Y-136000000D01*
D24*
X114980000Y-122980000D02*
X111760000Y-126200000D01*
D25*
X106800000Y-134760000D02*
X110520000Y-134760000D01*
X108400000Y-138900000D02*
X116800000Y-138900000D01*
X106800000Y-137300000D02*
X108400000Y-138900000D01*
X116800000Y-138900000D02*
X116840000Y-138860000D01*
X116840000Y-138860000D02*
X116840000Y-136000000D01*
X138600000Y-136000000D02*
X138600000Y-138800000D01*
X138600000Y-138800000D02*
X129800000Y-138800000D01*
X128550000Y-137240000D02*
X128550000Y-137550000D01*
X128550000Y-137550000D02*
X129800000Y-138800000D01*
X104750000Y-134760000D02*
X104750000Y-137300000D01*
X126500000Y-134700000D02*
X126500000Y-137240000D01*
M02*
